{
.appVersion = "1075";
DisplayStrings = (
"/koKai-thai/saraUu-thai/thoThung-thai/saraU-thai/phoSamphao-thai/ru-thai/ru-thai.short/saraU-thai.small/lu-thai/lu-thai.short/saraUu-thai.small/doChada-thai/doChada-thai.short/saraU-thai.small/toPatak-thai/toPatak-thai.short/phinthu-thai.small/ru_lakkhangyao-thai/lu_lakkhangyao-thai/poPla-thai/maiChattawa-thai.narrow/yoYing-thai/yoYing-thai.less/khoKhai-thai/khoKhuat-thai/choChang-thai/soSo-thai/khoKhwai-thai/khoKhon-thai/soSala-thai/doDek-thai/toTao-thai/thoThahan-thai/thoNangmontho-thai/noNu-thai/moMa-thai/choChoe-thai/noNen-thai/thoPhuthao-thai/khoRakhang-thai/thoThong-thai/roRua-thai/choChan-thai/boBaimai-thai/maiEk-thai/saraAa-thai/woWaen-thai/saraIi-thai/maiChattawa-thai.small/poPla-thai/saraIi-thai.narrow/maiTri-thai.small/boBaimai-thai/saraIi-thai/maiEk-thai.small/poPla-thai/thanthakhat-thai.narrow/ngoNgu-thai/boBaimai-thai/saraIi-thai/maiEk-thai/thoThan-thai/thoThan-thai.less/choChing-thai/saraIi-thai/maiTho-thai/choChing-thai/saraIi-thai/maiEk-thai/choChing-thai/saraUee-thai/saraE-thai/koKai-thai/phinthu-thai/maitaikhu-thai/boBaimai-thai/oAng-thai/maiTri-thai/saraE-thai/poPla-thai/maitaikhu-thai.narrow/noNu-thai/poPla-thai/maiTho-thai.narrow/poPla-thai/maiTri-thai.narrow/poPla-thai/nikhahit-thai.narrow/noNu-thai/nikhahit_maiTho-thai/saraAa-thai/loLing-thai/nikhahit_maiEk-thai/soSua-thai/boBaimai-thai/poPla-thai/maiEk-thai.narrow/soRusi-thai/yoYak-thai/phoPhung-thai/foFa-thai/foFan-thai/maiTho-thai.narrow/phoPhan-thai/hoHip-thai/loChula-thai/loChula-thai.short/oAng-thai/hoNokhuk-thai"
);
copyright = "Copyright © 2018 by Cadson Demak Co.,Ltd.. All rights reserved.";
customParameters = (
{
name = vendorID;
value = CDK;
},
{
name = description;
value = "Copyright (c) 2018, Cadson Demak (info@cadsondemak.com)";
},
{
name = license;

glyphs = (
{
color = 4;
glyphname = A;
lastChange = "2018-02-05 09:35:04 +0000";
layers = (
{
anchors = (
{
name = bottom;
position = "{330, 0}";
},
{
name = ogonek;
position = "{593, 10}";
},
{
name = top;
position = "{330, 700}";
}
);
layerId = "0B1DFD06-3317-40CA-B510-4969A0718C16";
paths = (
{
closed = 1;
nodes = (
"176 218 LINE",
"485 218 LINE",
"571 -9 LINE",
"601 3 OFFCURVE",
"617 37 OFFCURVE",
"605 68 CURVE SMOOTH",
"358 691 LINE SMOOTH",
"353 703 OFFCURVE",
"341 709 OFFCURVE",
"330 709 CURVE SMOOTH",
"316 709 OFFCURVE",
"306 703 OFFCURVE",
"302 691 CURVE SMOOTH",
"54 68 LINE SMOOTH",
"42 37 OFFCURVE",
"57 3 OFFCURVE",
"88 -9 CURVE"
);
},
{
closed = 1;
nodes = (
"327 609 LINE",
"315 641 LINE",
"319 643 LINE",
"464 272 LINE",
"196 272 LINE"
);
}
);
width = 659;
}
);
note = A;
unicode = 0041;
},
{
color = 4;
glyphname = B;
lastChange = "2018-02-07 05:57:03 +0000";
layers = (
{
anchors = (
{
name = bottom;
position = "{327, 0}";
},
{
name = top;
position = "{327, 700}";
}
);
background = {
paths = (
{
closed = 1;
nodes = (
"545 395 OFFCURVE",
"574 460 OFFCURVE",
"574 513 CURVE SMOOTH",
"574 610 OFFCURVE",
"496 700 OFFCURVE",
"397 700 CURVE SMOOTH",
"110 700 LINE SMOOTH",
"94 700 OFFCURVE",
"80 688 OFFCURVE",
"80 671 CURVE SMOOTH",
"80 29 LINE SMOOTH",
"80 13 OFFCURVE",
"94 0 OFFCURVE",
"110 0 CURVE SMOOTH",
"456 0 LINE SMOOTH",
"568 0 OFFCURVE",
"633 88 OFFCURVE",
"633 190 CURVE SMOOTH",
"633 274 OFFCURVE",
"582 349 OFFCURVE",
"493 368 CURVE"
);
},
{
closed = 1;
nodes = (
"139 647 LINE",
"187 647 OFFCURVE",
"397 647 OFFCURVE",
"397 647 CURVE",
"464 647 OFFCURVE",
"515 576 OFFCURVE",
"515 513 CURVE SMOOTH",
"515 450 OFFCURVE",
"464 377 OFFCURVE",
"397 377 CURVE SMOOTH",
"397 377 OFFCURVE",
"187 377 OFFCURVE",
"139 377 CURVE"
);
},
{
closed = 1;
nodes = (
"139 53 LINE",
"139 324 LINE",
"456 324 LINE SMOOTH",
"523 324 OFFCURVE",
"574 273 OFFCURVE",
"574 190 CURVE SMOOTH",
"574 105 OFFCURVE",
"523 53 OFFCURVE",
"456 53 CURVE SMOOTH"
);
}
);
};
layerId = "0B1DFD06-3317-40CA-B510-4969A0718C16";
paths = (
{
closed = 1;
nodes = (
"426 0 LINE SMOOTH",
"538 0 OFFCURVE",
"597 88 OFFCURVE",
"597 190 CURVE SMOOTH",
"597 269 OFFCURVE",
"562 333 OFFCURVE",
"473 357 CURVE",
"529 380 OFFCURVE",
"568 446 OFFCURVE",
"568 513 CURVE SMOOTH",
"568 618 OFFCURVE",
"509 700 OFFCURVE",
"397 700 CURVE SMOOTH",
"110 700 LINE SMOOTH",
"94 700 OFFCURVE",
"80 688 OFFCURVE",
"80 671 CURVE SMOOTH",
"80 29 LINE SMOOTH",
"80 13 OFFCURVE",
"94 0 OFFCURVE",
"110 0 CURVE SMOOTH"
);
},
{
closed = 1;
nodes = (
"139 324 LINE",
"415 324 LINE SMOOTH",
"497 324 OFFCURVE",
"542 273 OFFCURVE",
"542 190 CURVE SMOOTH",
"542 105 OFFCURVE",
"497 53 OFFCURVE",
"415 53 CURVE SMOOTH",
"139 53 LINE"
);
},
{
closed = 1;
nodes = (
"139 647 LINE",
"395 647 LINE SMOOTH",
"475 647 OFFCURVE",
"513 593 OFFCURVE",
"513 513 CURVE SMOOTH",
"513 428 OFFCURVE",
"452 377 OFFCURVE",
"395 377 CURVE SMOOTH",
"139 377 LINE"
);
}
);
width = 653;
}
);
note = B;
unicode = 0042;
},
{
color = 4;
glyphname = C;
lastChange = "2018-02-05 09:50:43 +0000";
layers = (
{
anchors = (
{
name = bottom;
position = "{340, 0}";
},
{
name = top;
position = "{340, 700}";
}
);
background = {
paths = (
{
closed = 1;
nodes = (
"466 -9 OFFCURVE",
"596 62 OFFCURVE",
"618 180 CURVE SMOOTH",
"628 231 OFFCURVE",
"593 251 OFFCURVE",
"562 251 CURVE",
"563 240 OFFCURVE",
"563 230 OFFCURVE",
"563 221 CURVE SMOOTH",
"563 125 OFFCURVE",
"468 44 OFFCURVE",
"345 44 CURVE SMOOTH",
"224 44 OFFCURVE",
"129 125 OFFCURVE",
"129 221 CURVE SMOOTH",
"129 481 LINE SMOOTH",
"129 576 OFFCURVE",
"224 656 OFFCURVE",
"345 656 CURVE SMOOTH",
"468 656 OFFCURVE",
"563 576 OFFCURVE",
"563 481 CURVE SMOOTH",
"563 472 OFFCURVE",
"563 461 OFFCURVE",
"562 451 CURVE",
"593 451 OFFCURVE",
"630 470 OFFCURVE",
"618 523 CURVE SMOOTH",
"589 649 OFFCURVE",
"462 709 OFFCURVE",
"345 709 CURVE SMOOTH",
"213 709 OFFCURVE",
"70 621 OFFCURVE",
"70 481 CURVE SMOOTH",
"70 221 LINE SMOOTH",
"70 75 OFFCURVE",
"217 -9 OFFCURVE",
"345 -9 CURVE SMOOTH"
);
}
);
};
layerId = "0B1DFD06-3317-40CA-B510-4969A0718C16";
paths = (
{
closed = 1;
nodes = (
"500 -9 OFFCURVE",
"625 79 OFFCURVE",
"625 191 CURVE SMOOTH",
"625 234 OFFCURVE",
"596 251 OFFCURVE",
"567 251 CURVE",
"568 240 OFFCURVE",
"568 230 OFFCURVE",
"568 221 CURVE SMOOTH",
"568 109 OFFCURVE",
"482 44 OFFCURVE",
"345 44 CURVE SMOOTH",
"224 44 OFFCURVE",
"129 125 OFFCURVE",
"129 221 CURVE SMOOTH",
"129 481 LINE SMOOTH",
"129 576 OFFCURVE",
"224 656 OFFCURVE",
"345 656 CURVE SMOOTH",
"468 656 OFFCURVE",
"563 593 OFFCURVE",
"563 481 CURVE SMOOTH",
"563 472 OFFCURVE",
"563 461 OFFCURVE",
"562 451 CURVE",
"589 451 OFFCURVE",
"620 465 OFFCURVE",
"620 503 CURVE SMOOTH",
"620 622 OFFCURVE",
"493 709 OFFCURVE",
"345 709 CURVE SMOOTH",
"213 709 OFFCURVE",
"70 621 OFFCURVE",
"70 481 CURVE SMOOTH",
"70 221 LINE SMOOTH",
"70 75 OFFCURVE",
"217 -9 OFFCURVE",
"345 -9 CURVE SMOOTH"
);
}
);
width = 680;
}
);
note = C;
unicode = 0043;
},
{
color = 4;
glyphname = D;
lastChange = "2018-02-05 09:35:04 +0000";
layers = (
{
anchors = (
{
name = bottom;
position = "{351, 0}";
},
{
name = center;
position = "{351, 350}";
},
{
name = top;
position = "{351, 700}";
}
);
background = {
paths = (
{
closed = 1;
nodes = (
"356 0 LINE SMOOTH",
"489 0 OFFCURVE",
"632 90 OFFCURVE",
"632 230 CURVE SMOOTH",
"632 472 LINE SMOOTH",
"632 618 OFFCURVE",
"484 700 OFFCURVE",
"356 700 CURVE SMOOTH",
"110 700 LINE SMOOTH",
"92 700 OFFCURVE",
"80 688 OFFCURVE",
"80 671 CURVE SMOOTH",
"80 29 LINE SMOOTH",
"80 13 OFFCURVE",
"92 0 OFFCURVE",
"110 0 CURVE SMOOTH"
);
},
{
closed = 1;
nodes = (
"139 647 LINE",
"184 647 OFFCURVE",
"356 647 OFFCURVE",
"356 647 CURVE",
"475 647 OFFCURVE",
"574 567 OFFCURVE",
"574 472 CURVE SMOOTH",
"574 230 LINE SMOOTH",
"574 134 OFFCURVE",
"475 53 OFFCURVE",
"356 53 CURVE SMOOTH",
"356 53 OFFCURVE",
"184 53 OFFCURVE",
"139 53 CURVE"
);
}
);
};
layerId = "0B1DFD06-3317-40CA-B510-4969A0718C16";
paths = (
{
closed = 1;
nodes = (
"356 0 LINE SMOOTH",
"519 0 OFFCURVE",
"632 100 OFFCURVE",
"632 240 CURVE SMOOTH",
"632 462 LINE SMOOTH",
"632 608 OFFCURVE",
"514 700 OFFCURVE",
"356 700 CURVE SMOOTH",
"110 700 LINE SMOOTH",
"92 700 OFFCURVE",
"80 688 OFFCURVE",
"80 671 CURVE SMOOTH",
"80 29 LINE SMOOTH",
"80 13 OFFCURVE",
"92 0 OFFCURVE",
"110 0 CURVE SMOOTH"
);
},
{
closed = 1;
nodes = (
"139 647 LINE",
"346 647 LINE SMOOTH",
"495 647 OFFCURVE",
"574 567 OFFCURVE",
"574 462 CURVE SMOOTH",
"574 240 LINE SMOOTH",
"574 134 OFFCURVE",
"495 53 OFFCURVE",
"346 53 CURVE SMOOTH",
"139 53 LINE"
);
}
);
width = 702;
}
);
note = D;
unicode = 0044;
},
{
color = 4;
glyphname = E;
lastChange = "2018-02-05 09:35:04 +0000";
layers = (
{
anchors = (
{
name = bottom;
position = "{311, 0}";
},
{
name = ogonek;
position = "{559, 10}";
},
{
name = top;
position = "{311, 700}";
},
{
name = topleft;
position = "{20, 700}";
}
);
background = {
paths = (
{
closed = 1;
nodes = (
"476 -9 OFFCURVE",
"606 62 OFFCURVE",
"628 180 CURVE SMOOTH",
"638 231 OFFCURVE",
"603 251 OFFCURVE",
"572 251 CURVE",
"573 240 OFFCURVE",
"573 230 OFFCURVE",
"573 221 CURVE SMOOTH",
"573 125 OFFCURVE",
"478 44 OFFCURVE",
"355 44 CURVE SMOOTH",
"234 44 OFFCURVE",
"139 125 OFFCURVE",
"139 221 CURVE SMOOTH",
"139 324 LINE",
"377 324 LINE SMOOTH",
"413 324 OFFCURVE",
"431 342 OFFCURVE",
"431 377 CURVE",
"139 377 LINE",
"139 481 LINE SMOOTH",
"139 576 OFFCURVE",
"234 656 OFFCURVE",
"355 656 CURVE SMOOTH",
"478 656 OFFCURVE",
"573 576 OFFCURVE",
"573 481 CURVE SMOOTH",
"573 472 OFFCURVE",
"573 461 OFFCURVE",
"572 451 CURVE",
"603 451 OFFCURVE",
"640 470 OFFCURVE",
"628 523 CURVE SMOOTH",
"599 649 OFFCURVE",
"472 709 OFFCURVE",
"355 709 CURVE SMOOTH",
"223 709 OFFCURVE",
"80 621 OFFCURVE",
"80 481 CURVE SMOOTH",
"80 221 LINE SMOOTH",
"80 75 OFFCURVE",
"227 -9 OFFCURVE",
"355 -9 CURVE SMOOTH"
);
}
);
};
layerId = "0B1DFD06-3317-40CA-B510-4969A0718C16";
paths = (
{
closed = 1;
nodes = (
"80 13 OFFCURVE",
"92 0 OFFCURVE",
"110 0 CURVE SMOOTH",
"571 0 LINE",
"571 35 OFFCURVE",
"553 53 OFFCURVE",
"518 53 CURVE SMOOTH",
"139 53 LINE",
"139 326 LINE",
"377 326 LINE SMOOTH",
"413 326 OFFCURVE",
"431 344 OFFCURVE",
"431 379 CURVE",
"139 379 LINE",
"139 647 LINE",
"497 647 LINE SMOOTH",
"533 647 OFFCURVE",
"551 665 OFFCURVE",
"551 700 CURVE",
"110 700 LINE SMOOTH",
"94 700 OFFCURVE",
"80 688 OFFCURVE",
"80 671 CURVE SMOOTH",
"80 29 LINE SMOOTH"
);
}
);
width = 621;
}
);
note = E;
unicode = 0045;
},
{
color = 4;
glyphname = F;
lastChange = "2018-02-05 09:35:04 +0000";
layers = (
{
anchors = (
{
name = bottom;
position = "{296, 0}";
},
{
name = top;
position = "{296, 700}";
}
);
background = {
paths = (
{
closed = 1;
nodes = (
"118 -9 OFFCURVE",
"139 12 OFFCURVE",
"139 50 CURVE SMOOTH",
"139 324 LINE",
"377 324 LINE SMOOTH",
"413 324 OFFCURVE",
"431 342 OFFCURVE",
"431 377 CURVE",
"139 377 LINE",
"139 481 LINE SMOOTH",
"139 576 OFFCURVE",
"234 656 OFFCURVE",
"355 656 CURVE SMOOTH",
"478 656 OFFCURVE",
"573 576 OFFCURVE",
"573 481 CURVE SMOOTH",
"573 472 OFFCURVE",
"573 461 OFFCURVE",
"572 451 CURVE",
"603 451 OFFCURVE",
"638 470 OFFCURVE",
"628 523 CURVE",
"594 649 OFFCURVE",
"472 709 OFFCURVE",
"355 709 CURVE SMOOTH",
"223 709 OFFCURVE",
"80 621 OFFCURVE",
"80 481 CURVE SMOOTH",
"80 -9 LINE"
);
}
);
};
layerId = "0B1DFD06-3317-40CA-B510-4969A0718C16";
paths = (
{
closed = 1;
nodes = (
"119 -9 OFFCURVE",
"139 12 OFFCURVE",
"139 50 CURVE SMOOTH",
"139 331 LINE",
"377 331 LINE SMOOTH",
"413 331 OFFCURVE",
"431 349 OFFCURVE",
"431 384 CURVE",
"139 384 LINE",
"139 647 LINE",
"497 647 LINE SMOOTH",
"533 647 OFFCURVE",
"551 665 OFFCURVE",
"551 700 CURVE",
"110 700 LINE SMOOTH",
"94 700 OFFCURVE",
"80 688 OFFCURVE",
"80 671 CURVE SMOOTH",
"80 -9 LINE"
);
}
);
width = 591;
}
);
note = F;
unicode = 0046;
},
{
color = 4;
glyphname = G;
lastChange = "2018-02-05 09:35:04 +0000";
layers = (
{
anchors = (
{
name = bottom;
position = "{338, 0}";
},
{
name = top;
position = "{338, 700}";
}
);
background = {
paths = (
{
closed = 1;
nodes = (
"474 -9 OFFCURVE",
"621 75 OFFCURVE",
"621 221 CURVE",
"621 221 OFFCURVE",
"621 332 OFFCURVE",
"621 348 CURVE SMOOTH",
"621 364 OFFCURVE",
"608 377 OFFCURVE",
"591 377 CURVE SMOOTH",
"400 377 LINE SMOOTH",
"364 377 OFFCURVE",
"347 360 OFFCURVE",
"347 324 CURVE",
"562 324 LINE",
"562 221 LINE SMOOTH",
"562 125 OFFCURVE",
"466 44 OFFCURVE",
"345 44 CURVE SMOOTH",
"224 44 OFFCURVE",
"129 125 OFFCURVE",
"129 221 CURVE SMOOTH",
"129 481 LINE SMOOTH",
"129 576 OFFCURVE",
"224 656 OFFCURVE",
"345 656 CURVE SMOOTH",
"468 656 OFFCURVE",
"563 576 OFFCURVE",
"563 481 CURVE SMOOTH",
"563 472 OFFCURVE",
"563 461 OFFCURVE",
"562 451 CURVE",
"593 451 OFFCURVE",
"630 470 OFFCURVE",
"618 523 CURVE SMOOTH",
"589 649 OFFCURVE",
"462 709 OFFCURVE",
"345 709 CURVE SMOOTH",
"213 709 OFFCURVE",
"70 621 OFFCURVE",
"70 481 CURVE SMOOTH",
"70 221 LINE SMOOTH",
"70 75 OFFCURVE",
"217 -9 OFFCURVE",
"345 -9 CURVE SMOOTH"
);
}
);
};
layerId = "0B1DFD06-3317-40CA-B510-4969A0718C16";
paths = (
{
closed = 1;
nodes = (
"351 316 OFFCURVE",
"368 299 OFFCURVE",
"404 299 CURVE SMOOTH",
"566 299 LINE",
"566 221 LINE SMOOTH",
"566 120 OFFCURVE",
"468 44 OFFCURVE",
"347 44 CURVE SMOOTH",
"226 44 OFFCURVE",
"129 120 OFFCURVE",
"129 221 CURVE SMOOTH",
"129 481 LINE",
"129 576 OFFCURVE",
"224 656 OFFCURVE",
"345 656 CURVE SMOOTH",
"468 656 OFFCURVE",
"563 593 OFFCURVE",
"563 481 CURVE",
"563 472 OFFCURVE",
"563 461 OFFCURVE",
"562 451 CURVE SMOOTH",
"559 424 OFFCURVE",
"620 465 OFFCURVE",
"620 503 CURVE",
"620 622 OFFCURVE",
"493 709 OFFCURVE",
"345 709 CURVE SMOOTH",
"213 709 OFFCURVE",
"70 621 OFFCURVE",
"70 481 CURVE",
"70 221 LINE SMOOTH",
"70 75 OFFCURVE",
"219 -9 OFFCURVE",
"347 -9 CURVE SMOOTH",
"476 -9 OFFCURVE",
"625 75 OFFCURVE",
"625 221 CURVE SMOOTH",
"625 221 OFFCURVE",
"625 307 OFFCURVE",
"625 323 CURVE SMOOTH",
"625 339 OFFCURVE",
"612 352 OFFCURVE",
"595 352 CURVE SMOOTH",
"351 352 LINE"
);
}
);
width = 675;
}
);
note = G;
unicode = 0047;
},
{
color = 4;
glyphname = H;
lastChange = "2018-02-05 09:35:04 +0000";
layers = (
{
anchors = (
{
name = bottom;
position = "{341, 0}";
},
{
name = center;
position = "{341, 350}";
},
{
name = top;
position = "{341, 700}";
},
{
name = topleft;
position = "{20, 700}";
}
);
background = {
paths = (
{
closed = 1;
nodes = (
"119 -9 OFFCURVE",
"139 12 OFFCURVE",
"139 50 CURVE SMOOTH",
"139 324 LINE",
"573 324 LINE",
"573 -9 LINE",
"611 -9 OFFCURVE",
"632 12 OFFCURVE",
"632 50 CURVE SMOOTH",
"632 709 LINE",
"593 709 OFFCURVE",
"573 688 OFFCURVE",
"573 650 CURVE SMOOTH",
"573 377 LINE",
"139 377 LINE",
"139 709 LINE",
"101 709 OFFCURVE",
"80 688 OFFCURVE",
"80 650 CURVE SMOOTH",
"80 -9 LINE"
);
}
);
};
layerId = "0B1DFD06-3317-40CA-B510-4969A0718C16";
paths = (
{
closed = 1;
nodes = (
"119 -9 OFFCURVE",
"139 12 OFFCURVE",
"139 50 CURVE SMOOTH",
"139 326 LINE",
"543 326 LINE",
"543 -9 LINE",
"581 -9 OFFCURVE",
"602 12 OFFCURVE",
"602 50 CURVE SMOOTH",
"602 709 LINE",
"563 709 OFFCURVE",
"543 688 OFFCURVE",
"543 650 CURVE SMOOTH",
"543 379 LINE",
"139 379 LINE",
"139 709 LINE",
"101 709 OFFCURVE",
"80 688 OFFCURVE",
"80 650 CURVE SMOOTH",
"80 -9 LINE"
);
}
);
width = 682;
}
);
note = H;
unicode = 0048;
},
{
color = 4;
glyphname = I;
lastChange = "2018-02-05 09:35:04 +0000";
layers = (
{
anchors = (
{
name = bottom;
position = "{110, 0}";
},
{
name = ogonek;
position = "{197, 10}";
},
{
name = top;
position = "{110, 700}";
},
{
name = topleft;
position = "{20, 700}";
}
);
background = {
paths = (
{
closed = 1;
nodes = (
"119 -9 OFFCURVE",
"139 12 OFFCURVE",
"139 50 CURVE SMOOTH",
"139 709 LINE",
"101 709 OFFCURVE",
"80 688 OFFCURVE",
"80 650 CURVE SMOOTH",
"80 -9 LINE"
);
}
);
};
layerId = "0B1DFD06-3317-40CA-B510-4969A0718C16";
paths = (
{
closed = 1;
nodes = (
"119 -9 OFFCURVE",
"139 12 OFFCURVE",
"139 50 CURVE SMOOTH",
"139 709 LINE",
"101 709 OFFCURVE",
"80 688 OFFCURVE",
"80 650 CURVE SMOOTH",
"80 -9 LINE"
);
}
);
width = 219;
}
);
note = I;
unicode = 0049;
},
{
color = 4;
glyphname = J;
lastChange = "2018-02-05 09:35:04 +0000";
layers = (
{
anchors = (
{
name = bottom;
position = "{299, 0}";
},
{
name = top;
position = "{299, 700}";
}
);
background = {
paths = (
{
closed = 1;
nodes = (
"417 -9 OFFCURVE",
"528 94 OFFCURVE",
"528 221 CURVE SMOOTH",
"528 671 LINE SMOOTH",
"528 688 OFFCURVE",
"516 700 OFFCURVE",
"500 700 CURVE SMOOTH",
"277 700 LINE",
"277 665 OFFCURVE",
"295 647 OFFCURVE",
"330 647 CURVE SMOOTH",
"469 647 LINE",
"469 597 OFFCURVE",
"469 221 OFFCURVE",
"469 221 CURVE",
"469 125 OFFCURVE",
"385 44 OFFCURVE",
"282 44 CURVE SMOOTH",
"177 44 OFFCURVE",
"93 125 OFFCURVE",
"93 221 CURVE SMOOTH",
"93 230 OFFCURVE",
"94 240 OFFCURVE",
"96 251 CURVE",
"63 251 OFFCURVE",
"28 231 OFFCURVE",
"38 180 CURVE SMOOTH",
"60 72 OFFCURVE",
"159 -9 OFFCURVE",
"282 -9 CURVE SMOOTH"
);
}
);
};
layerId = "0B1DFD06-3317-40CA-B510-4969A0718C16";
paths = (
{
closed = 1;
nodes = (
"430 -9 OFFCURVE",
"528 89 OFFCURVE",
"528 221 CURVE SMOOTH",
"528 671 LINE SMOOTH",
"528 688 OFFCURVE",
"516 700 OFFCURVE",
"500 700 CURVE SMOOTH",
"277 700 LINE",
"277 665 OFFCURVE",
"295 647 OFFCURVE",
"330 647 CURVE SMOOTH",
"469 647 LINE",
"469 221 LINE SMOOTH",
"469 115 OFFCURVE",
"405 46 OFFCURVE",
"287 46 CURVE SMOOTH",
"172 46 OFFCURVE",
"107 117 OFFCURVE",
"107 221 CURVE SMOOTH",
"107 230 OFFCURVE",
"108 240 OFFCURVE",
"110 251 CURVE",
"82 251 OFFCURVE",
"50 237 OFFCURVE",
"50 202 CURVE SMOOTH",
"50 86 OFFCURVE",
"148 -9 OFFCURVE",
"287 -9 CURVE SMOOTH"
);
}
);
width = 598;
}
);
note = J;
unicode = 004A;
},
{
color = 4;
glyphname = K;
lastChange = "2018-02-05 09:35:04 +0000";
layers = (
{
anchors = (
{
name = bottom;
position = "{314, 0}";
},
{
name = top;
position = "{314, 700}";
}
);
background = {
paths = (
{
closed = 1;
nodes = (
"119 -9 OFFCURVE",
"139 12 OFFCURVE",
"139 50 CURVE SMOOTH",
"139 183 LINE SMOOTH",
"139 279 OFFCURVE",
"223 360 OFFCURVE",
"327 360 CURVE SMOOTH",
"430 360 OFFCURVE",
"514 279 OFFCURVE",
"514 183 CURVE SMOOTH",
"514 -9 LINE",
"552 -9 OFFCURVE",
"573 12 OFFCURVE",
"573 50 CURVE SMOOTH",
"573 183 LINE SMOOTH",
"573 310 OFFCURVE",
"462 413 OFFCURVE",
"327 413 CURVE SMOOTH",
"306 413 OFFCURVE",
"279 407 OFFCURVE",
"260 397 CURVE",
"256 398 LINE",
"268 405 OFFCURVE",
"282 413 OFFCURVE",
"306 420 CURVE",
"530 634 LINE SMOOTH",
"555 659 OFFCURVE",
"557 684 OFFCURVE",
"531 709 CURVE",
"139 335 LINE",
"139 709 LINE",
"101 709 OFFCURVE",
"80 688 OFFCURVE",
"80 650 CURVE SMOOTH",
"80 -9 LINE"
);
}
);
};
layerId = "0B1DFD06-3317-40CA-B510-4969A0718C16";
paths = (
{
closed = 1;
nodes = (
"119 -9 OFFCURVE",
"139 12 OFFCURVE",
"139 50 CURVE SMOOTH",
"139 190 LINE SMOOTH",
"139 293 OFFCURVE",
"215 360 OFFCURVE",
"329 360 CURVE SMOOTH",
"449 360 OFFCURVE",
"498 289 OFFCURVE",
"498 183 CURVE SMOOTH",
"498 -9 LINE",
"536 -9 OFFCURVE",
"557 12 OFFCURVE",
"557 50 CURVE SMOOTH",
"557 183 LINE SMOOTH",
"557 318 OFFCURVE",
"472 413 OFFCURVE",
"335 413 CURVE SMOOTH",
"304 413 OFFCURVE",
"273 399 OFFCURVE",
"254 389 CURVE",
"251 395 LINE",
"264 402 OFFCURVE",
"285 412 OFFCURVE",
"306 420 CURVE",
"530 634 LINE SMOOTH",
"543 647 OFFCURVE",
"550 660 OFFCURVE",
"550 673 CURVE SMOOTH",
"549 685 OFFCURVE",
"543 697 OFFCURVE",
"531 709 CURVE",
"139 335 LINE",
"139 709 LINE",
"101 709 OFFCURVE",
"80 688 OFFCURVE",
"80 650 CURVE SMOOTH",
"80 -9 LINE"
);
}
);
width = 627;
}
);
note = K;
unicode = 004B;
},
{
color = 4;
glyphname = L;
lastChange = "2018-02-05 09:35:04 +0000";
layers = (
{
anchors = (
{
name = bottom;
position = "{306, 0}";
},
{
name = center;
position = "{306, 350}";
},
{
name = top;
position = "{306, 700}";
},
{
name = topright;
position = "{591, 700}";
}
);
background = {
paths = (
{
closed = 1;
nodes = (
"573 0 LINE",
"573 35 OFFCURVE",
"555 53 OFFCURVE",
"520 53 CURVE SMOOTH",
"139 53 LINE",
"139 709 LINE",
"101 709 OFFCURVE",
"80 688 OFFCURVE",
"80 650 CURVE SMOOTH",
"80 29 LINE SMOOTH",
"80 13 OFFCURVE",
"92 0 OFFCURVE",
"110 0 CURVE SMOOTH"
);
}
);
};
layerId = "0B1DFD06-3317-40CA-B510-4969A0718C16";
paths = (
{
closed = 1;
nodes = (
"571 0 LINE",
"571 35 OFFCURVE",
"553 53 OFFCURVE",
"518 53 CURVE SMOOTH",
"139 53 LINE",
"139 709 LINE",
"101 709 OFFCURVE",
"80 688 OFFCURVE",
"80 650 CURVE SMOOTH",
"80 29 LINE SMOOTH",
"80 13 OFFCURVE",
"92 0 OFFCURVE",
"110 0 CURVE SMOOTH"
);
}
);
width = 611;
}
);
note = L;
unicode = 004C;
},
{
color = 4;
glyphname = M;
lastChange = "2018-02-05 09:35:04 +0000";
layers = (
{
anchors = (
{
name = bottom;
position = "{411, 0}";
},
{
name = top;
position = "{411, 700}";
}
);
background = {
paths = (
{
closed = 1;
nodes = (
"119 -9 OFFCURVE",
"139 12 OFFCURVE",
"139 50 CURVE SMOOTH",
"139 556 LINE",
"123 606 LINE",
"125 610 LINE",
"384 10 LINE SMOOTH",
"389 0 OFFCURVE",
"399 -9 OFFCURVE",
"411 -9 CURVE SMOOTH",
"422 -9 OFFCURVE",
"433 0 OFFCURVE",
"437 10 CURVE SMOOTH",
"697 610 LINE",
"698 606 LINE",
"682 556 LINE",
"682 -9 LINE",
"720 -9 OFFCURVE",
"741 12 OFFCURVE",
"741 50 CURVE SMOOTH",
"741 650 LINE SMOOTH",
"741 688 OFFCURVE",
"720 709 OFFCURVE",
"682 709 CURVE",
"400 60 LINE",
"399 65 LINE",
"408 91 LINE",
"139 709 LINE",
"101 709 OFFCURVE",
"80 688 OFFCURVE",
"80 650 CURVE SMOOTH",
"80 -9 LINE"
);
}
);
};
layerId = "0B1DFD06-3317-40CA-B510-4969A0718C16";
paths = (
{
closed = 1;
nodes = (
"701 608 LINE",
"682 561 LINE",
"682 50 LINE SMOOTH",
"682 12 OFFCURVE",
"702 -9 OFFCURVE",
"741 -9 CURVE",
"741 650 LINE SMOOTH",
"741 688 OFFCURVE",
"720 709 OFFCURVE",
"682 709 CURVE",
"398 45 LINE",
"394 47 LINE",
"408 80 LINE",
"139 709 LINE",
"101 709 OFFCURVE",
"80 688 OFFCURVE",
"80 650 CURVE SMOOTH",
"80 -9 LINE",
"119 -9 OFFCURVE",
"139 12 OFFCURVE",
"139 50 CURVE SMOOTH",
"139 561 LINE",
"120 608 LINE",
"125 610 LINE",
"384 10 LINE SMOOTH",
"389 0 OFFCURVE",
"399 -9 OFFCURVE",
"411 -9 CURVE SMOOTH",
"422 -9 OFFCURVE",
"433 0 OFFCURVE",
"437 10 CURVE SMOOTH",
"696 610 LINE"
);
}
);
width = 821;
}
);
note = M;
unicode = 004D;
},
{
color = 4;
glyphname = N;
lastChange = "2018-02-05 09:35:04 +0000";
layers = (
{
anchors = (
{
name = bottom;
position = "{349, 0}";
},
{
name = top;
position = "{349, 700}";
}
);
background = {
paths = (
{
closed = 1;
nodes = (
"119 -9 OFFCURVE",
"139 12 OFFCURVE",
"139 50 CURVE SMOOTH",
"139 600 LINE",
"123 631 LINE",
"125 635 LINE",
"125 635 OFFCURVE",
"571 -10 OFFCURVE",
"573 -9 CURVE",
"611 -9 OFFCURVE",
"632 12 OFFCURVE",
"632 50 CURVE SMOOTH",
"632 650 LINE SMOOTH",
"632 688 OFFCURVE",
"611 709 OFFCURVE",
"573 709 CURVE",
"573 100 LINE",
"589 69 LINE",
"587 65 LINE",
"587 65 OFFCURVE",
"139 708 OFFCURVE",
"139 709 CURVE",
"101 709 OFFCURVE",
"80 688 OFFCURVE",
"80 650 CURVE SMOOTH",
"80 -9 LINE"
);
}
);
};
layerId = "0B1DFD06-3317-40CA-B510-4969A0718C16";
paths = (
{
closed = 1;
nodes = (
"119 -9 OFFCURVE",
"139 12 OFFCURVE",
"139 50 CURVE SMOOTH",
"139 602 LINE",
"120 632 LINE",
"125 635 LINE",
"125 635 OFFCURVE",
"556 -10 OFFCURVE",
"558 -9 CURVE",
"596 -9 OFFCURVE",
"617 12 OFFCURVE",
"617 50 CURVE SMOOTH",
"617 650 LINE SMOOTH",
"617 688 OFFCURVE",
"596 709 OFFCURVE",
"558 709 CURVE",
"558 98 LINE",
"576 68 LINE",
"572 65 LINE",
"572 65 OFFCURVE",
"139 708 OFFCURVE",
"139 709 CURVE",
"101 709 OFFCURVE",
"80 688 OFFCURVE",
"80 650 CURVE SMOOTH",
"80 -9 LINE"
);
}
);
width = 697;
}
);
note = N;
unicode = 004E;
},
{
color = 4;
glyphname = O;
lastChange = "2018-02-07 07:35:23 +0000";
layers = (
{
anchors = (
{
name = bottom;
position = "{410, 0}";
},
{
name = center;
position = "{410, 350}";
},
{
name = ogonek;
position = "{738, 10}";
},
{
name = top;
position = "{410, 700}";
},
{
name = topleft;
position = "{20, 700}";
},
{
name = topright;
position = "{682, 567}";
}
);
background = {
paths = (
{
closed = 1;
nodes = (
"608 -9 OFFCURVE",
"769 150 OFFCURVE",
"769 349 CURVE SMOOTH",
"769 548 OFFCURVE",
"608 709 OFFCURVE",
"409 709 CURVE SMOOTH",
"210 709 OFFCURVE",
"51 548 OFFCURVE",
"51 349 CURVE SMOOTH",
"51 150 OFFCURVE",
"210 -9 OFFCURVE",
"409 -9 CURVE SMOOTH"
);
},
{
closed = 1;
nodes = (
"243 44 OFFCURVE",
"110 180 OFFCURVE",
"110 349 CURVE SMOOTH",
"110 519 OFFCURVE",
"243 656 OFFCURVE",
"409 656 CURVE SMOOTH",
"576 656 OFFCURVE",
"710 519 OFFCURVE",
"710 349 CURVE SMOOTH",
"710 180 OFFCURVE",
"576 44 OFFCURVE",
"409 44 CURVE SMOOTH"
);
}
);
};
layerId = "0B1DFD06-3317-40CA-B510-4969A0718C16";
paths = (
{
closed = 1;
nodes = (
"608 -9 OFFCURVE",
"770 150 OFFCURVE",
"770 349 CURVE SMOOTH",
"770 548 OFFCURVE",
"608 709 OFFCURVE",
"409 709 CURVE SMOOTH",
"210 709 OFFCURVE",
"50 548 OFFCURVE",
"50 349 CURVE SMOOTH",
"50 150 OFFCURVE",
"210 -9 OFFCURVE",
"409 -9 CURVE SMOOTH"
);
},
{
closed = 1;
nodes = (
"243 46 OFFCURVE",
"111 170 OFFCURVE",
"111 349 CURVE SMOOTH",
"111 529 OFFCURVE",
"243 654 OFFCURVE",
"409 654 CURVE SMOOTH",
"576 654 OFFCURVE",
"709 529 OFFCURVE",
"709 349 CURVE SMOOTH",
"709 170 OFFCURVE",
"576 46 OFFCURVE",
"409 46 CURVE SMOOTH"
);
}
);
width = 820;
}
);
note = O;
unicode = 004F;
},
{
color = 4;
glyphname = P;
lastChange = "2018-02-05 09:35:04 +0000";
layers = (
{
anchors = (
{
name = bottom;
position = "{336, 0}";
},
{
name = top;
position = "{336, 700}";
}
);
background = {
paths = (
{
closed = 1;
nodes = (
"119 -9 OFFCURVE",
"139 12 OFFCURVE",
"139 50 CURVE SMOOTH",
"139 324 LINE",
"188 324 OFFCURVE",
"455 324 OFFCURVE",
"455 324 CURVE",
"554 324 OFFCURVE",
"632 416 OFFCURVE",
"632 513 CURVE SMOOTH",
"632 610 OFFCURVE",
"554 700 OFFCURVE",
"455 700 CURVE SMOOTH",
"110 700 LINE SMOOTH",
"92 700 OFFCURVE",
"80 688 OFFCURVE",
"80 671 CURVE SMOOTH",
"80 -9 LINE"
);
},
{
closed = 1;
nodes = (
"139 647 LINE",
"188 647 OFFCURVE",
"455 647 OFFCURVE",
"455 647 CURVE",
"521 647 OFFCURVE",
"573 576 OFFCURVE",
"573 513 CURVE SMOOTH",
"573 450 OFFCURVE",
"521 377 OFFCURVE",
"455 377 CURVE SMOOTH",
"455 377 OFFCURVE",
"188 377 OFFCURVE",
"139 377 CURVE"
);
}
);
};
layerId = "0B1DFD06-3317-40CA-B510-4969A0718C16";
paths = (
{
closed = 1;
nodes = (
"119 -9 OFFCURVE",
"139 12 OFFCURVE",
"139 50 CURVE SMOOTH",
"139 284 LINE",
"415 284 LINE SMOOTH",
"534 284 OFFCURVE",
"622 361 OFFCURVE",
"622 493 CURVE SMOOTH",
"622 620 OFFCURVE",
"534 700 OFFCURVE",
"415 700 CURVE SMOOTH",
"110 700 LINE SMOOTH",
"92 700 OFFCURVE",
"80 688 OFFCURVE",
"80 671 CURVE SMOOTH",
"80 -9 LINE"
);
},
{
closed = 1;
nodes = (
"139 647 LINE",
"415 647 LINE SMOOTH",
"501 647 OFFCURVE",
"563 586 OFFCURVE",
"563 493 CURVE SMOOTH",
"563 395 OFFCURVE",
"501 337 OFFCURVE",
"415 337 CURVE SMOOTH",
"139 337 LINE"
);
}
);
width = 672;
}
);
note = P;
unicode = 0050;
},
{
color = 4;
glyphname = Q;
lastChange = "2018-02-05 09:35:04 +0000";
layers = (
{
anchors = (
{
name = bottom;
position = "{409, 0}";
},
{
name = top;
position = "{409, 700}";
}
);
background = {
paths = (
{
closed = 1;
nodes = (
"483 -9 OFFCURVE",
"553 13 OFFCURVE",
"610 52 CURVE",
"640 28 OFFCURVE",
"669 6 OFFCURVE",
"703 -4 CURVE SMOOTH",
"744 -18 OFFCURVE",
"768 -3 OFFCURVE",
"768 37 CURVE",
"727 37 OFFCURVE",
"690 59 OFFCURVE",
"654 87 CURVE",
"724 152 OFFCURVE",
"768 245 OFFCURVE",
"768 349 CURVE SMOOTH",
"768 548 OFFCURVE",
"607 709 OFFCURVE",
"408 709 CURVE SMOOTH",
"209 709 OFFCURVE",
"50 548 OFFCURVE",
"50 349 CURVE SMOOTH",
"50 150 OFFCURVE",
"209 -9 OFFCURVE",
"408 -9 CURVE SMOOTH"
);
},
{
closed = 1;
nodes = (
"289 44 OFFCURVE",
"186 113 OFFCURVE",
"138 215 CURVE",
"175 233 OFFCURVE",
"214 239 OFFCURVE",
"250 239 CURVE SMOOTH",
"320 239 OFFCURVE",
"392 217 OFFCURVE",
"452 180 CURVE SMOOTH",
"486 158 OFFCURVE",
"525 127 OFFCURVE",
"557 99 CURVE SMOOTH",
"567 90 LINE",
"520 60 OFFCURVE",
"466 44 OFFCURVE",
"408 44 CURVE SMOOTH"
);
},
{
closed = 1;
nodes = (
"604 128 OFFCURVE",
"598 134 OFFCURVE",
"592 140 CURVE",
"560 167 OFFCURVE",
"526 196 OFFCURVE",
"482 224 CURVE SMOOTH",
"411 268 OFFCURVE",
"331 292 OFFCURVE",
"250 292 CURVE SMOOTH",
"206 292 OFFCURVE",
"161 284 OFFCURVE",
"119 270 CURVE",
"112 295 OFFCURVE",
"109 321 OFFCURVE",
"109 349 CURVE SMOOTH",
"109 519 OFFCURVE",
"242 656 OFFCURVE",
"408 656 CURVE SMOOTH",
"575 656 OFFCURVE",
"709 519 OFFCURVE",
"709 349 CURVE SMOOTH",
"709 259 OFFCURVE",
"671 178 OFFCURVE",
"612 124 CURVE"
);
}
);
};
layerId = "0B1DFD06-3317-40CA-B510-4969A0718C16";
paths = (
{
closed = 1;
nodes = (
"483 -9 OFFCURVE",
"553 13 OFFCURVE",
"610 52 CURVE",
"642 27 OFFCURVE",
"690 -9 OFFCURVE",
"730 -9 CURVE SMOOTH",
"754 -9 OFFCURVE",
"768 8 OFFCURVE",
"768 38 CURVE",
"727 38 OFFCURVE",
"690 60 OFFCURVE",
"654 88 CURVE",
"724 153 OFFCURVE",
"768 245 OFFCURVE",
"768 349 CURVE SMOOTH",
"768 548 OFFCURVE",
"607 709 OFFCURVE",
"408 709 CURVE SMOOTH",
"209 709 OFFCURVE",
"50 548 OFFCURVE",
"50 349 CURVE SMOOTH",
"50 150 OFFCURVE",
"209 -9 OFFCURVE",
"408 -9 CURVE SMOOTH"
);
},
{
closed = 1;
nodes = (
"289 46 OFFCURVE",
"186 114 OFFCURVE",
"138 216 CURVE",
"175 234 OFFCURVE",
"216 239 OFFCURVE",
"252 239 CURVE SMOOTH",
"377 239 OFFCURVE",
"464 192 OFFCURVE",
"567 90 CURVE",
"520 60 OFFCURVE",
"466 46 OFFCURVE",
"408 46 CURVE SMOOTH"
);
},
{
closed = 1;
nodes = (
"528 209 OFFCURVE",
"428 293 OFFCURVE",
"252 293 CURVE SMOOTH",
"208 293 OFFCURVE",
"163 284 OFFCURVE",
"121 270 CURVE",
"114 295 OFFCURVE",
"111 321 OFFCURVE",
"111 349 CURVE SMOOTH",
"111 519 OFFCURVE",
"242 654 OFFCURVE",
"408 654 CURVE SMOOTH",
"575 654 OFFCURVE",
"707 519 OFFCURVE",
"707 349 CURVE SMOOTH",
"707 259 OFFCURVE",
"671 179 OFFCURVE",
"612 125 CURVE"
);
}
);
width = 818;
}
);
note = Q;
unicode = 0051;
},
{
color = 4;
glyphname = R;
lastChange = "2018-02-05 09:35:04 +0000";
layers = (
{
anchors = (
{
name = bottom;
position = "{332, 0}";
},
{
name = top;
position = "{332, 700}";
}
);
background = {
paths = (
{
closed = 1;
nodes = (
"119 -9 OFFCURVE",
"139 12 OFFCURVE",
"139 50 CURVE SMOOTH",
"139 324 LINE",
"455 324 LINE SMOOTH",
"521 324 OFFCURVE",
"574 273 OFFCURVE",
"574 190 CURVE SMOOTH",
"574 -9 LINE",
"613 -9 OFFCURVE",
"633 12 OFFCURVE",
"633 50 CURVE SMOOTH",
"633 190 LINE SMOOTH",
"633 256 OFFCURVE",
"596 321 OFFCURVE",
"537 348 CURVE",
"589 377 OFFCURVE",
"632 448 OFFCURVE",
"632 513 CURVE SMOOTH",
"632 610 OFFCURVE",
"554 700 OFFCURVE",
"455 700 CURVE SMOOTH",
"110 700 LINE SMOOTH",
"92 700 OFFCURVE",
"80 688 OFFCURVE",
"80 671 CURVE SMOOTH",
"80 -9 LINE"
);
},
{
closed = 1;
nodes = (
"139 647 LINE",
"455 647 LINE SMOOTH",
"521 647 OFFCURVE",
"573 576 OFFCURVE",
"573 513 CURVE SMOOTH",
"573 450 OFFCURVE",
"521 377 OFFCURVE",
"455 377 CURVE SMOOTH",
"139 377 LINE"
);
}
);
};
layerId = "0B1DFD06-3317-40CA-B510-4969A0718C16";
paths = (
{
closed = 1;
nodes = (
"119 -9 OFFCURVE",
"139 12 OFFCURVE",
"139 50 CURVE SMOOTH",
"139 304 LINE",
"401 304 LINE SMOOTH",
"479 304 OFFCURVE",
"524 258 OFFCURVE",
"524 170 CURVE SMOOTH",
"524 -9 LINE",
"563 -9 OFFCURVE",
"583 12 OFFCURVE",
"583 50 CURVE SMOOTH",
"583 176 LINE SMOOTH",
"583 244 OFFCURVE",
"555 305 OFFCURVE",
"485 331 CURVE",
"556 364 OFFCURVE",
"594 422 OFFCURVE",
"594 503 CURVE SMOOTH",
"594 605 OFFCURVE",
"526 700 OFFCURVE",
"395 700 CURVE SMOOTH",
"110 700 LINE SMOOTH",
"92 700 OFFCURVE",
"80 688 OFFCURVE",
"80 671 CURVE SMOOTH",
"80 -9 LINE"
);
},
{
closed = 1;
nodes = (
"139 647 LINE",
"395 647 LINE SMOOTH",
"486 647 OFFCURVE",
"533 587 OFFCURVE",
"533 503 CURVE SMOOTH",
"533 412 OFFCURVE",
"474 357 OFFCURVE",
"395 357 CURVE SMOOTH",
"139 357 LINE"
);
}
);
width = 664;
}
);
note = R;
unicode = 0052;
},
{
color = 4;
glyphname = S;
lastChange = "2018-02-05 09:34:46 +0000";
layers = (
{
anchors = (
{
name = bottom;
position = "{317, 0}";
},
{
name = top;
position = "{317, 700}";
}
);
background = {
paths = (
{
closed = 1;
nodes = (
"463 -9 OFFCURVE",
"596 100 OFFCURVE",
"587 223 CURVE SMOOTH",
"578 339 OFFCURVE",
"469 358 OFFCURVE",
"317 388 CURVE SMOOTH",
"189 413 OFFCURVE",
"131 435 OFFCURVE",
"125 506 CURVE SMOOTH",
"118 581 OFFCURVE",
"195 656 OFFCURVE",
"311 656 CURVE SMOOTH",
"428 656 OFFCURVE",
"495 575 OFFCURVE",
"495 481 CURVE SMOOTH",
"495 472 OFFCURVE",
"495 461 OFFCURVE",
"494 451 CURVE",
"523 451 OFFCURVE",
"559 472 OFFCURVE",
"551 520 CURVE SMOOTH",
"535 628 OFFCURVE",
"450 709 OFFCURVE",
"311 709 CURVE SMOOTH",
"155 709 OFFCURVE",
"56 607 OFFCURVE",
"66 500 CURVE SMOOTH",
"77 394 OFFCURVE",
"155 364 OFFCURVE",
"305 335 CURVE SMOOTH",
"428 311 OFFCURVE",
"522 287 OFFCURVE",
"528 218 CURVE SMOOTH",
"534 130 OFFCURVE",
"431 44 OFFCURVE",
"311 44 CURVE SMOOTH",
"190 44 OFFCURVE",
"93 127 OFFCURVE",
"93 221 CURVE SMOOTH",
"93 231 OFFCURVE",
"93 240 OFFCURVE",
"94 251 CURVE",
"63 251 OFFCURVE",
"28 231 OFFCURVE",
"38 180 CURVE SMOOTH",
"62 72 OFFCURVE",
"176 -9 OFFCURVE",
"311 -9 CURVE SMOOTH"
);
}
);
};
layerId = "0B1DFD06-3317-40CA-B510-4969A0718C16";
paths = (
{
closed = 1;
nodes = (
"501 -9 OFFCURVE",
"583 67 OFFCURVE",
"583 183 CURVE SMOOTH",
"583 308 OFFCURVE",
"490 350 OFFCURVE",
"317 386 CURVE SMOOTH",
"181 414 OFFCURVE",
"126 444 OFFCURVE",
"126 531 CURVE SMOOTH",
"126 606 OFFCURVE",
"188 655 OFFCURVE",
"309 655 CURVE SMOOTH",
"426 655 OFFCURVE",
"492 594 OFFCURVE",
"492 501 CURVE SMOOTH",
"492 492 OFFCURVE",
"492 481 OFFCURVE",
"491 471 CURVE",
"516 471 OFFCURVE",
"547 487 OFFCURVE",
"549 523 CURVE SMOOTH",
"556 636 OFFCURVE",
"444 709 OFFCURVE",
"309 709 CURVE SMOOTH",
"153 709 OFFCURVE",
"66 632 OFFCURVE",
"66 525 CURVE SMOOTH",
"66 413 OFFCURVE",
"147 363 OFFCURVE",
"305 331 CURVE SMOOTH",
"439 304 OFFCURVE",
"523 279 OFFCURVE",
"523 183 CURVE SMOOTH",
"523 90 OFFCURVE",
"463 45 OFFCURVE",
"326 45 CURVE SMOOTH",
"182 45 OFFCURVE",
"106 127 OFFCURVE",
"106 221 CURVE SMOOTH",
"106 231 OFFCURVE",
"106 240 OFFCURVE",
"107 251 CURVE",
"81 251 OFFCURVE",
"50 237 OFFCURVE",
"50 204 CURVE SMOOTH",
"50 79 OFFCURVE",
"168 -9 OFFCURVE",
"326 -9 CURVE SMOOTH"
);
}
);
width = 633;
}
);
note = S;
unicode = 0053;
},
{
color = 4;
glyphname = T;
lastChange = "2018-02-05 09:35:04 +0000";
layers = (
{
anchors = (
{
name = bottom;
position = "{315, 0}";
},
{
name = center;
position = "{315, 350}";
},
{
name = top;
position = "{315, 700}";
}
);
background = {
paths = (
{
closed = 1;
nodes = (
"324 -9 OFFCURVE",
"345 12 OFFCURVE",
"345 50 CURVE SMOOTH",
"345 647 LINE",
"537 647 LINE SMOOTH",
"572 647 OFFCURVE",
"590 665 OFFCURVE",
"590 700 CURVE",
"93 700 LINE SMOOTH",
"58 700 OFFCURVE",
"40 682 OFFCURVE",
"40 647 CURVE",
"286 647 LINE",
"286 -9 LINE"
);
}
);
};
layerId = "0B1DFD06-3317-40CA-B510-4969A0718C16";
paths = (
{
closed = 1;
nodes = (
"324 -9 OFFCURVE",
"345 12 OFFCURVE",
"345 50 CURVE SMOOTH",
"345 647 LINE",
"537 647 LINE SMOOTH",
"572 647 OFFCURVE",
"590 665 OFFCURVE",
"590 700 CURVE",
"93 700 LINE SMOOTH",
"58 700 OFFCURVE",
"40 682 OFFCURVE",
"40 647 CURVE",
"286 647 LINE",
"286 -9 LINE"
);
}
);
width = 630;
}
);
note = T;
unicode = 0054;
},
{
color = 4;
glyphname = U;
lastChange = "2018-02-05 09:35:04 +0000";
layers = (
{
anchors = (
{
name = bottom;
position = "{336, 0}";
},
{
name = ogonek;
position = "{605, 10}";
},
{
name = top;
position = "{336, 700}";
},
{
name = topright;
position = "{652, 700}";
}
);
background = {
paths = (
{
closed = 1;
nodes = (
"474 -9 OFFCURVE",
"622 75 OFFCURVE",
"622 221 CURVE SMOOTH",
"622 709 LINE",
"583 709 OFFCURVE",
"563 688 OFFCURVE",
"563 650 CURVE SMOOTH",
"563 221 LINE SMOOTH",
"563 125 OFFCURVE",
"467 44 OFFCURVE",
"346 44 CURVE SMOOTH",
"225 44 OFFCURVE",
"129 125 OFFCURVE",
"129 221 CURVE SMOOTH",
"129 709 LINE",
"91 709 OFFCURVE",
"70 688 OFFCURVE",
"70 650 CURVE SMOOTH",
"70 221 LINE SMOOTH",
"70 75 OFFCURVE",
"218 -9 OFFCURVE",
"346 -9 CURVE SMOOTH"
);
}
);
};
layerId = "0B1DFD06-3317-40CA-B510-4969A0718C16";
paths = (
{
closed = 1;
nodes = (
"474 -9 OFFCURVE",
"602 77 OFFCURVE",
"602 223 CURVE SMOOTH",
"602 709 LINE",
"563 709 OFFCURVE",
"543 688 OFFCURVE",
"543 650 CURVE SMOOTH",
"543 223 LINE SMOOTH",
"543 127 OFFCURVE",
"467 46 OFFCURVE",
"336 46 CURVE SMOOTH",
"205 46 OFFCURVE",
"129 127 OFFCURVE",
"129 223 CURVE SMOOTH",
"129 709 LINE",
"91 709 OFFCURVE",
"70 688 OFFCURVE",
"70 650 CURVE SMOOTH",
"70 223 LINE SMOOTH",
"70 77 OFFCURVE",
"198 -9 OFFCURVE",
"336 -9 CURVE SMOOTH"
);
}
);
width = 672;
}
);
note = U;
unicode = 0055;
},
{
color = 4;
glyphname = V;
lastChange = "2018-02-05 09:35:04 +0000";
layers = (
{
anchors = (
{
name = bottom;
position = "{339, 0}";
},
{
name = top;
position = "{339, 700}";
}
);
background = {
paths = (
{
closed = 1;
nodes = (
"350 -9 OFFCURVE",
"362 -1 OFFCURVE",
"366 9 CURVE SMOOTH",
"642 706 LINE",
"611 719 OFFCURVE",
"577 703 OFFCURVE",
"565 672 CURVE SMOOTH",
"328 57 LINE",
"327 62 LINE",
"335 91 LINE",
"111 672 LINE SMOOTH",
"100 703 OFFCURVE",
"66 719 OFFCURVE",
"35 706 CURVE",
"310 9 LINE SMOOTH",
"315 -1 OFFCURVE",
"327 -9 OFFCURVE",
"338 -9 CURVE SMOOTH"
);
}
);
};
layerId = "0B1DFD06-3317-40CA-B510-4969A0718C16";
paths = (
{
closed = 1;
nodes = (
"352 -9 OFFCURVE",
"362 -3 OFFCURVE",
"366 9 CURVE SMOOTH",
"627 705 LINE",
"620 708 OFFCURVE",
"612 710 OFFCURVE",
"605 710 CURVE SMOOTH",
"581 710 OFFCURVE",
"559 695 OFFCURVE",
"550 671 CURVE SMOOTH",
"326 46 LINE",
"321 48 LINE",
"335 88 LINE",
"126 671 LINE SMOOTH",
"117 695 OFFCURVE",
"96 710 OFFCURVE",
"72 710 CURVE SMOOTH",
"65 710 OFFCURVE",
"57 708 OFFCURVE",
"50 705 CURVE",
"310 9 LINE SMOOTH",
"314 -3 OFFCURVE",
"325 -9 OFFCURVE",
"338 -9 CURVE SMOOTH"
);
}
);
width = 677;
}
);
note = V;
unicode = 0056;
},
{
color = 4;
glyphname = W;
lastChange = "2018-02-05 09:35:04 +0000";
layers = (
{
anchors = (
{
name = bottom;
position = "{459, 0}";
},
{
name = top;
position = "{459, 700}";
}
);
background = {
paths = (
{
closed = 1;
nodes = (
"456 525 LINE",
"448 557 LINE",
"450 562 LINE",
"633 -9 LINE",
"664 -9 OFFCURVE",
"681 9 OFFCURVE",
"692 40 CURVE SMOOTH",
"913 708 LINE",
"882 718 OFFCURVE",
"848 700 OFFCURVE",
"838 669 CURVE SMOOTH",
"644 72 LINE",
"643 77 LINE",
"650 108 LINE",
"487 622 LINE",
"482 634 OFFCURVE",
"472 641 OFFCURVE",
"459 641 CURVE SMOOTH",
"445 641 OFFCURVE",
"435 634 OFFCURVE",
"431 622 CURVE",
"255 72 LINE",
"254 77 LINE",
"261 108 LINE",
"80 669 LINE SMOOTH",
"70 700 OFFCURVE",
"36 718 OFFCURVE",
"5 708 CURVE",
"226 40 LINE SMOOTH",
"236 9 OFFCURVE",
"254 -9 OFFCURVE",
"285 -9 CURVE"
);
}
);
};
layerId = "0B1DFD06-3317-40CA-B510-4969A0718C16";
paths = (
{
closed = 1;
nodes = (
"487 690 LINE",
"482 702 OFFCURVE",
"472 709 OFFCURVE",
"459 709 CURVE SMOOTH",
"445 709 OFFCURVE",
"435 702 OFFCURVE",
"431 690 CURVE",
"248 64 LINE",
"244 66 LINE",
"256 108 LINE",
"125 667 LINE SMOOTH",
"119 692 OFFCURVE",
"93 709 OFFCURVE",
"67 709 CURVE SMOOTH",
"61 709 OFFCURVE",
"56 708 OFFCURVE",
"50 706 CURVE",
"221 40 LINE SMOOTH",
"229 9 OFFCURVE",
"249 -9 OFFCURVE",
"280 -9 CURVE",
"456 603 LINE",
"446 639 LINE",
"450 640 LINE",
"638 -9 LINE",
"669 -9 OFFCURVE",
"689 9 OFFCURVE",
"697 40 CURVE SMOOTH",
"868 706 LINE",
"862 708 OFFCURVE",
"855 709 OFFCURVE",
"849 709 CURVE SMOOTH",
"824 709 OFFCURVE",
"799 692 OFFCURVE",
"793 667 CURVE SMOOTH",
"647 64 LINE",
"643 66 LINE",
"653 108 LINE"
);
}
);
width = 918;
}
);
note = W;
unicode = 0057;
},
{
color = 4;
glyphname = X;
lastChange = "2018-02-05 09:35:04 +0000";
layers = (
{
anchors = (
{
name = bottom;
position = "{340, 0}";
},
{
name = top;
position = "{340, 700}";
}
);
background = {
paths = (
{
closed = 1;
nodes = (
"71 -18 OFFCURVE",
"102 -9 OFFCURVE",
"121 18 CURVE SMOOTH",
"340 317 LINE",
"558 18 LINE SMOOTH",
"577 -9 OFFCURVE",
"608 -18 OFFCURVE",
"634 1 CURVE",
"372 361 LINE",
"620 700 LINE",
"593 719 OFFCURVE",
"561 710 OFFCURVE",
"543 685 CURVE SMOOTH",
"340 405 LINE",
"136 685 LINE SMOOTH",
"118 710 OFFCURVE",
"86 719 OFFCURVE",
"59 700 CURVE",
"307 361 LINE",
"45 1 LINE"
);
}
);
};
layerId = "0B1DFD06-3317-40CA-B510-4969A0718C16";
paths = (
{
closed = 1;
nodes = (
"60 -6 OFFCURVE",
"70 -9 OFFCURVE",
"80 -9 CURVE SMOOTH",
"97 -9 OFFCURVE",
"114 1 OFFCURVE",
"126 18 CURVE SMOOTH",
"340 317 LINE",
"553 18 LINE SMOOTH",
"565 1 OFFCURVE",
"582 -9 OFFCURVE",
"599 -9 CURVE SMOOTH",
"609 -9 OFFCURVE",
"620 -6 OFFCURVE",
"629 1 CURVE",
"372 361 LINE",
"615 699 LINE",
"605 706 OFFCURVE",
"594 709 OFFCURVE",
"584 709 CURVE SMOOTH",
"566 709 OFFCURVE",
"549 700 OFFCURVE",
"538 684 CURVE SMOOTH",
"340 405 LINE",
"141 684 LINE SMOOTH",
"129 700 OFFCURVE",
"112 709 OFFCURVE",
"94 709 CURVE SMOOTH",
"84 709 OFFCURVE",
"74 706 OFFCURVE",
"64 699 CURVE",
"307 361 LINE",
"50 1 LINE"
);
}
);
width = 679;
}
);
note = X;
unicode = 0058;
},
{
color = 4;
glyphname = Y;
lastChange = "2018-02-05 09:35:04 +0000";
layers = (
{
anchors = (
{
name = bottom;
position = "{330, 0}";
},
{
name = top;
position = "{330, 700}";
},
{
name = topleft;
position = "{20, 700}";
}
);
background = {
paths = (
{
closed = 1;
nodes = (
"339 -9 OFFCURVE",
"359 12 OFFCURVE",
"359 50 CURVE SMOOTH",
"359 357 LINE",
"610 700 LINE",
"583 719 OFFCURVE",
"551 710 OFFCURVE",
"533 685 CURVE SMOOTH",
"330 405 LINE",
"126 685 LINE SMOOTH",
"109 710 OFFCURVE",
"76 719 OFFCURVE",
"50 700 CURVE",
"300 357 LINE",
"300 -9 LINE"
);
}
);
};
layerId = "0B1DFD06-3317-40CA-B510-4969A0718C16";
paths = (
{
closed = 1;
nodes = (
"339 -9 OFFCURVE",
"359 12 OFFCURVE",
"359 50 CURVE SMOOTH",
"359 257 LINE",
"610 699 LINE",
"600 706 OFFCURVE",
"589 709 OFFCURVE",
"579 709 CURVE SMOOTH",
"560 709 OFFCURVE",
"542 701 OFFCURVE",
"533 684 CURVE SMOOTH",
"330 305 LINE",
"126 684 LINE SMOOTH",
"117 700 OFFCURVE",
"100 709 OFFCURVE",
"81 709 CURVE SMOOTH",
"71 709 OFFCURVE",
"60 706 OFFCURVE",
"50 699 CURVE",
"300 257 LINE",
"300 -9 LINE"
);
}
);
width = 660;
}
);
note = Y;
unicode = 0059;
},
{
color = 4;
glyphname = Z;
lastChange = "2018-02-05 09:35:04 +0000";
layers = (
{
anchors = (
{
name = bottom;
position = "{333, 0}";
},
{
name = top;
position = "{333, 700}";
}
);
background = {
paths = (
{
closed = 1;
nodes = (
"610 0 LINE",
"610 35 OFFCURVE",
"592 53 OFFCURVE",
"557 53 CURVE SMOOTH",
"135 53 LINE",
"117 34 LINE",
"113 32 LINE",
"604 654 LINE SMOOTH",
"617 672 OFFCURVE",
"604 700 OFFCURVE",
"580 700 CURVE SMOOTH",
"49 700 LINE",
"49 665 OFFCURVE",
"67 647 OFFCURVE",
"103 647 CURVE SMOOTH",
"524 647 LINE",
"542 666 LINE",
"546 668 LINE",
"55 46 LINE SMOOTH",
"42 28 OFFCURVE",
"55 0 OFFCURVE",
"79 0 CURVE SMOOTH"
);
}
);
};
layerId = "0B1DFD06-3317-40CA-B510-4969A0718C16";
paths = (
{
closed = 1;
nodes = (
"616 0 LINE",
"616 33 OFFCURVE",
"598 51 OFFCURVE",
"563 51 CURVE SMOOTH",
"135 51 LINE",
"117 28 LINE",
"113 30 LINE",
"604 656 LINE SMOOTH",
"608 661 OFFCURVE",
"609 667 OFFCURVE",
"609 672 CURVE SMOOTH",
"609 690 OFFCURVE",
"601 700 OFFCURVE",
"582 700 CURVE SMOOTH",
"69 700 LINE",
"69 667 OFFCURVE",
"87 649 OFFCURVE",
"123 649 CURVE SMOOTH",
"524 649 LINE",
"542 672 LINE",
"546 670 LINE",
"55 44 LINE SMOOTH",
"51 39 OFFCURVE",
"50 33 OFFCURVE",
"50 28 CURVE SMOOTH",
"50 11 OFFCURVE",
"60 0 OFFCURVE",
"77 0 CURVE SMOOTH"
);
}
);
width = 666;
}
);
note = Z;
unicode = 005A;
},
{
color = 4;
glyphname = a;
lastChange = "2018-02-05 09:42:39 +0000";
layers = (
{
anchors = (
{
name = bottom;
position = "{260, 0}";
},
{
name = ogonek;
position = "{467, 10}";
},
{
name = top;
position = "{260, 509}";
}
);
layerId = "0B1DFD06-3317-40CA-B510-4969A0718C16";
paths = (
{
closed = 1;
nodes = (
"320 -9 OFFCURVE",
"378 27 OFFCURVE",
"414 73 CURVE",
"417 70 LINE",
"411 61 OFFCURVE",
"406 55 OFFCURVE",
"396 44 CURVE",
"396 -9 LINE",
"431 -9 OFFCURVE",
"449 9 OFFCURVE",
"449 44 CURVE SMOOTH",
"449 338 LINE SMOOTH",
"449 444 OFFCURVE",
"376 509 OFFCURVE",
"260 509 CURVE SMOOTH",
"179 509 OFFCURVE",
"76 462 OFFCURVE",
"76 407 CURVE SMOOTH",
"76 391 OFFCURVE",
"86 375 OFFCURVE",
"100 364 CURVE",
"127 421 OFFCURVE",
"175 460 OFFCURVE",
"260 460 CURVE SMOOTH",
"358 460 OFFCURVE",
"396 407 OFFCURVE",
"396 338 CURVE SMOOTH",
"396 276 LINE",
"404 267 OFFCURVE",
"409 261 OFFCURVE",
"415 252 CURVE",
"412 250 LINE",
"376 294 OFFCURVE",
"324 326 OFFCURVE",
"247 326 CURVE SMOOTH",
"133 326 OFFCURVE",
"50 267 OFFCURVE",
"50 158 CURVE SMOOTH",
"50 54 OFFCURVE",
"130 -9 OFFCURVE",
"244 -9 CURVE SMOOTH"
);
},
{
closed = 1;
nodes = (
"159 40 OFFCURVE",
"105 84 OFFCURVE",
"105 158 CURVE SMOOTH",
"105 231 OFFCURVE",
"159 277 OFFCURVE",
"247 277 CURVE SMOOTH",
"343 277 OFFCURVE",
"398 230 OFFCURVE",
"398 158 CURVE SMOOTH",
"398 87 OFFCURVE",
"340 40 OFFCURVE",
"244 40 CURVE SMOOTH"
);
}
);
width = 519;
}
);
note = a;
unicode = 0061;
},
{
color = 4;
glyphname = b;
lastChange = "2018-02-05 09:42:39 +0000";
layers = (
{
anchors = (
{
name = bottom;
position = "{274, 0}";
},
{
name = top;
position = "{274, 509}";
}
);
layerId = "0B1DFD06-3317-40CA-B510-4969A0718C16";
paths = (
{
closed = 1;
nodes = (
"119 -9 OFFCURVE",
"134 11 OFFCURVE",
"134 49 CURVE",
"128 56 OFFCURVE",
"120 66 OFFCURVE",
"114 74 CURVE",
"116 78 LINE",
"151 34 OFFCURVE",
"204 -9 OFFCURVE",
"281 -9 CURVE SMOOTH",
"399 -9 OFFCURVE",
"478 54 OFFCURVE",
"478 159 CURVE SMOOTH",
"478 342 LINE SMOOTH",
"478 445 OFFCURVE",
"399 509 OFFCURVE",
"283 509 CURVE SMOOTH",
"211 509 OFFCURVE",
"153 469 OFFCURVE",
"116 426 CURVE",
"114 431 LINE",
"119 438 OFFCURVE",
"128 448 OFFCURVE",
"134 455 CURVE",
"134 709 LINE",
"98 709 OFFCURVE",
"80 691 OFFCURVE",
"80 656 CURVE SMOOTH",
"80 -9 LINE"
);
},
{
closed = 1;
nodes = (
"199 40 OFFCURVE",
"134 91 OFFCURVE",
"134 154 CURVE SMOOTH",
"134 347 LINE SMOOTH",
"134 409 OFFCURVE",
"202 460 OFFCURVE",
"281 460 CURVE SMOOTH",
"371 460 OFFCURVE",
"425 414 OFFCURVE",
"425 342 CURVE SMOOTH",
"425 159 LINE SMOOTH",
"425 84 OFFCURVE",
"371 40 OFFCURVE",
"279 40 CURVE SMOOTH"
);
}
);
width = 548;
}
);
note = b;
unicode = 0062;
},
{
color = 4;
glyphname = c;
lastChange = "2018-02-05 09:42:39 +0000";
layers = (
{
anchors = (
{
name = bottom;
position = "{255, 0}";
},
{
name = top;
position = "{255, 509}";
}
);
layerId = "0B1DFD06-3317-40CA-B510-4969A0718C16";
paths = (
{
closed = 1;
nodes = (
"360 -9 OFFCURVE",
"459 45 OFFCURVE",
"459 118 CURVE SMOOTH",
"459 142 OFFCURVE",
"434 159 OFFCURVE",
"417 159 CURVE",
"417 86 OFFCURVE",
"364 40 OFFCURVE",
"270 40 CURVE SMOOTH",
"186 40 OFFCURVE",
"123 91 OFFCURVE",
"123 158 CURVE SMOOTH",
"123 340 LINE SMOOTH",
"123 409 OFFCURVE",
"184 460 OFFCURVE",
"268 460 CURVE SMOOTH",
"362 460 OFFCURVE",
"414 414 OFFCURVE",
"414 340 CURVE",
"431 340 OFFCURVE",
"456 357 OFFCURVE",
"456 382 CURVE SMOOTH",
"456 453 OFFCURVE",
"361 509 OFFCURVE",
"268 509 CURVE SMOOTH",
"157 509 OFFCURVE",
"70 433 OFFCURVE",
"70 340 CURVE SMOOTH",
"70 158 LINE SMOOTH",
"70 65 OFFCURVE",
"159 -9 OFFCURVE",
"270 -9 CURVE SMOOTH"
);
}
);
width = 509;
}
);
note = c;
unicode = 0063;
},
{
color = 4;
glyphname = d;
lastChange = "2018-02-05 09:42:39 +0000";
layers = (
{
anchors = (
{
name = bottom;
position = "{274, 0}";
},
{
name = center;
position = "{274, 235}";
},
{
name = top;
position = "{274, 509}";
},
{
name = topright;
position = "{528, 470}";
}
);
background = {
paths = (
{
closed = 1;
nodes = (
"336 -9 OFFCURVE",
"397 19 OFFCURVE",
"432 63 CURVE",
"434 59 LINE",
"429 53 OFFCURVE",
"421 43 OFFCURVE",
"415 38 CURVE",
"415 -9 LINE",
"450 -9 OFFCURVE",
"468 9 OFFCURVE",
"468 44 CURVE SMOOTH",
"468 709 LINE",
"432 709 OFFCURVE",
"415 691 OFFCURVE",
"415 656 CURVE SMOOTH",
"415 461 LINE",
"421 457 OFFCURVE",
"429 447 OFFCURVE",
"434 441 CURVE",
"432 436 LINE",
"397 481 OFFCURVE",
"336 509 OFFCURVE",
"269 509 CURVE SMOOTH",
"158 509 OFFCURVE",
"70 433 OFFCURVE",
"70 340 CURVE SMOOTH",
"70 158 LINE SMOOTH",
"70 65 OFFCURVE",
"158 -9 OFFCURVE",
"269 -9 CURVE SMOOTH"
);
},
{
closed = 1;
nodes = (
"185 40 OFFCURVE",
"123 96 OFFCURVE",
"123 158 CURVE SMOOTH",
"123 340 LINE SMOOTH",
"123 404 OFFCURVE",
"185 460 OFFCURVE",
"269 460 CURVE SMOOTH",
"353 460 OFFCURVE",
"415 404 OFFCURVE",
"415 340 CURVE SMOOTH",
"415 158 LINE SMOOTH",
"415 96 OFFCURVE",
"353 40 OFFCURVE",
"269 40 CURVE SMOOTH"
);
}
);
};
layerId = "0B1DFD06-3317-40CA-B510-4969A0718C16";
paths = (
{
closed = 1;
nodes = (
"414 455 LINE",
"420 448 OFFCURVE",
"429 438 OFFCURVE",
"434 431 CURVE",
"432 426 LINE",
"395 469 OFFCURVE",
"345 509 OFFCURVE",
"263 509 CURVE SMOOTH",
"147 509 OFFCURVE",
"70 445 OFFCURVE",
"70 342 CURVE SMOOTH",
"70 159 LINE SMOOTH",
"70 54 OFFCURVE",
"147 -9 OFFCURVE",
"265 -9 CURVE SMOOTH",
"342 -9 OFFCURVE",
"397 34 OFFCURVE",
"432 78 CURVE",
"434 74 LINE",
"428 66 OFFCURVE",
"420 56 OFFCURVE",
"414 49 CURVE",
"414 -9 LINE",
"453 -9 OFFCURVE",
"468 11 OFFCURVE",
"468 49 CURVE SMOOTH",
"468 709 LINE",
"432 709 OFFCURVE",
"414 691 OFFCURVE",
"414 656 CURVE SMOOTH"
);
},
{
closed = 1;
nodes = (
"177 40 OFFCURVE",
"123 84 OFFCURVE",
"123 159 CURVE SMOOTH",
"123 342 LINE SMOOTH",
"123 414 OFFCURVE",
"177 460 OFFCURVE",
"267 460 CURVE SMOOTH",
"361 460 OFFCURVE",
"414 409 OFFCURVE",
"414 347 CURVE SMOOTH",
"414 154 LINE SMOOTH",
"414 91 OFFCURVE",
"349 40 OFFCURVE",
"269 40 CURVE SMOOTH"
);
}
);
width = 548;
}
);
note = d;
unicode = 0064;
},
{
color = 4;
glyphname = e;
lastChange = "2018-02-05 09:42:39 +0000";
layers = (
{
anchors = (
{
name = bottom;
position = "{259, 0}";
},
{
name = ogonek;
position = "{466, 10}";
},
{
name = top;
position = "{259, 509}";
}
);
background = {
paths = (
{
closed = 1;
nodes = (
"353 -9 OFFCURVE",
"423 34 OFFCURVE",
"453 96 CURVE SMOOTH",
"469 131 OFFCURVE",
"437 159 OFFCURVE",
"415 159 CURVE",
"415 96 OFFCURVE",
"353 40 OFFCURVE",
"269 40 CURVE SMOOTH",
"185 40 OFFCURVE",
"123 96 OFFCURVE",
"123 158 CURVE SMOOTH",
"123 261 LINE",
"441 261 LINE SMOOTH",
"454 261 OFFCURVE",
"468 273 OFFCURVE",
"468 287 CURVE SMOOTH",
"468 340 LINE SMOOTH",
"468 433 OFFCURVE",
"379 509 OFFCURVE",
"269 509 CURVE SMOOTH",
"158 509 OFFCURVE",
"70 433 OFFCURVE",
"70 340 CURVE SMOOTH",
"70 158 LINE SMOOTH",
"70 65 OFFCURVE",
"158 -9 OFFCURVE",
"269 -9 CURVE SMOOTH"
);
},
{
closed = 1;
nodes = (
"123 340 LINE SMOOTH",
"123 404 OFFCURVE",
"185 460 OFFCURVE",
"269 460 CURVE SMOOTH",
"353 460 OFFCURVE",
"415 404 OFFCURVE",
"415 340 CURVE SMOOTH",
"415 310 LINE",
"123 310 LINE"
);
}
);
};
layerId = "0B1DFD06-3317-40CA-B510-4969A0718C16";
paths = (
{
closed = 1;
nodes = (
"123 330 LINE SMOOTH",
"123 404 OFFCURVE",
"180 460 OFFCURVE",
"269 460 CURVE SMOOTH",
"358 460 OFFCURVE",
"415 404 OFFCURVE",
"415 330 CURVE SMOOTH",
"415 283 LINE",
"123 283 LINE"
);
},
{
closed = 1;
nodes = (
"359 -9 OFFCURVE",
"458 45 OFFCURVE",
"458 118 CURVE SMOOTH",
"458 142 OFFCURVE",
"433 159 OFFCURVE",
"416 159 CURVE",
"416 86 OFFCURVE",
"363 40 OFFCURVE",
"269 40 CURVE SMOOTH",
"173 40 OFFCURVE",
"123 91 OFFCURVE",
"123 168 CURVE SMOOTH",
"123 234 LINE",
"441 234 LINE SMOOTH",
"454 234 OFFCURVE",
"468 246 OFFCURVE",
"468 260 CURVE SMOOTH",
"468 330 LINE SMOOTH",
"468 433 OFFCURVE",
"379 509 OFFCURVE",
"269 509 CURVE SMOOTH",
"158 509 OFFCURVE",
"70 433 OFFCURVE",
"70 330 CURVE SMOOTH",
"70 168 LINE SMOOTH",
"70 65 OFFCURVE",
"148 -9 OFFCURVE",
"269 -9 CURVE SMOOTH"
);
}
);
width = 518;
}
);
note = e;
unicode = 0065;
},
{
color = 4;
glyphname = f;
lastChange = "2018-02-05 09:42:39 +0000";
layers = (
{
anchors = (
{
name = bottom;
position = "{181, 0}";
},
{
name = top;
position = "{181, 509}";
}
);
layerId = "0B1DFD06-3317-40CA-B510-4969A0718C16";
paths = (
{
closed = 1;
nodes = (
"161 -9 OFFCURVE",
"179 9 OFFCURVE",
"179 44 CURVE SMOOTH",
"179 460 LINE",
"253 460 LINE SMOOTH",
"283 460 OFFCURVE",
"301 478 OFFCURVE",
"301 509 CURVE",
"179 509 LINE",
"179 575 LINE SMOOTH",
"179 632 OFFCURVE",
"199 660 OFFCURVE",
"253 660 CURVE SMOOTH",
"277 660 OFFCURVE",
"301 651 OFFCURVE",
"315 642 CURVE",
"319 649 OFFCURVE",
"321 654 OFFCURVE",
"321 663 CURVE SMOOTH",
"321 684 OFFCURVE",
"299 709 OFFCURVE",
"256 709 CURVE SMOOTH",
"163 709 OFFCURVE",
"125 649 OFFCURVE",
"125 579 CURVE SMOOTH",
"125 509 LINE",
"88 509 LINE SMOOTH",
"57 509 OFFCURVE",
"40 491 OFFCURVE",
"40 460 CURVE",
"125 460 LINE",
"125 -9 LINE"
);
}
);
width = 361;
}
);
note = f;
unicode = 0066;
},
{
color = 4;
glyphname = g;
lastChange = "2018-02-05 09:42:39 +0000";
layers = (
{
anchors = (
{
name = bottom;
position = "{274, 0}";
},
{
name = top;
position = "{274, 509}";
}
);
layerId = "0B1DFD06-3317-40CA-B510-4969A0718C16";
paths = (
{
closed = 1;
nodes = (
"414 -110 OFFCURVE",
"367 -161 OFFCURVE",
"269 -161 CURVE SMOOTH",
"185 -161 OFFCURVE",
"125 -114 OFFCURVE",
"125 -45 CURVE",
"102 -45 OFFCURVE",
"82 -57 OFFCURVE",
"82 -85 CURVE SMOOTH",
"82 -151 OFFCURVE",
"174 -209 OFFCURVE",
"269 -209 CURVE SMOOTH",
"389 -209 OFFCURVE",
"468 -134 OFFCURVE",
"468 -23 CURVE SMOOTH",
"468 509 LINE",
"429 509 OFFCURVE",
"414 489 OFFCURVE",
"414 451 CURVE",
"420 444 OFFCURVE",
"428 434 OFFCURVE",
"434 426 CURVE",
"432 422 LINE",
"397 466 OFFCURVE",
"344 509 OFFCURVE",
"267 509 CURVE SMOOTH",
"149 509 OFFCURVE",
"70 446 OFFCURVE",
"70 341 CURVE SMOOTH",
"70 168 LINE SMOOTH",
"70 65 OFFCURVE",
"149 1 OFFCURVE",
"265 1 CURVE SMOOTH",
"337 1 OFFCURVE",
"395 41 OFFCURVE",
"432 84 CURVE",
"434 79 LINE",
"429 72 OFFCURVE",
"420 62 OFFCURVE",
"414 55 CURVE",
"414 -23 LINE SMOOTH"
);
},
{
closed = 1;
nodes = (
"349 460 OFFCURVE",
"414 409 OFFCURVE",
"414 346 CURVE SMOOTH",
"414 163 LINE SMOOTH",
"414 101 OFFCURVE",
"346 50 OFFCURVE",
"267 50 CURVE SMOOTH",
"177 50 OFFCURVE",
"123 96 OFFCURVE",
"123 168 CURVE SMOOTH",
"123 341 LINE SMOOTH",
"123 416 OFFCURVE",
"177 460 OFFCURVE",
"269 460 CURVE SMOOTH"
);
}
);
width = 548;
}
);
note = g;
unicode = 0067;
},
{
color = 4;
glyphname = h;
lastChange = "2018-02-07 07:38:16 +0000";
layers = (
{
anchors = (
{
name = bottom;
position = "{274, 0}";
},
{
name = center;
position = "{274, 235}";
},
{
name = top;
position = "{274, 509}";
}
);
layerId = "0B1DFD06-3317-40CA-B510-4969A0718C16";
paths = (
{
closed = 1;
nodes = (
"116 -9 OFFCURVE",
"134 9 OFFCURVE",
"134 44 CURVE SMOOTH",
"134 340 LINE SMOOTH",
"134 404 OFFCURVE",
"216 460 OFFCURVE",
"296 460 CURVE SMOOTH",
"387 460 OFFCURVE",
"424 412 OFFCURVE",
"424 340 CURVE SMOOTH",
"424 -9 LINE",
"460 -9 OFFCURVE",
"478 9 OFFCURVE",
"478 44 CURVE SMOOTH",
"478 340 LINE SMOOTH",
"478 438 OFFCURVE",
"417 509 OFFCURVE",
"299 509 CURVE SMOOTH",
"224 509 OFFCURVE",
"154 465 OFFCURVE",
"116 415 CURVE",
"114 420 LINE",
"119 426 OFFCURVE",
"128 437 OFFCURVE",
"134 443 CURVE",
"134 709 LINE",
"98 709 OFFCURVE",
"80 691 OFFCURVE",
"80 655 CURVE SMOOTH",
"80 -9 LINE"
);
}
);
width = 548;
}
);
note = h;
unicode = 0068;
},
{
color = 4;
glyphname = i;
lastChange = "2018-02-05 09:35:04 +0000";
layers = (
{
anchors = (
{
name = bottom;
position = "{130, 0}";
}
);
layerId = "0B1DFD06-3317-40CA-B510-4969A0718C16";
paths = (
{
closed = 1;
nodes = (
"139 -9 OFFCURVE",
"157 9 OFFCURVE",
"157 44 CURVE SMOOTH",
"157 509 LINE",
"121 509 OFFCURVE",
"103 491 OFFCURVE",
"103 455 CURVE SMOOTH",
"103 -9 LINE"
);
},
{
closed = 1;
nodes = (
"158 609 OFFCURVE",
"180 631 OFFCURVE",
"180 659 CURVE SMOOTH",
"180 687 OFFCURVE",
"158 709 OFFCURVE",
"130 709 CURVE SMOOTH",
"102 709 OFFCURVE",
"80 687 OFFCURVE",
"80 659 CURVE SMOOTH",
"80 631 OFFCURVE",
"102 609 OFFCURVE",
"130 609 CURVE SMOOTH"
);
}
);
width = 260;
}
);
note = i;
unicode = 0069;
},
{
color = 4;
glyphname = j;
lastChange = "2018-02-05 07:03:11 +0000";
layers = (
{
layerId = "0B1DFD06-3317-40CA-B510-4969A0718C16";
paths = (
{
closed = 1;
nodes = (
"237 609 OFFCURVE",
"259 631 OFFCURVE",
"259 659 CURVE SMOOTH",
"259 687 OFFCURVE",
"237 709 OFFCURVE",
"209 709 CURVE SMOOTH",
"181 709 OFFCURVE",
"159 687 OFFCURVE",
"159 659 CURVE SMOOTH",
"159 631 OFFCURVE",
"181 609 OFFCURVE",
"209 609 CURVE SMOOTH"
);
},
{
closed = 1;
nodes = (
"182 -132 OFFCURVE",
"162 -160 OFFCURVE",
"108 -160 CURVE SMOOTH",
"84 -160 OFFCURVE",
"60 -151 OFFCURVE",
"46 -142 CURVE",
"42 -149 OFFCURVE",
"40 -154 OFFCURVE",
"40 -163 CURVE SMOOTH",
"40 -184 OFFCURVE",
"62 -209 OFFCURVE",
"105 -209 CURVE SMOOTH",
"198 -209 OFFCURVE",
"236 -149 OFFCURVE",
"236 -79 CURVE SMOOTH",
"236 509 LINE",
"200 509 OFFCURVE",
"182 491 OFFCURVE",
"182 455 CURVE SMOOTH",
"182 -75 LINE SMOOTH"
);
}
);
width = 339;
}
);
note = j;
unicode = 006A;
},
{
color = 4;
glyphname = k;
lastChange = "2018-02-05 09:42:39 +0000";
layers = (
{
anchors = (
{
name = bottom;
position = "{269, 0}";
},
{
name = top;
position = "{269, 509}";
}
);
layerId = "0B1DFD06-3317-40CA-B510-4969A0718C16";
paths = (
{
closed = 1;
nodes = (
"116 -9 OFFCURVE",
"134 9 OFFCURVE",
"134 44 CURVE SMOOTH",
"134 170 LINE SMOOTH",
"134 238 OFFCURVE",
"195 291 OFFCURVE",
"287 291 CURVE SMOOTH",
"387 291 OFFCURVE",
"415 240 OFFCURVE",
"415 170 CURVE SMOOTH",
"415 -9 LINE",
"451 -9 OFFCURVE",
"468 9 OFFCURVE",
"468 44 CURVE SMOOTH",
"468 177 LINE SMOOTH",
"468 274 OFFCURVE",
"405 341 OFFCURVE",
"306 340 CURVE SMOOTH",
"291 340 OFFCURVE",
"278 338 OFFCURVE",
"259 333 CURVE",
"258 338 LINE",
"273 342 OFFCURVE",
"287 345 OFFCURVE",
"302 347 CURVE",
"428 433 LINE SMOOTH",
"459 451 OFFCURVE",
"464 476 OFFCURVE",
"446 507 CURVE",
"134 290 LINE",
"134 709 LINE",
"98 709 OFFCURVE",
"80 691 OFFCURVE",
"80 656 CURVE SMOOTH",
"80 -9 LINE"
);
}
);
width = 538;
}
);
note = k;
unicode = 006B;
},
{
color = 4;
glyphname = l;
lastChange = "2018-02-05 09:42:39 +0000";
layers = (
{
anchors = (
{
name = bottom;
position = "{158, 0}";
},
{
name = center;
position = "{158, 235}";
},
{
name = top;
position = "{158, 509}";
},
{
name = topright;
position = "{296, 470}";
}
);
layerId = "0B1DFD06-3317-40CA-B510-4969A0718C16";
paths = (
{
closed = 1;
nodes = (
"134 709 LINE",
"98 709 OFFCURVE",
"80 691 OFFCURVE",
"80 656 CURVE SMOOTH",
"80 119 LINE SMOOTH",
"80 44 OFFCURVE",
"117 -9 OFFCURVE",
"205 -9 CURVE SMOOTH",
"248 -9 OFFCURVE",
"276 13 OFFCURVE",
"276 35 CURVE SMOOTH",
"276 44 OFFCURVE",
"274 51 OFFCURVE",
"270 58 CURVE",
"256 49 OFFCURVE",
"232 40 OFFCURVE",
"208 40 CURVE SMOOTH",
"152 40 OFFCURVE",
"134 64 OFFCURVE",
"134 121 CURVE SMOOTH"
);
}
);
width = 316;
}
);
note = l;
unicode = 006C;
},
{
color = 4;
glyphname = m;
lastChange = "2018-02-07 07:38:40 +0000";
layers = (
{
anchors = (
{
name = bottom;
position = "{384, 0}";
},
{
name = top;
position = "{384, 509}";
}
);
background = {
paths = (
{
closed = 1;
nodes = (
"116 -9 OFFCURVE",
"134 9 OFFCURVE",
"134 44 CURVE SMOOTH",
"134 374 LINE SMOOTH",
"134 422 OFFCURVE",
"181 460 OFFCURVE",
"241 460 CURVE SMOOTH",
"302 460 OFFCURVE",
"350 422 OFFCURVE",
"350 374 CURVE SMOOTH",
"350 -9 LINE",
"386 -9 OFFCURVE",
"403 9 OFFCURVE",
"403 44 CURVE SMOOTH",
"403 374 LINE SMOOTH",
"403 422 OFFCURVE",
"450 460 OFFCURVE",
"511 460 CURVE SMOOTH",
"571 460 OFFCURVE",
"620 422 OFFCURVE",
"620 374 CURVE SMOOTH",
"620 -9 LINE",
"655 -9 OFFCURVE",
"673 9 OFFCURVE",
"673 44 CURVE SMOOTH",
"673 374 LINE SMOOTH",
"673 448 OFFCURVE",
"601 509 OFFCURVE",
"511 509 CURVE SMOOTH",
"443 509 OFFCURVE",
"386 475 OFFCURVE",
"362 426 CURVE",
"360 430 LINE",
"362 436 OFFCURVE",
"368 448 OFFCURVE",
"372 454 CURVE",
"343 488 OFFCURVE",
"294 509 OFFCURVE",
"241 509 CURVE SMOOTH",
"190 509 OFFCURVE",
"145 489 OFFCURVE",
"116 460 CURVE",
"111 461 LINE",
"116 467 OFFCURVE",
"128 478 OFFCURVE",
"134 482 CURVE",
"134 509 LINE",
"98 509 OFFCURVE",
"80 491 OFFCURVE",
"80 455 CURVE SMOOTH",
"80 -9 LINE"
);
}
);
};
layerId = "0B1DFD06-3317-40CA-B510-4969A0718C16";
paths = (
{
closed = 1;
nodes = (
"116 -9 OFFCURVE",
"134 9 OFFCURVE",
"134 44 CURVE SMOOTH",
"134 340 LINE SMOOTH",
"134 404 OFFCURVE",
"201 460 OFFCURVE",
"265 460 CURVE SMOOTH",
"336 460 OFFCURVE",
"363 412 OFFCURVE",
"363 340 CURVE SMOOTH",
"363 -9 LINE",
"399 -9 OFFCURVE",
"416 9 OFFCURVE",
"416 44 CURVE SMOOTH",
"416 340 LINE SMOOTH",
"416 404 OFFCURVE",
"476 460 OFFCURVE",
"547 460 CURVE SMOOTH",
"618 460 OFFCURVE",
"644 412 OFFCURVE",
"644 340 CURVE SMOOTH",
"644 -9 LINE",
"680 -9 OFFCURVE",
"698 9 OFFCURVE",
"698 44 CURVE SMOOTH",
"698 340 LINE SMOOTH",
"698 438 OFFCURVE",
"651 509 OFFCURVE",
"550 509 CURVE SMOOTH",
"479 509 OFFCURVE",
"433 472 OFFCURVE",
"398 421 CURVE",
"377 475 OFFCURVE",
"338 509 OFFCURVE",
"268 509 CURVE SMOOTH",
"200 509 OFFCURVE",
"154 465 OFFCURVE",
"116 415 CURVE",
"114 420 LINE",
"119 426 OFFCURVE",
"126 435 OFFCURVE",
"132 441 CURVE",
"132 509 LINE",
"96 509 OFFCURVE",
"80 491 OFFCURVE",
"80 455 CURVE SMOOTH",
"80 -9 LINE"
);
}
);
width = 768;
}
);
note = m;
unicode = 006D;
},
{
color = 4;
glyphname = n;
lastChange = "2018-02-07 07:37:45 +0000";
layers = (
{
anchors = (
{
name = bottom;
position = "{274, 0}";
},
{
name = top;
position = "{274, 509}";
}
);
background = {
paths = (
{
closed = 1;
nodes = (
"116 -9 OFFCURVE",
"134 9 OFFCURVE",
"134 44 CURVE SMOOTH",
"134 340 LINE SMOOTH",
"134 404 OFFCURVE",
"195 460 OFFCURVE",
"279 460 CURVE SMOOTH",
"363 460 OFFCURVE",
"425 404 OFFCURVE",
"425 340 CURVE SMOOTH",
"425 -9 LINE",
"461 -9 OFFCURVE",
"478 9 OFFCURVE",
"478 44 CURVE SMOOTH",
"478 340 LINE SMOOTH",
"478 433 OFFCURVE",
"390 509 OFFCURVE",
"279 509 CURVE SMOOTH",
"212 509 OFFCURVE",
"151 481 OFFCURVE",
"116 436 CURVE",
"114 441 LINE",
"119 447 OFFCURVE",
"128 457 OFFCURVE",
"134 461 CURVE",
"134 509 LINE",
"98 509 OFFCURVE",
"80 491 OFFCURVE",
"80 455 CURVE SMOOTH",
"80 -9 LINE"
);
}
);
};
layerId = "0B1DFD06-3317-40CA-B510-4969A0718C16";
paths = (
{
closed = 1;
nodes = (
"116 -9 OFFCURVE",
"134 9 OFFCURVE",
"134 44 CURVE SMOOTH",
"134 340 LINE SMOOTH",
"134 404 OFFCURVE",
"216 460 OFFCURVE",
"296 460 CURVE SMOOTH",
"387 460 OFFCURVE",
"424 412 OFFCURVE",
"424 340 CURVE SMOOTH",
"424 -9 LINE",
"460 -9 OFFCURVE",
"478 9 OFFCURVE",
"478 44 CURVE SMOOTH",
"478 340 LINE SMOOTH",
"478 438 OFFCURVE",
"417 509 OFFCURVE",
"299 509 CURVE SMOOTH",
"224 509 OFFCURVE",
"154 465 OFFCURVE",
"116 415 CURVE",
"114 420 LINE",
"119 426 OFFCURVE",
"126 435 OFFCURVE",
"132 441 CURVE",
"132 509 LINE",
"96 509 OFFCURVE",
"80 491 OFFCURVE",
"80 455 CURVE SMOOTH",
"80 -9 LINE"
);
}
);
width = 548;
}
);
note = n;
unicode = 006E;
},
{
color = 4;
glyphname = o;
lastChange = "2018-02-07 07:33:03 +0000";
layers = (
{
anchors = (
{
name = bottom;
position = "{310, 0}";
},
{
name = center;
position = "{310, 235}";
},
{
name = ogonek;
position = "{557, 10}";
},
{
name = top;
position = "{310, 509}";
},
{
name = topright;
position = "{547, 333}";
}
);
layerId = "0B1DFD06-3317-40CA-B510-4969A0718C16";
paths = (
{
closed = 1;
nodes = (
"452 -9 OFFCURVE",
"569 106 OFFCURVE",
"569 249 CURVE SMOOTH",
"569 392 OFFCURVE",
"452 509 OFFCURVE",
"309 509 CURVE SMOOTH",
"166 509 OFFCURVE",
"50 392 OFFCURVE",
"50 249 CURVE SMOOTH",
"50 106 OFFCURVE",
"166 -9 OFFCURVE",
"309 -9 CURVE SMOOTH"
);
},
{
closed = 1;
nodes = (
"195 40 OFFCURVE",
"105 129 OFFCURVE",
"105 249 CURVE SMOOTH",
"105 370 OFFCURVE",
"195 460 OFFCURVE",
"309 460 CURVE SMOOTH",
"422 460 OFFCURVE",
"514 370 OFFCURVE",
"514 249 CURVE SMOOTH",
"514 129 OFFCURVE",
"422 40 OFFCURVE",
"309 40 CURVE SMOOTH"
);
}
);
width = 619;
}
);
note = o;
unicode = 006F;
},
{
color = 4;
glyphname = p;
lastChange = "2018-02-05 09:42:39 +0000";
layers = (
{
anchors = (
{
name = bottom;
position = "{274, 0}";
},
{
name = top;
position = "{274, 509}";
}
);
background = {
paths = (
{
closed = 1;
nodes = (
"116 -209 OFFCURVE",
"134 -192 OFFCURVE",
"134 -156 CURVE SMOOTH",
"134 38 LINE",
"128 43 OFFCURVE",
"119 53 OFFCURVE",
"114 59 CURVE",
"116 63 LINE",
"151 19 OFFCURVE",
"212 -9 OFFCURVE",
"279 -9 CURVE SMOOTH",
"390 -9 OFFCURVE",
"478 65 OFFCURVE",
"478 158 CURVE SMOOTH",
"478 340 LINE SMOOTH",
"478 433 OFFCURVE",
"390 509 OFFCURVE",
"279 509 CURVE SMOOTH",
"212 509 OFFCURVE",
"151 481 OFFCURVE",
"116 436 CURVE",
"114 441 LINE",
"119 447 OFFCURVE",
"128 457 OFFCURVE",
"134 461 CURVE",
"134 509 LINE",
"98 509 OFFCURVE",
"80 491 OFFCURVE",
"80 455 CURVE SMOOTH",
"80 -209 LINE"
);
},
{
closed = 1;
nodes = (
"195 40 OFFCURVE",
"134 96 OFFCURVE",
"134 158 CURVE SMOOTH",
"134 340 LINE SMOOTH",
"134 404 OFFCURVE",
"195 460 OFFCURVE",
"279 460 CURVE SMOOTH",
"363 460 OFFCURVE",
"425 404 OFFCURVE",
"425 340 CURVE SMOOTH",
"425 158 LINE SMOOTH",
"425 96 OFFCURVE",
"363 40 OFFCURVE",
"279 40 CURVE SMOOTH"
);
}
);
};
layerId = "0B1DFD06-3317-40CA-B510-4969A0718C16";
paths = (
{
closed = 1;
nodes = (
"134 45 LINE",
"128 52 OFFCURVE",
"119 62 OFFCURVE",
"114 69 CURVE",
"116 74 LINE",
"153 31 OFFCURVE",
"201 -9 OFFCURVE",
"283 -9 CURVE SMOOTH",
"399 -9 OFFCURVE",
"478 55 OFFCURVE",
"478 158 CURVE SMOOTH",
"478 341 LINE SMOOTH",
"478 446 OFFCURVE",
"399 509 OFFCURVE",
"281 509 CURVE SMOOTH",
"204 509 OFFCURVE",
"151 466 OFFCURVE",
"116 422 CURVE",
"114 426 LINE",
"120 434 OFFCURVE",
"128 444 OFFCURVE",
"134 451 CURVE",
"134 509 LINE",
"95 509 OFFCURVE",
"80 489 OFFCURVE",
"80 451 CURVE SMOOTH",
"80 -209 LINE",
"116 -209 OFFCURVE",
"134 -191 OFFCURVE",
"134 -156 CURVE SMOOTH"
);
},
{
closed = 1;
nodes = (
"371 460 OFFCURVE",
"425 416 OFFCURVE",
"425 341 CURVE SMOOTH",
"425 158 LINE SMOOTH",
"425 86 OFFCURVE",
"371 40 OFFCURVE",
"281 40 CURVE SMOOTH",
"187 40 OFFCURVE",
"134 91 OFFCURVE",
"134 153 CURVE SMOOTH",
"134 346 LINE SMOOTH",
"134 409 OFFCURVE",
"199 460 OFFCURVE",
"279 460 CURVE SMOOTH"
);
}
);
width = 548;
}
);
note = p;
unicode = 0070;
},
{
color = 4;
glyphname = q;
lastChange = "2018-02-05 09:42:39 +0000";
layers = (
{
anchors = (
{
name = bottom;
position = "{274, 0}";
},
{
name = top;
position = "{274, 509}";
}
);
background = {
paths = (
{
closed = 1;
nodes = (
"450 -209 OFFCURVE",
"468 -192 OFFCURVE",
"468 -156 CURVE SMOOTH",
"468 509 LINE",
"429 509 OFFCURVE",
"416 491 OFFCURVE",
"415 461 CURVE",
"421 457 OFFCURVE",
"429 447 OFFCURVE",
"434 441 CURVE",
"432 436 LINE",
"397 481 OFFCURVE",
"336 509 OFFCURVE",
"269 509 CURVE SMOOTH",
"158 509 OFFCURVE",
"70 433 OFFCURVE",
"70 340 CURVE SMOOTH",
"70 158 LINE SMOOTH",
"70 65 OFFCURVE",
"158 -9 OFFCURVE",
"269 -9 CURVE SMOOTH",
"336 -9 OFFCURVE",
"397 19 OFFCURVE",
"432 63 CURVE",
"434 59 LINE",
"429 53 OFFCURVE",
"421 43 OFFCURVE",
"415 38 CURVE",
"415 -209 LINE"
);
},
{
closed = 1;
nodes = (
"185 40 OFFCURVE",
"123 96 OFFCURVE",
"123 158 CURVE SMOOTH",
"123 340 LINE SMOOTH",
"123 404 OFFCURVE",
"185 460 OFFCURVE",
"269 460 CURVE SMOOTH",
"353 460 OFFCURVE",
"415 404 OFFCURVE",
"415 340 CURVE SMOOTH",
"415 158 LINE SMOOTH",
"415 96 OFFCURVE",
"353 40 OFFCURVE",
"269 40 CURVE SMOOTH"
);
}
);
};
layerId = "0B1DFD06-3317-40CA-B510-4969A0718C16";
paths = (
{
closed = 1;
nodes = (
"429 509 OFFCURVE",
"414 489 OFFCURVE",
"414 451 CURVE",
"420 444 OFFCURVE",
"428 434 OFFCURVE",
"434 426 CURVE",
"432 422 LINE",
"397 466 OFFCURVE",
"344 509 OFFCURVE",
"267 509 CURVE SMOOTH",
"149 509 OFFCURVE",
"70 446 OFFCURVE",
"70 341 CURVE SMOOTH",
"70 158 LINE SMOOTH",
"70 55 OFFCURVE",
"149 -9 OFFCURVE",
"265 -9 CURVE SMOOTH",
"337 -9 OFFCURVE",
"395 31 OFFCURVE",
"432 74 CURVE",
"434 69 LINE",
"429 62 OFFCURVE",
"420 52 OFFCURVE",
"414 45 CURVE",
"414 -209 LINE",
"450 -209 OFFCURVE",
"468 -191 OFFCURVE",
"468 -156 CURVE SMOOTH",
"468 509 LINE"
);
},
{
closed = 1;
nodes = (
"349 460 OFFCURVE",
"414 409 OFFCURVE",
"414 346 CURVE SMOOTH",
"414 153 LINE SMOOTH",
"414 91 OFFCURVE",
"346 40 OFFCURVE",
"267 40 CURVE SMOOTH",
"177 40 OFFCURVE",
"123 86 OFFCURVE",
"123 158 CURVE SMOOTH",
"123 341 LINE SMOOTH",
"123 416 OFFCURVE",
"177 460 OFFCURVE",
"269 460 CURVE SMOOTH"
);
}
);
width = 548;
}
);
note = q;
unicode = 0071;
},
{
color = 4;
glyphname = r;
lastChange = "2018-02-05 09:42:39 +0000";
layers = (
{
anchors = (
{
name = bottom;
position = "{190, 0}";
},
{
name = top;
position = "{190, 509}";
}
);
layerId = "0B1DFD06-3317-40CA-B510-4969A0718C16";
paths = (
{
closed = 1;
nodes = (
"291 460 OFFCURVE",
"319 453 OFFCURVE",
"334 445 CURVE",
"338 452 OFFCURVE",
"340 457 OFFCURVE",
"340 466 CURVE SMOOTH",
"340 487 OFFCURVE",
"319 509 OFFCURVE",
"276 509 CURVE SMOOTH",
"203 509 OFFCURVE",
"152 468 OFFCURVE",
"114 416 CURVE",
"112 420 LINE",
"117 428 OFFCURVE",
"124 437 OFFCURVE",
"132 446 CURVE",
"132 509 LINE",
"96 509 OFFCURVE",
"80 491 OFFCURVE",
"80 455 CURVE SMOOTH",
"80 -9 LINE",
"116 -9 OFFCURVE",
"134 9 OFFCURVE",
"134 44 CURVE SMOOTH",
"134 340 LINE SMOOTH",
"134 404 OFFCURVE",
"188 460 OFFCURVE",
"261 460 CURVE SMOOTH"
);
}
);
width = 380;
}
);
note = r;
unicode = 0072;
},
{
color = 4;
glyphname = s;
lastChange = "2018-02-05 09:42:39 +0000";
layers = (
{
anchors = (
{
name = bottom;
position = "{242, 0}";
},
{
name = top;
position = "{242, 509}";
}
);
background = {
paths = (
{
closed = 1;
nodes = (
"346 -9 OFFCURVE",
"442 71 OFFCURVE",
"435 158 CURVE SMOOTH",
"429 245 OFFCURVE",
"352 258 OFFCURVE",
"240 282 CURVE SMOOTH",
"153 299 OFFCURVE",
"116 312 OFFCURVE",
"112 360 CURVE SMOOTH",
"107 408 OFFCURVE",
"159 460 OFFCURVE",
"236 460 CURVE SMOOTH",
"315 460 OFFCURVE",
"376 389 OFFCURVE",
"358 315 CURVE",
"392 311 OFFCURVE",
"417 332 OFFCURVE",
"411 368 CURVE SMOOTH",
"398 448 OFFCURVE",
"337 509 OFFCURVE",
"236 509 CURVE SMOOTH",
"124 509 OFFCURVE",
"51 432 OFFCURVE",
"59 354 CURVE SMOOTH",
"66 273 OFFCURVE",
"116 255 OFFCURVE",
"231 233 CURVE SMOOTH",
"317 215 OFFCURVE",
"379 200 OFFCURVE",
"382 155 CURVE SMOOTH",
"386 97 OFFCURVE",
"317 40 OFFCURVE",
"236 40 CURVE SMOOTH",
"158 40 OFFCURVE",
"71 102 OFFCURVE",
"91 183 CURVE",
"51 187 OFFCURVE",
"34 162 OFFCURVE",
"40 130 CURVE SMOOTH",
"54 50 OFFCURVE",
"138 -9 OFFCURVE",
"236 -9 CURVE SMOOTH"
);
}
);
};
layerId = "0B1DFD06-3317-40CA-B510-4969A0718C16";
paths = (
{
closed = 1;
nodes = (
"365 -9 OFFCURVE",
"433 45 OFFCURVE",
"433 131 CURVE SMOOTH",
"433 223 OFFCURVE",
"356 254 OFFCURVE",
"240 278 CURVE SMOOTH",
"153 296 OFFCURVE",
"112 322 OFFCURVE",
"112 377 CURVE SMOOTH",
"112 425 OFFCURVE",
"151 460 OFFCURVE",
"228 460 CURVE SMOOTH",
"315 460 OFFCURVE",
"357 409 OFFCURVE",
"357 340 CURVE",
"384 340 OFFCURVE",
"406 352 OFFCURVE",
"406 381 CURVE SMOOTH",
"406 452 OFFCURVE",
"333 509 OFFCURVE",
"228 509 CURVE SMOOTH",
"121 509 OFFCURVE",
"59 452 OFFCURVE",
"59 377 CURVE SMOOTH",
"59 294 OFFCURVE",
"116 253 OFFCURVE",
"231 229 CURVE SMOOTH",
"333 208 OFFCURVE",
"380 191 OFFCURVE",
"380 128 CURVE SMOOTH",
"380 72 OFFCURVE",
"337 40 OFFCURVE",
"250 40 CURVE SMOOTH",
"157 40 OFFCURVE",
"101 81 OFFCURVE",
"101 173 CURVE",
"76 173 OFFCURVE",
"50 164 OFFCURVE",
"50 134 CURVE SMOOTH",
"50 54 OFFCURVE",
"130 -9 OFFCURVE",
"250 -9 CURVE SMOOTH"
);
}
);
width = 483;
}
);
note = s;
unicode = 0073;
},
{
color = 4;
glyphname = t;
lastChange = "2018-02-05 09:42:39 +0000";
layers = (
{
anchors = (
{
name = bottom;
position = "{181, 0}";
},
{
name = center;
position = "{181, 235}";
},
{
name = top;
position = "{181, 509}";
},
{
name = topright;
position = "{341, 470}";
}
);
layerId = "0B1DFD06-3317-40CA-B510-4969A0718C16";
paths = (
{
closed = 1;
nodes = (
"179 460 LINE",
"264 460 LINE SMOOTH",
"294 460 OFFCURVE",
"312 478 OFFCURVE",
"312 509 CURVE",
"179 509 LINE",
"179 659 LINE",
"144 659 OFFCURVE",
"125 641 OFFCURVE",
"125 606 CURVE SMOOTH",
"125 509 LINE",
"88 509 LINE SMOOTH",
"57 509 OFFCURVE",
"40 491 OFFCURVE",
"40 460 CURVE",
"125 460 LINE",
"125 119 LINE SMOOTH",
"125 44 OFFCURVE",
"162 -9 OFFCURVE",
"250 -9 CURVE SMOOTH",
"293 -9 OFFCURVE",
"321 13 OFFCURVE",
"321 35 CURVE SMOOTH",
"321 44 OFFCURVE",
"319 51 OFFCURVE",
"315 58 CURVE",
"301 49 OFFCURVE",
"277 40 OFFCURVE",
"253 40 CURVE SMOOTH",
"197 40 OFFCURVE",
"179 64 OFFCURVE",
"179 121 CURVE SMOOTH"
);
}
);
width = 361;
}
);
note = t;
unicode = 0074;
},
{
color = 4;
glyphname = u;
lastChange = "2018-02-07 07:37:58 +0000";
layers = (
{
anchors = (
{
name = bottom;
position = "{274, 0}";
},
{
name = ogonek;
position = "{493, 10}";
},
{
name = top;
position = "{274, 509}";
},
{
name = topright;
position = "{528, 470}";
}
);
background = {
paths = (
{
closed = 1;
nodes = (
"337 -9 OFFCURVE",
"398 19 OFFCURVE",
"433 63 CURVE",
"435 59 LINE",
"430 53 OFFCURVE",
"421 43 OFFCURVE",
"415 38 CURVE",
"415 -9 LINE",
"451 -9 OFFCURVE",
"468 9 OFFCURVE",
"468 44 CURVE SMOOTH",
"468 509 LINE",
"433 509 OFFCURVE",
"415 491 OFFCURVE",
"415 455 CURVE SMOOTH",
"415 159 LINE SMOOTH",
"415 96 OFFCURVE",
"353 40 OFFCURVE",
"269 40 CURVE SMOOTH",
"185 40 OFFCURVE",
"124 96 OFFCURVE",
"124 159 CURVE SMOOTH",
"124 509 LINE",
"88 509 OFFCURVE",
"70 491 OFFCURVE",
"70 455 CURVE SMOOTH",
"70 159 LINE SMOOTH",
"70 66 OFFCURVE",
"159 -9 OFFCURVE",
"269 -9 CURVE SMOOTH"
);
}
);
};
layerId = "0B1DFD06-3317-40CA-B510-4969A0718C16";
paths = (
{
closed = 1;
nodes = (
"432 509 OFFCURVE",
"414 491 OFFCURVE",
"414 456 CURVE SMOOTH",
"414 160 LINE SMOOTH",
"414 96 OFFCURVE",
"336 40 OFFCURVE",
"256 40 CURVE SMOOTH",
"165 40 OFFCURVE",
"124 93 OFFCURVE",
"124 165 CURVE SMOOTH",
"124 509 LINE",
"88 509 OFFCURVE",
"70 491 OFFCURVE",
"70 456 CURVE SMOOTH",
"70 165 LINE SMOOTH",
"70 67 OFFCURVE",
"135 -9 OFFCURVE",
"253 -9 CURVE SMOOTH",
"328 -9 OFFCURVE",
"394 35 OFFCURVE",
"432 85 CURVE",
"434 80 LINE",
"429 74 OFFCURVE",
"422 65 OFFCURVE",
"416 59 CURVE",
"416 -9 LINE",
"452 -9 OFFCURVE",
"468 9 OFFCURVE",
"468 45 CURVE SMOOTH",
"468 509 LINE"
);
}
);
width = 548;
}
);
note = u;
unicode = 0075;
},
{
color = 4;
glyphname = v;
lastChange = "2018-02-05 09:42:39 +0000";
layers = (
{
anchors = (
{
name = bottom;
position = "{276, 0}";
},
{
name = top;
position = "{276, 509}";
}
);
layerId = "0B1DFD06-3317-40CA-B510-4969A0718C16";
paths = (
{
closed = 1;
nodes = (
"299 7 LINE SMOOTH",
"296 -1 OFFCURVE",
"286 -9 OFFCURVE",
"276 -9 CURVE SMOOTH",
"265 -9 OFFCURVE",
"255 -1 OFFCURVE",
"252 7 CURVE SMOOTH",
"50 504 LINE",
"57 507 OFFCURVE",
"64 509 OFFCURVE",
"72 509 CURVE SMOOTH",
"92 509 OFFCURVE",
"105 499 OFFCURVE",
"113 478 CURVE SMOOTH",
"273 76 LINE",
"261 42 LINE",
"264 40 LINE",
"438 478 LINE SMOOTH",
"446 499 OFFCURVE",
"459 509 OFFCURVE",
"479 509 CURVE SMOOTH",
"487 509 OFFCURVE",
"494 507 OFFCURVE",
"501 504 CURVE"
);
}
);
width = 551;
}
);
note = v;
unicode = 0076;
},
{
color = 4;
glyphname = w;
lastChange = "2018-02-05 09:42:39 +0000";
layers = (
{
anchors = (
{
name = bottom;
position = "{365, 0}";
},
{
name = top;
position = "{365, 509}";
}
);
layerId = "0B1DFD06-3317-40CA-B510-4969A0718C16";
paths = (
{
closed = 1;
nodes = (
"497 59 LINE",
"505 90 LINE",
"390 490 LINE SMOOTH",
"386 503 OFFCURVE",
"375 509 OFFCURVE",
"365 509 CURVE SMOOTH",
"354 509 OFFCURVE",
"344 503 OFFCURVE",
"340 490 CURVE SMOOTH",
"214 57 LINE",
"210 59 LINE",
"218 90 LINE",
"111 478 LINE SMOOTH",
"105 501 OFFCURVE",
"92 509 OFFCURVE",
"72 509 CURVE SMOOTH",
"64 509 OFFCURVE",
"57 507 OFFCURVE",
"50 504 CURVE",
"187 31 LINE SMOOTH",
"194 6 OFFCURVE",
"211 -9 OFFCURVE",
"237 -9 CURVE",
"362 419 LINE",
"354 449 LINE",
"357 450 LINE",
"492 -9 LINE",
"519 -9 OFFCURVE",
"535 6 OFFCURVE",
"542 31 CURVE SMOOTH",
"679 504 LINE",
"672 507 OFFCURVE",
"665 509 OFFCURVE",
"657 509 CURVE SMOOTH",
"637 509 OFFCURVE",
"624 501 OFFCURVE",
"618 478 CURVE SMOOTH",
"501 57 LINE"
);
}
);
width = 729;
}
);
note = w;
unicode = 0077;
},
{
color = 4;
glyphname = x;
lastChange = "2018-02-05 09:42:39 +0000";
layers = (
{
anchors = (
{
name = bottom;
position = "{271, 0}";
},
{
name = top;
position = "{271, 509}";
}
);
layerId = "0B1DFD06-3317-40CA-B510-4969A0718C16";
paths = (
{
closed = 1;
nodes = (
"62 -5 OFFCURVE",
"73 -9 OFFCURVE",
"83 -9 CURVE SMOOTH",
"96 -9 OFFCURVE",
"108 -2 OFFCURVE",
"118 13 CURVE SMOOTH",
"271 228 LINE",
"424 13 LINE SMOOTH",
"435 -2 OFFCURVE",
"448 -9 OFFCURVE",
"462 -9 CURVE SMOOTH",
"472 -9 OFFCURVE",
"482 -4 OFFCURVE",
"492 4 CURVE",
"302 267 LINE",
"469 497 LINE",
"458 505 OFFCURVE",
"447 509 OFFCURVE",
"437 509 CURVE SMOOTH",
"424 509 OFFCURVE",
"410 502 OFFCURVE",
"399 486 CURVE SMOOTH",
"271 305 LINE",
"143 486 LINE SMOOTH",
"132 501 OFFCURVE",
"119 509 OFFCURVE",
"106 509 CURVE SMOOTH",
"96 509 OFFCURVE",
"85 505 OFFCURVE",
"74 497 CURVE",
"240 267 LINE",
"50 4 LINE"
);
}
);
width = 542;
}
);
note = x;
unicode = 0078;
},
{
color = 4;
glyphname = y;
lastChange = "2018-02-05 09:42:39 +0000";
layers = (
{
anchors = (
{
name = bottom;
position = "{276, 0}";
},
{
name = top;
position = "{276, 509}";
}
);
layerId = "0B1DFD06-3317-40CA-B510-4969A0718C16";
paths = (
{
closed = 1;
nodes = (
"188 -208 OFFCURVE",
"236 -146 OFFCURVE",
"274 -53 CURVE SMOOTH",
"501 504 LINE",
"493 507 OFFCURVE",
"486 509 OFFCURVE",
"479 509 CURVE SMOOTH",
"457 509 OFFCURVE",
"445 496 OFFCURVE",
"438 478 CURVE SMOOTH",
"264 44 LINE",
"260 46 LINE",
"273 80 LINE",
"113 478 LINE SMOOTH",
"106 496 OFFCURVE",
"91 508 OFFCURVE",
"72 509 CURVE SMOOTH",
"65 509 OFFCURVE",
"58 507 OFFCURVE",
"50 504 CURVE",
"249 15 LINE",
"227 -38 LINE SMOOTH",
"192 -123 OFFCURVE",
"158 -167 OFFCURVE",
"87 -167 CURVE SMOOTH",
"74 -167 OFFCURVE",
"63 -166 OFFCURVE",
"51 -164 CURVE",
"54 -192 OFFCURVE",
"69 -208 OFFCURVE",
"99 -208 CURVE SMOOTH"
);
}
);
width = 551;
}
);
note = y;
unicode = 0079;
},
{
color = 4;
glyphname = z;
lastChange = "2018-02-05 09:42:39 +0000";
layers = (
{
anchors = (
{
name = bottom;
position = "{253, 0}";
},
{
name = top;
position = "{253, 509}";
}
);
layerId = "0B1DFD06-3317-40CA-B510-4969A0718C16";
paths = (
{
closed = 1;
nodes = (
"456 0 LINE",
"456 29 OFFCURVE",
"438 47 OFFCURVE",
"407 47 CURVE SMOOTH",
"126 47 LINE",
"109 27 LINE",
"105 29 LINE",
"445 457 LINE SMOOTH",
"459 475 OFFCURVE",
"450 500 OFFCURVE",
"425 500 CURVE SMOOTH",
"60 500 LINE",
"60 471 OFFCURVE",
"78 453 OFFCURVE",
"109 453 CURVE SMOOTH",
"377 453 LINE",
"396 476 LINE",
"399 474 LINE",
"56 42 LINE SMOOTH",
"42 24 OFFCURVE",
"56 0 OFFCURVE",
"77 0 CURVE SMOOTH"
);
}
);
width = 506;
}
);
note = z;
unicode = 007A;
},
{
color = 4;
glyphname = AE;
lastChange = "2018-02-20 09:01:26 +0000";
layers = (
{
anchors = (
{
name = bottom;
position = "{506, 0}";
},
{
name = ogonek;
position = "{635, 10}";
},
{
name = top;
position = "{503, 700}";
},
{
name = topleft;
position = "{721, 700}";
}
);
layerId = "0B1DFD06-3317-40CA-B510-4969A0718C16";
paths = (
{
closed = 1;
nodes = (
"51 37 OFFCURVE",
"67 3 OFFCURVE",
"98 -9 CURVE",
"202 218 LINE",
"403 218 LINE",
"403 29 LINE SMOOTH",
"403 13 OFFCURVE",
"415 0 OFFCURVE",
"433 0 CURVE SMOOTH",
"849 0 LINE",
"849 35 OFFCURVE",
"831 53 OFFCURVE",
"796 53 CURVE SMOOTH",
"462 53 LINE",
"462 326 LINE",
"655 326 LINE SMOOTH",
"691 326 OFFCURVE",
"709 344 OFFCURVE",
"709 379 CURVE",
"462 379 LINE",
"462 647 LINE",
"775 647 LINE SMOOTH",
"811 647 OFFCURVE",
"829 665 OFFCURVE",
"829 700 CURVE",
"389 700 LINE SMOOTH",
"375 700 OFFCURVE",
"367 694 OFFCURVE",
"361 682 CURVE SMOOTH",
"66 68 LINE SMOOTH"
);
},
{
closed = 1;
nodes = (
"403 653 LINE",
"403 272 LINE",
"222 272 LINE"
);
}
);
width = 909;
}
);
note = AE;
unicode = 00C6;
},
{
color = 4;
glyphname = Eth;
lastChange = "2018-02-20 09:01:26 +0000";
layers = (
{
components = (
{
name = D;
transform = "{1, 0, 0, 1, 57, 0}";
}
);
layerId = "0B1DFD06-3317-40CA-B510-4969A0718C16";
paths = (
{
closed = 1;
nodes = (
"318 310 LINE SMOOTH",
"353 310 OFFCURVE",
"368 328 OFFCURVE",
"368 363 CURVE",
"100 363 LINE SMOOTH",
"65 363 OFFCURVE",
"50 346 OFFCURVE",
"50 310 CURVE"
);
}
);
width = 759;
}
);
note = Eth;
unicode = 00D0;
},
{
color = 4;
glyphname = Dcroat;
lastChange = "2018-02-20 09:01:26 +0000";
layers = (
{
components = (
{
name = D;
transform = "{1, 0, 0, 1, 60, 0}";
}
);
layerId = "0B1DFD06-3317-40CA-B510-4969A0718C16";
paths = (
{
closed = 1;
nodes = (
"318 310 LINE SMOOTH",
"353 310 OFFCURVE",
"368 328 OFFCURVE",
"368 363 CURVE",
"100 363 LINE SMOOTH",
"65 363 OFFCURVE",
"50 346 OFFCURVE",
"50 310 CURVE"
);
}
);
width = 762;
}
);
note = Dcroat;
unicode = 0110;
},
{
color = 4;
glyphname = Eacute;
lastChange = "2018-02-20 09:01:26 +0000";
layers = (
{
background = {
paths = (
{
closed = 1;
nodes = (
"554 0 LINE",
"571 179 LINE",
"544 179 LINE",
"538 124 OFFCURVE",
"520 40 OFFCURVE",
"456 40 CURVE SMOOTH",
"201 40 LINE",
"201 659 LINE",
"441 659 LINE SMOOTH",
"516 659 OFFCURVE",
"525 567 OFFCURVE",
"528 527 CURVE",
"555 527 LINE",
"555 700 LINE",
"16 700 LINE",
"16 673 LINE",
"44 673 LINE SMOOTH",
"83 673 OFFCURVE",
"103 662 OFFCURVE",
"103 637 CURVE SMOOTH",
"103 62 LINE SMOOTH",
"103 37 OFFCURVE",
"83 26 OFFCURVE",
"44 26 CURVE SMOOTH",
"16 26 LINE",
"16 0 LINE"
);
},
{
closed = 1;
nodes = (
"455 251 LINE",
"455 485 LINE",
"431 485 LINE",
"427 436 OFFCURVE",
"424 388 OFFCURVE",
"379 388 CURVE SMOOTH",
"162 388 LINE",
"162 348 LINE",
"379 348 LINE SMOOTH",
"424 348 OFFCURVE",
"427 300 OFFCURVE",
"431 251 CURVE"
);
},
{
closed = 1;
nodes = (
"398 865 LINE SMOOTH",
"420 877 OFFCURVE",
"432 890 OFFCURVE",
"432 907 CURVE SMOOTH",
"432 922 OFFCURVE",
"420 937 OFFCURVE",
"398 937 CURVE SMOOTH",
"377 937 OFFCURVE",
"362 921 OFFCURVE",
"354 914 CURVE SMOOTH",
"239 807 LINE",
"256 782 LINE"
);
}
);
};
components = (
{
name = E;
},
{
name = acutecomb;
transform = "{1, 0, 0, 1, 232, 230}";
}
);
layerId = "0B1DFD06-3317-40CA-B510-4969A0718C16";
width = 621;
}
);
note = Eacute;
unicode = 00C9;
},
{
color = 4;
glyphname = Ebreve;
lastChange = "2018-02-20 09:01:26 +0000";
layers = (
{
background = {
paths = (
{
closed = 1;
nodes = (
"554 0 LINE",
"571 179 LINE",
"544 179 LINE",
"538 124 OFFCURVE",
"520 40 OFFCURVE",
"456 40 CURVE SMOOTH",
"201 40 LINE",
"201 659 LINE",
"441 659 LINE SMOOTH",
"516 659 OFFCURVE",
"525 567 OFFCURVE",
"528 527 CURVE",
"555 527 LINE",
"555 700 LINE",
"16 700 LINE",
"16 673 LINE",
"44 673 LINE SMOOTH",
"83 673 OFFCURVE",
"103 662 OFFCURVE",
"103 637 CURVE SMOOTH",
"103 62 LINE SMOOTH",
"103 37 OFFCURVE",
"83 26 OFFCURVE",
"44 26 CURVE SMOOTH",
"16 26 LINE",
"16 0 LINE"
);
},
{
closed = 1;
nodes = (
"455 251 LINE",
"455 485 LINE",
"431 485 LINE",
"427 436 OFFCURVE",
"424 388 OFFCURVE",
"379 388 CURVE SMOOTH",
"162 388 LINE",
"162 348 LINE",
"379 348 LINE SMOOTH",
"424 348 OFFCURVE",
"427 300 OFFCURVE",
"431 251 CURVE"
);
},
{
closed = 1;
nodes = (
"432 776 OFFCURVE",
"474 832 OFFCURVE",
"478 907 CURVE",
"445 907 LINE",
"439 848 OFFCURVE",
"397 822 OFFCURVE",
"333 822 CURVE SMOOTH",
"269 822 OFFCURVE",
"226 848 OFFCURVE",
"219 907 CURVE",
"186 907 LINE",
"190 829 OFFCURVE",
"232 776 OFFCURVE",
"333 776 CURVE SMOOTH"
);
}
);
};
components = (
{
name = E;
},
{
name = brevecomb;
transform = "{1, 0, 0, 1, 311, 230}";
}
);
layerId = "0B1DFD06-3317-40CA-B510-4969A0718C16";
width = 621;
}
);
note = Ebreve;
unicode = 0114;
},
{
color = 4;
glyphname = Ecaron;
lastChange = "2018-02-20 09:01:26 +0000";
layers = (
{
background = {
paths = (
{
closed = 1;
nodes = (
"554 0 LINE",
"571 179 LINE",
"544 179 LINE",
"538 124 OFFCURVE",
"520 40 OFFCURVE",
"456 40 CURVE SMOOTH",
"201 40 LINE",
"201 659 LINE",
"441 659 LINE SMOOTH",
"516 659 OFFCURVE",
"525 567 OFFCURVE",
"528 527 CURVE",
"555 527 LINE",
"555 700 LINE",
"16 700 LINE",
"16 673 LINE",
"44 673 LINE SMOOTH",
"83 673 OFFCURVE",
"103 662 OFFCURVE",
"103 637 CURVE SMOOTH",
"103 62 LINE SMOOTH",
"103 37 OFFCURVE",
"83 26 OFFCURVE",
"44 26 CURVE SMOOTH",
"16 26 LINE",
"16 0 LINE"
);
},
{
closed = 1;
nodes = (
"455 251 LINE",
"455 485 LINE",
"431 485 LINE",
"427 436 OFFCURVE",
"424 388 OFFCURVE",
"379 388 CURVE SMOOTH",
"162 388 LINE",
"162 348 LINE",
"379 348 LINE SMOOTH",
"424 348 OFFCURVE",
"427 300 OFFCURVE",
"431 251 CURVE"
);
},
{
closed = 1;
nodes = (
"357 782 LINE",
"481 911 LINE",
"462 932 LINE",
"354 847 LINE",
"346 840 OFFCURVE",
"337 836 OFFCURVE",
"331 836 CURVE SMOOTH",
"325 836 OFFCURVE",
"317 840 OFFCURVE",
"307 847 CURVE",
"199 932 LINE",
"180 911 LINE",
"304 782 LINE"
);
}
);
};
components = (
{
name = E;
},
{
name = caron;
transform = "{1, 0, 0, 1, 89, 230}";
}
);
layerId = "0B1DFD06-3317-40CA-B510-4969A0718C16";
width = 621;
}
);
note = Ecaron;
unicode = 011A;
},
{
color = 4;
glyphname = Ecircumflex;
lastChange = "2018-02-20 09:01:26 +0000";
layers = (
{
background = {
paths = (
{
closed = 1;
nodes = (
"554 0 LINE",
"571 179 LINE",
"544 179 LINE",
"538 124 OFFCURVE",
"520 40 OFFCURVE",
"456 40 CURVE SMOOTH",
"201 40 LINE",
"201 659 LINE",
"441 659 LINE SMOOTH",
"516 659 OFFCURVE",
"525 567 OFFCURVE",
"528 527 CURVE",
"555 527 LINE",
"555 700 LINE",
"16 700 LINE",
"16 673 LINE",
"44 673 LINE SMOOTH",
"83 673 OFFCURVE",
"103 662 OFFCURVE",
"103 637 CURVE SMOOTH",
"103 62 LINE SMOOTH",
"103 37 OFFCURVE",
"83 26 OFFCURVE",
"44 26 CURVE SMOOTH",
"16 26 LINE",
"16 0 LINE"
);
},
{
closed = 1;
nodes = (
"455 251 LINE",
"455 485 LINE",
"431 485 LINE",
"427 436 OFFCURVE",
"424 388 OFFCURVE",
"379 388 CURVE SMOOTH",
"162 388 LINE",
"162 348 LINE",
"379 348 LINE SMOOTH",
"424 348 OFFCURVE",
"427 300 OFFCURVE",
"431 251 CURVE"
);
},
{
closed = 1;
nodes = (
"304 868 LINE SMOOTH",
"312 874 OFFCURVE",
"322 879 OFFCURVE",
"328 879 CURVE SMOOTH",
"334 879 OFFCURVE",
"342 874 OFFCURVE",
"351 868 CURVE",
"459 782 LINE",
"478 803 LINE",
"354 932 LINE",
"301 932 LINE",
"177 803 LINE",
"196 782 LINE"
);
}
);
};
components = (
{
name = E;
},
{
name = circumflex;
transform = "{1, 0, 0, 1, 89, 230}";
}
);
layerId = "0B1DFD06-3317-40CA-B510-4969A0718C16";
width = 621;
}
);
note = Ecircumflex;
unicode = 00CA;
},
{
color = 4;
glyphname = Ecircumflexacute;
lastChange = "2018-02-20 09:01:26 +0000";
layers = (
{
background = {
paths = (
{
closed = 1;
nodes = (
"554 0 LINE",
"571 179 LINE",
"544 179 LINE",
"538 124 OFFCURVE",
"520 40 OFFCURVE",
"456 40 CURVE SMOOTH",
"201 40 LINE",
"201 659 LINE",
"441 659 LINE SMOOTH",
"516 659 OFFCURVE",
"525 567 OFFCURVE",
"528 527 CURVE",
"555 527 LINE",
"555 700 LINE",
"16 700 LINE",
"16 673 LINE",
"44 673 LINE SMOOTH",
"83 673 OFFCURVE",
"103 662 OFFCURVE",
"103 637 CURVE SMOOTH",
"103 62 LINE SMOOTH",
"103 37 OFFCURVE",
"83 26 OFFCURVE",
"44 26 CURVE SMOOTH",
"16 26 LINE",
"16 0 LINE"
);
},
{
closed = 1;
nodes = (
"455 251 LINE",
"455 485 LINE",
"431 485 LINE",
"427 436 OFFCURVE",
"424 388 OFFCURVE",
"379 388 CURVE SMOOTH",
"162 388 LINE",
"162 348 LINE",
"379 348 LINE SMOOTH",
"424 348 OFFCURVE",
"427 300 OFFCURVE",
"431 251 CURVE"
);
},
{
closed = 1;
nodes = (
"290 862 LINE SMOOTH",
"300 870 OFFCURVE",
"310 878 OFFCURVE",
"318 878 CURVE SMOOTH",
"324 878 OFFCURVE",
"332 873 OFFCURVE",
"341 867 CURVE",
"447 781 LINE",
"466 803 LINE",
"344 932 LINE",
"293 932 LINE",
"171 803 LINE",
"189 781 LINE"
);
},
{
closed = 1;
nodes = (
"555 960 LINE SMOOTH",
"578 972 OFFCURVE",
"591 988 OFFCURVE",
"591 1003 CURVE SMOOTH",
"591 1017 OFFCURVE",
"580 1034 OFFCURVE",
"557 1034 CURVE SMOOTH",
"538 1034 OFFCURVE",
"521 1018 OFFCURVE",
"511 1008 CURVE SMOOTH",
"415 915 LINE",
"433 893 LINE"
);
}
);
};
components = (
{
name = E;
},
{
name = circumflexacute;
transform = "{1, 0, 0, 1, 103, 230}";
}
);
layerId = "0B1DFD06-3317-40CA-B510-4969A0718C16";
width = 621;
}
);
note = Ecircumflexacute;
unicode = 1EBE;
},
{
color = 4;
glyphname = Ecircumflexdotbelow;
lastChange = "2018-02-20 09:01:26 +0000";
layers = (
{
background = {
paths = (
{
closed = 1;
nodes = (
"554 0 LINE",
"571 179 LINE",
"544 179 LINE",
"538 124 OFFCURVE",
"520 40 OFFCURVE",
"456 40 CURVE SMOOTH",
"201 40 LINE",
"201 659 LINE",
"441 659 LINE SMOOTH",
"516 659 OFFCURVE",
"525 567 OFFCURVE",
"528 527 CURVE",
"555 527 LINE",
"555 700 LINE",
"16 700 LINE",
"16 673 LINE",
"44 673 LINE SMOOTH",
"83 673 OFFCURVE",
"103 662 OFFCURVE",
"103 637 CURVE SMOOTH",
"103 62 LINE SMOOTH",
"103 37 OFFCURVE",
"83 26 OFFCURVE",
"44 26 CURVE SMOOTH",
"16 26 LINE",
"16 0 LINE"
);
},
{
closed = 1;
nodes = (
"350 -159 OFFCURVE",
"368 -140 OFFCURVE",
"368 -112 CURVE SMOOTH",
"368 -84 OFFCURVE",
"350 -64 OFFCURVE",
"322 -64 CURVE SMOOTH",
"294 -64 OFFCURVE",
"275 -84 OFFCURVE",
"275 -112 CURVE SMOOTH",
"275 -140 OFFCURVE",
"294 -159 OFFCURVE",
"322 -159 CURVE SMOOTH"
);
},
{
closed = 1;
nodes = (
"455 251 LINE",
"455 485 LINE",
"431 485 LINE",
"427 436 OFFCURVE",
"424 388 OFFCURVE",
"379 388 CURVE SMOOTH",
"162 388 LINE",
"162 348 LINE",
"379 348 LINE SMOOTH",
"424 348 OFFCURVE",
"427 300 OFFCURVE",
"431 251 CURVE"
);
},
{
closed = 1;
nodes = (
"294 868 LINE SMOOTH",
"302 874 OFFCURVE",
"312 879 OFFCURVE",
"318 879 CURVE SMOOTH",
"324 879 OFFCURVE",
"332 874 OFFCURVE",
"341 868 CURVE",
"449 782 LINE",
"468 803 LINE",
"344 932 LINE",
"291 932 LINE",
"167 803 LINE",
"186 782 LINE"
);
}
);
};
components = (
{
name = E;
},
{
name = dotbelowcomb;
transform = "{1, 0, 0, 1, 214, 0}";
},
{
name = circumflex;
transform = "{1, 0, 0, 1, 89, 230}";
}
);
layerId = "0B1DFD06-3317-40CA-B510-4969A0718C16";
width = 621;
}
);
note = Ecircumflexdotbelow;
unicode = 1EC6;
},
{
color = 4;
glyphname = Ecircumflexgrave;
lastChange = "2018-02-20 09:01:26 +0000";
layers = (
{
background = {
paths = (
{
closed = 1;
nodes = (
"554 0 LINE",
"571 179 LINE",
"544 179 LINE",
"538 124 OFFCURVE",
"520 40 OFFCURVE",
"456 40 CURVE SMOOTH",
"201 40 LINE",
"201 659 LINE",
"441 659 LINE SMOOTH",
"516 659 OFFCURVE",
"525 567 OFFCURVE",
"528 527 CURVE",
"555 527 LINE",
"555 700 LINE",
"16 700 LINE",
"16 673 LINE",
"44 673 LINE SMOOTH",
"83 673 OFFCURVE",
"103 662 OFFCURVE",
"103 637 CURVE SMOOTH",
"103 62 LINE SMOOTH",
"103 37 OFFCURVE",
"83 26 OFFCURVE",
"44 26 CURVE SMOOTH",
"16 26 LINE",
"16 0 LINE"
);
},
{
closed = 1;
nodes = (
"455 251 LINE",
"455 485 LINE",
"431 485 LINE",
"427 436 OFFCURVE",
"424 388 OFFCURVE",
"379 388 CURVE SMOOTH",
"162 388 LINE",
"162 348 LINE",
"379 348 LINE SMOOTH",
"424 348 OFFCURVE",
"427 300 OFFCURVE",
"431 251 CURVE"
);
},
{
closed = 1;
nodes = (
"227 915 LINE",
"132 1008 LINE SMOOTH",
"122 1018 OFFCURVE",
"105 1034 OFFCURVE",
"85 1034 CURVE SMOOTH",
"63 1034 OFFCURVE",
"52 1017 OFFCURVE",
"52 1003 CURVE SMOOTH",
"52 988 OFFCURVE",
"65 972 OFFCURVE",
"88 960 CURVE SMOOTH",
"210 893 LINE"
);
},
{
closed = 1;
nodes = (
"290 862 LINE SMOOTH",
"300 870 OFFCURVE",
"310 878 OFFCURVE",
"318 878 CURVE SMOOTH",
"324 878 OFFCURVE",
"332 873 OFFCURVE",
"341 867 CURVE",
"447 781 LINE",
"466 803 LINE",
"344 932 LINE",
"293 932 LINE",
"171 803 LINE",
"189 781 LINE"
);
}
);
};
components = (
{
name = E;
},
{
name = circumflexgrave;
transform = "{1, 0, 0, 1, 103, 230}";
}
);
layerId = "0B1DFD06-3317-40CA-B510-4969A0718C16";
width = 621;
}
);
note = Ecircumflexgrave;
unicode = 1EC0;
},
{
color = 4;
glyphname = Ecircumflexhookabove;
lastChange = "2018-02-20 09:01:26 +0000";
layers = (
{
background = {
paths = (
{
closed = 1;
nodes = (
"554 0 LINE",
"571 179 LINE",
"544 179 LINE",
"538 124 OFFCURVE",
"520 40 OFFCURVE",
"456 40 CURVE SMOOTH",
"201 40 LINE",
"201 659 LINE",
"441 659 LINE SMOOTH",
"516 659 OFFCURVE",
"525 567 OFFCURVE",
"528 527 CURVE",
"555 527 LINE",
"555 700 LINE",
"16 700 LINE",
"16 673 LINE",
"44 673 LINE SMOOTH",
"83 673 OFFCURVE",
"103 662 OFFCURVE",
"103 637 CURVE SMOOTH",
"103 62 LINE SMOOTH",
"103 37 OFFCURVE",
"83 26 OFFCURVE",
"44 26 CURVE SMOOTH",
"16 26 LINE",
"16 0 LINE"
);
},
{
closed = 1;
nodes = (
"455 251 LINE",
"455 485 LINE",
"431 485 LINE",
"427 436 OFFCURVE",
"424 388 OFFCURVE",
"379 388 CURVE SMOOTH",
"162 388 LINE",
"162 348 LINE",
"379 348 LINE SMOOTH",
"424 348 OFFCURVE",
"427 300 OFFCURVE",
"431 251 CURVE"
);
},
{
closed = 1;
nodes = (
"286 858 LINE",
"297 868 OFFCURVE",
"309 878 OFFCURVE",
"318 878 CURVE SMOOTH",
"324 878 OFFCURVE",
"332 873 OFFCURVE",
"341 867 CURVE",
"447 781 LINE",
"466 803 LINE",
"344 932 LINE",
"293 932 LINE",
"171 803 LINE",
"189 781 LINE"
);
},
{
closed = 1;
nodes = (
"493 898 LINE",
"474 905 OFFCURVE",
"464 912 OFFCURVE",
"464 926 CURVE SMOOTH",
"464 954 OFFCURVE",
"544 965 OFFCURVE",
"544 1010 CURVE SMOOTH",
"544 1047 OFFCURVE",
"502 1063 OFFCURVE",
"460 1063 CURVE SMOOTH",
"429 1063 OFFCURVE",
"384 1053 OFFCURVE",
"384 1022 CURVE SMOOTH",
"384 1010 OFFCURVE",
"395 1001 OFFCURVE",
"405 1001 CURVE SMOOTH",
"434 1001 OFFCURVE",
"421 1040 OFFCURVE",
"464 1040 CURVE SMOOTH",
"483 1040 OFFCURVE",
"494 1028 OFFCURVE",
"494 1013 CURVE SMOOTH",
"494 973 OFFCURVE",
"421 965 OFFCURVE",
"421 925 CURVE SMOOTH",
"421 901 OFFCURVE",
"437 880 OFFCURVE",
"484 880 CURVE"
);
}
);
};
components = (
{
name = E;
},
{
name = circumflexhookabove;
transform = "{1, 0, 0, 1, 103, 230}";
}
);
layerId = "0B1DFD06-3317-40CA-B510-4969A0718C16";
width = 621;
}
);
note = Ecircumflexhookabove;
unicode = 1EC2;
},
{
color = 4;
glyphname = Ecircumflextilde;
lastChange = "2018-02-20 09:01:26 +0000";
layers = (
{
background = {
paths = (
{
closed = 1;
nodes = (
"554 0 LINE",
"571 179 LINE",
"544 179 LINE",
"538 124 OFFCURVE",
"520 40 OFFCURVE",
"456 40 CURVE SMOOTH",
"201 40 LINE",
"201 659 LINE",
"441 659 LINE SMOOTH",
"516 659 OFFCURVE",
"525 567 OFFCURVE",
"528 527 CURVE",
"555 527 LINE",
"555 700 LINE",
"16 700 LINE",
"16 673 LINE",
"44 673 LINE SMOOTH",
"83 673 OFFCURVE",
"103 662 OFFCURVE",
"103 637 CURVE SMOOTH",
"103 62 LINE SMOOTH",
"103 37 OFFCURVE",
"83 26 OFFCURVE",
"44 26 CURVE SMOOTH",
"16 26 LINE",
"16 0 LINE"
);
},
{
closed = 1;
nodes = (
"455 251 LINE",
"455 485 LINE",
"431 485 LINE",
"427 436 OFFCURVE",
"424 388 OFFCURVE",
"379 388 CURVE SMOOTH",
"162 388 LINE",
"162 348 LINE",
"379 348 LINE SMOOTH",
"424 348 OFFCURVE",
"427 300 OFFCURVE",
"431 251 CURVE"
);
},
{
closed = 1;
nodes = (
"290 862 LINE SMOOTH",
"300 870 OFFCURVE",
"310 878 OFFCURVE",
"318 878 CURVE SMOOTH",
"324 878 OFFCURVE",
"332 873 OFFCURVE",
"341 867 CURVE",
"447 781 LINE",
"466 803 LINE",
"344 932 LINE",
"293 932 LINE",
"171 803 LINE",
"189 781 LINE"
);
},
{
closed = 1;
nodes = (
"193 997 OFFCURVE",
"211 1018 OFFCURVE",
"242 1018 CURVE SMOOTH",
"291 1018 OFFCURVE",
"338 964 OFFCURVE",
"387 964 CURVE SMOOTH",
"440 964 OFFCURVE",
"469 1012 OFFCURVE",
"481 1063 CURVE",
"460 1075 LINE",
"447 1035 OFFCURVE",
"431 1012 OFFCURVE",
"398 1012 CURVE SMOOTH",
"351 1012 OFFCURVE",
"302 1065 OFFCURVE",
"253 1065 CURVE SMOOTH",
"202 1065 OFFCURVE",
"170 1021 OFFCURVE",
"160 970 CURVE",
"180 958 LINE"
);
}
);
};
components = (
{
name = E;
},
{
name = circumflextilde;
transform = "{1, 0, 0, 1, 103, 230}";
}
);
layerId = "0B1DFD06-3317-40CA-B510-4969A0718C16";
width = 621;
}
);
note = Ecircumflextilde;
unicode = 1EC4;
},
{
color = 4;
glyphname = Edieresis;
lastChange = "2018-02-20 09:01:26 +0000";
layers = (
{
background = {
paths = (
{
closed = 1;
nodes = (
"554 0 LINE",
"571 179 LINE",
"544 179 LINE",
"538 124 OFFCURVE",
"520 40 OFFCURVE",
"456 40 CURVE SMOOTH",
"201 40 LINE",
"201 659 LINE",
"441 659 LINE SMOOTH",
"516 659 OFFCURVE",
"525 567 OFFCURVE",
"528 527 CURVE",
"555 527 LINE",
"555 700 LINE",
"16 700 LINE",
"16 673 LINE",
"44 673 LINE SMOOTH",
"83 673 OFFCURVE",
"103 662 OFFCURVE",
"103 637 CURVE SMOOTH",
"103 62 LINE SMOOTH",
"103 37 OFFCURVE",
"83 26 OFFCURVE",
"44 26 CURVE SMOOTH",
"16 26 LINE",
"16 0 LINE"
);
},
{
closed = 1;
nodes = (
"455 251 LINE",
"455 485 LINE",
"431 485 LINE",
"427 436 OFFCURVE",
"424 388 OFFCURVE",
"379 388 CURVE SMOOTH",
"162 388 LINE",
"162 348 LINE",
"379 348 LINE SMOOTH",
"424 348 OFFCURVE",
"427 300 OFFCURVE",
"431 251 CURVE"
);
},
{
closed = 1;
nodes = (
"254 781 OFFCURVE",
"272 800 OFFCURVE",
"272 827 CURVE SMOOTH",
"272 855 OFFCURVE",
"254 875 OFFCURVE",
"225 875 CURVE SMOOTH",
"197 875 OFFCURVE",
"179 855 OFFCURVE",
"179 827 CURVE SMOOTH",
"179 800 OFFCURVE",
"197 781 OFFCURVE",
"225 781 CURVE SMOOTH"
);
},
{
closed = 1;
nodes = (
"470 781 OFFCURVE",
"488 800 OFFCURVE",
"488 827 CURVE SMOOTH",
"488 855 OFFCURVE",
"470 875 OFFCURVE",
"441 875 CURVE SMOOTH",
"412 875 OFFCURVE",
"394 855 OFFCURVE",
"394 827 CURVE SMOOTH",
"394 800 OFFCURVE",
"412 781 OFFCURVE",
"441 781 CURVE SMOOTH"
);
}
);
};
components = (
{
name = E;
},
{
name = dieresiscomb;
transform = "{1, 0, 0, 1, 312, 230}";
}
);
layerId = "0B1DFD06-3317-40CA-B510-4969A0718C16";
width = 621;
}
);
note = Edieresis;
unicode = 00CB;
},
{
color = 4;
glyphname = Edotaccent;
lastChange = "2018-02-20 09:01:26 +0000";
layers = (
{
background = {
paths = (
{
closed = 1;
nodes = (
"554 0 LINE",
"571 179 LINE",
"544 179 LINE",
"538 124 OFFCURVE",
"520 40 OFFCURVE",
"456 40 CURVE SMOOTH",
"201 40 LINE",
"201 659 LINE",
"441 659 LINE SMOOTH",
"516 659 OFFCURVE",
"525 567 OFFCURVE",
"528 527 CURVE",
"555 527 LINE",
"555 700 LINE",
"16 700 LINE",
"16 673 LINE",
"44 673 LINE SMOOTH",
"83 673 OFFCURVE",
"103 662 OFFCURVE",
"103 637 CURVE SMOOTH",
"103 62 LINE SMOOTH",
"103 37 OFFCURVE",
"83 26 OFFCURVE",
"44 26 CURVE SMOOTH",
"16 26 LINE",
"16 0 LINE"
);
},
{
closed = 1;
nodes = (
"455 251 LINE",
"455 485 LINE",
"431 485 LINE",
"427 436 OFFCURVE",
"424 388 OFFCURVE",
"379 388 CURVE SMOOTH",
"162 388 LINE",
"162 348 LINE",
"379 348 LINE SMOOTH",
"424 348 OFFCURVE",
"427 300 OFFCURVE",
"431 251 CURVE"
);
},
{
closed = 1;
nodes = (
"362 765 OFFCURVE",
"380 784 OFFCURVE",
"380 811 CURVE SMOOTH",
"380 839 OFFCURVE",
"362 858 OFFCURVE",
"334 858 CURVE SMOOTH",
"305 858 OFFCURVE",
"287 839 OFFCURVE",
"287 811 CURVE SMOOTH",
"287 784 OFFCURVE",
"305 765 OFFCURVE",
"334 765 CURVE SMOOTH"
);
}
);
};
components = (
{
name = E;
},
{
name = dotaccentcomb;
transform = "{1, 0, 0, 1, 312, 230}";
}
);
layerId = "0B1DFD06-3317-40CA-B510-4969A0718C16";
width = 621;
}
);
note = Edotaccent;
unicode = 0116;
},
{
color = 4;
glyphname = Edotbelow;
lastChange = "2018-02-20 09:01:26 +0000";
layers = (
{
background = {
paths = (
{
closed = 1;
nodes = (
"554 0 LINE",
"571 179 LINE",
"544 179 LINE",
"538 124 OFFCURVE",
"520 40 OFFCURVE",
"456 40 CURVE SMOOTH",
"201 40 LINE",
"201 659 LINE",
"441 659 LINE SMOOTH",
"516 659 OFFCURVE",
"525 567 OFFCURVE",
"528 527 CURVE",
"555 527 LINE",
"555 700 LINE",
"16 700 LINE",
"16 673 LINE",
"44 673 LINE SMOOTH",
"83 673 OFFCURVE",
"103 662 OFFCURVE",
"103 637 CURVE SMOOTH",
"103 62 LINE SMOOTH",
"103 37 OFFCURVE",
"83 26 OFFCURVE",
"44 26 CURVE SMOOTH",
"16 26 LINE",
"16 0 LINE"
);
},
{
closed = 1;
nodes = (
"343 -159 OFFCURVE",
"361 -140 OFFCURVE",
"361 -112 CURVE SMOOTH",
"361 -84 OFFCURVE",
"343 -64 OFFCURVE",
"315 -64 CURVE SMOOTH",
"287 -64 OFFCURVE",
"268 -84 OFFCURVE",
"268 -112 CURVE SMOOTH",
"268 -140 OFFCURVE",
"287 -159 OFFCURVE",
"315 -159 CURVE SMOOTH"
);
},
{
closed = 1;
nodes = (
"455 251 LINE",
"455 485 LINE",
"431 485 LINE",
"427 436 OFFCURVE",
"424 388 OFFCURVE",
"379 388 CURVE SMOOTH",
"162 388 LINE",
"162 348 LINE",
"379 348 LINE SMOOTH",
"424 348 OFFCURVE",
"427 300 OFFCURVE",
"431 251 CURVE"
);
}
);
};
components = (
{
name = E;
},
{
name = dotbelowcomb;
transform = "{1, 0, 0, 1, 214, 0}";
}
);
layerId = "0B1DFD06-3317-40CA-B510-4969A0718C16";
width = 621;
}
);
note = Edotbelow;
unicode = 1EB8;
},
{
color = 4;
glyphname = Egrave;
lastChange = "2018-02-20 09:01:26 +0000";
layers = (
{
background = {
paths = (
{
closed = 1;
nodes = (
"554 0 LINE",
"571 179 LINE",
"544 179 LINE",
"538 124 OFFCURVE",
"520 40 OFFCURVE",
"456 40 CURVE SMOOTH",
"201 40 LINE",
"201 659 LINE",
"441 659 LINE SMOOTH",
"516 659 OFFCURVE",
"525 567 OFFCURVE",
"528 527 CURVE",
"555 527 LINE",
"555 700 LINE",
"16 700 LINE",
"16 673 LINE",
"44 673 LINE SMOOTH",
"83 673 OFFCURVE",
"103 662 OFFCURVE",
"103 637 CURVE SMOOTH",
"103 62 LINE SMOOTH",
"103 37 OFFCURVE",
"83 26 OFFCURVE",
"44 26 CURVE SMOOTH",
"16 26 LINE",
"16 0 LINE"
);
},
{
closed = 1;
nodes = (
"455 251 LINE",
"455 485 LINE",
"431 485 LINE",
"427 436 OFFCURVE",
"424 388 OFFCURVE",
"379 388 CURVE SMOOTH",
"162 388 LINE",
"162 348 LINE",
"379 348 LINE SMOOTH",
"424 348 OFFCURVE",
"427 300 OFFCURVE",
"431 251 CURVE"
);
},
{
closed = 1;
nodes = (
"425 807 LINE",
"310 913 LINE",
"301 922 OFFCURVE",
"285 937 OFFCURVE",
"265 937 CURVE SMOOTH",
"245 937 OFFCURVE",
"233 924 OFFCURVE",
"233 908 CURVE SMOOTH",
"233 890 OFFCURVE",
"245 876 OFFCURVE",
"264 865 CURVE SMOOTH",
"407 782 LINE"
);
}
);
};
components = (
{
name = E;
},
{
name = gravecomb;
transform = "{1, 0, 0, 1, 123, 230}";
}
);
layerId = "0B1DFD06-3317-40CA-B510-4969A0718C16";
width = 621;
}
);
note = Egrave;
unicode = 00C8;
},
{
color = 4;
glyphname = Ehookabove;
lastChange = "2018-02-20 09:01:26 +0000";
layers = (
{
background = {
paths = (
{
closed = 1;
nodes = (
"554 0 LINE",
"571 179 LINE",
"544 179 LINE",
"538 124 OFFCURVE",
"520 40 OFFCURVE",
"456 40 CURVE SMOOTH",
"201 40 LINE",
"201 659 LINE",
"441 659 LINE SMOOTH",
"516 659 OFFCURVE",
"525 567 OFFCURVE",
"528 527 CURVE",
"555 527 LINE",
"555 700 LINE",
"16 700 LINE",
"16 673 LINE",
"44 673 LINE SMOOTH",
"83 673 OFFCURVE",
"103 662 OFFCURVE",
"103 637 CURVE SMOOTH",
"103 62 LINE SMOOTH",
"103 37 OFFCURVE",
"83 26 OFFCURVE",
"44 26 CURVE SMOOTH",
"16 26 LINE",
"16 0 LINE"
);
},
{
closed = 1;
nodes = (
"455 251 LINE",
"455 485 LINE",
"431 485 LINE",
"427 436 OFFCURVE",
"424 388 OFFCURVE",
"379 388 CURVE SMOOTH",
"162 388 LINE",
"162 348 LINE",
"379 348 LINE SMOOTH",
"424 348 OFFCURVE",
"427 300 OFFCURVE",
"431 251 CURVE"
);
},
{
closed = 1;
nodes = (
"367 798 LINE",
"348 805 OFFCURVE",
"336 811 OFFCURVE",
"336 828 CURVE SMOOTH",
"336 861 OFFCURVE",
"425 876 OFFCURVE",
"425 927 CURVE SMOOTH",
"425 969 OFFCURVE",
"389 991 OFFCURVE",
"336 991 CURVE SMOOTH",
"289 991 OFFCURVE",
"248 974 OFFCURVE",
"248 940 CURVE SMOOTH",
"248 923 OFFCURVE",
"256 915 OFFCURVE",
"271 915 CURVE SMOOTH",
"294 915 OFFCURVE",
"296 934 OFFCURVE",
"299 942 CURVE SMOOTH",
"304 956 OFFCURVE",
"321 962 OFFCURVE",
"337 962 CURVE SMOOTH",
"358 962 OFFCURVE",
"371 947 OFFCURVE",
"371 930 CURVE SMOOTH",
"371 885 OFFCURVE",
"289 874 OFFCURVE",
"289 828 CURVE SMOOTH",
"289 801 OFFCURVE",
"307 778 OFFCURVE",
"358 778 CURVE"
);
}
);
};
components = (
{
name = E;
},
{
name = hookabovecomb;
transform = "{1, 0, 0, 1, 195, 230}";
}
);
layerId = "0B1DFD06-3317-40CA-B510-4969A0718C16";
width = 621;
}
);
note = Ehookabove;
unicode = 1EBA;
},
{
color = 4;
glyphname = Emacron;
lastChange = "2018-02-20 09:01:26 +0000";
layers = (
{
background = {
paths = (
{
closed = 1;
nodes = (
"554 0 LINE",
"571 179 LINE",
"544 179 LINE",
"538 124 OFFCURVE",
"520 40 OFFCURVE",
"456 40 CURVE SMOOTH",
"201 40 LINE",
"201 659 LINE",
"441 659 LINE SMOOTH",
"516 659 OFFCURVE",
"525 567 OFFCURVE",
"528 527 CURVE",
"555 527 LINE",
"555 700 LINE",
"16 700 LINE",
"16 673 LINE",
"44 673 LINE SMOOTH",
"83 673 OFFCURVE",
"103 662 OFFCURVE",
"103 637 CURVE SMOOTH",
"103 62 LINE SMOOTH",
"103 37 OFFCURVE",
"83 26 OFFCURVE",
"44 26 CURVE SMOOTH",
"16 26 LINE",
"16 0 LINE"
);
},
{
closed = 1;
nodes = (
"455 251 LINE",
"455 485 LINE",
"431 485 LINE",
"427 436 OFFCURVE",
"424 388 OFFCURVE",
"379 388 CURVE SMOOTH",
"162 388 LINE",
"162 348 LINE",
"379 348 LINE SMOOTH",
"424 348 OFFCURVE",
"427 300 OFFCURVE",
"431 251 CURVE"
);
},
{
closed = 1;
nodes = (
"495 782 LINE",
"495 824 LINE",
"162 824 LINE",
"162 782 LINE"
);
}
);
};
components = (
{
name = E;
},
{
name = macron;
transform = "{1, 0, 0, 1, 150, 230}";
}
);
layerId = "0B1DFD06-3317-40CA-B510-4969A0718C16";
width = 621;
}
);
note = Emacron;
unicode = 0112;
},
{
color = 4;
glyphname = Eogonek;
lastChange = "2018-02-20 09:01:26 +0000";
layers = (
{
background = {
paths = (
{
closed = 1;
nodes = (
"554 0 LINE",
"571 179 LINE",
"544 179 LINE",
"538 124 OFFCURVE",
"520 40 OFFCURVE",
"456 40 CURVE SMOOTH",
"201 40 LINE",
"201 659 LINE",
"441 659 LINE SMOOTH",
"516 659 OFFCURVE",
"525 567 OFFCURVE",
"528 527 CURVE",
"555 527 LINE",
"555 700 LINE",
"16 700 LINE",
"16 673 LINE",
"44 673 LINE SMOOTH",
"83 673 OFFCURVE",
"103 662 OFFCURVE",
"103 637 CURVE SMOOTH",
"103 62 LINE SMOOTH",
"103 37 OFFCURVE",
"83 26 OFFCURVE",
"44 26 CURVE SMOOTH",
"16 26 LINE",
"16 0 LINE"
);
},
{
closed = 1;
nodes = (
"496 -196 OFFCURVE",
"524 -189 OFFCURVE",
"549 -172 CURVE",
"543 -152 LINE",
"527 -158 OFFCURVE",
"510 -162 OFFCURVE",
"497 -162 CURVE SMOOTH",
"464 -162 OFFCURVE",
"437 -146 OFFCURVE",
"437 -106 CURVE SMOOTH",
"437 -66 OFFCURVE",
"464 -26 OFFCURVE",
"510 4 CURVE",
"469 4 LINE",
"416 -22 OFFCURVE",
"376 -64 OFFCURVE",
"376 -114 CURVE SMOOTH",
"376 -147 OFFCURVE",
"395 -196 OFFCURVE",
"470 -196 CURVE SMOOTH"
);
},
{
closed = 1;
nodes = (
"455 251 LINE",
"455 485 LINE",
"431 485 LINE",
"427 436 OFFCURVE",
"424 388 OFFCURVE",
"379 388 CURVE SMOOTH",
"162 388 LINE",
"162 348 LINE",
"379 348 LINE SMOOTH",
"424 348 OFFCURVE",
"427 300 OFFCURVE",
"431 251 CURVE"
);
}
);
};
components = (
{
name = E;
},
{
name = ogonek;
transform = "{1, 0, 0, 1, 256, 0}";
}
);
layerId = "0B1DFD06-3317-40CA-B510-4969A0718C16";
width = 607;
}
);
note = Eogonek;
unicode = 0118;
},
{
color = 4;
glyphname = Etilde;
lastChange = "2018-02-20 09:01:26 +0000";
layers = (
{
background = {
paths = (
{
closed = 1;
nodes = (
"554 0 LINE",
"571 179 LINE",
"544 179 LINE",
"538 124 OFFCURVE",
"520 40 OFFCURVE",
"456 40 CURVE SMOOTH",
"201 40 LINE",
"201 659 LINE",
"441 659 LINE SMOOTH",
"516 659 OFFCURVE",
"525 567 OFFCURVE",
"528 527 CURVE",
"555 527 LINE",
"555 700 LINE",
"16 700 LINE",
"16 673 LINE",
"44 673 LINE SMOOTH",
"83 673 OFFCURVE",
"103 662 OFFCURVE",
"103 637 CURVE SMOOTH",
"103 62 LINE SMOOTH",
"103 37 OFFCURVE",
"83 26 OFFCURVE",
"44 26 CURVE SMOOTH",
"16 26 LINE",
"16 0 LINE"
);
},
{
closed = 1;
nodes = (
"455 251 LINE",
"455 485 LINE",
"431 485 LINE",
"427 436 OFFCURVE",
"424 388 OFFCURVE",
"379 388 CURVE SMOOTH",
"162 388 LINE",
"162 348 LINE",
"379 348 LINE SMOOTH",
"424 348 OFFCURVE",
"427 300 OFFCURVE",
"431 251 CURVE"
);
},
{
closed = 1;
nodes = (
"190 817 OFFCURVE",
"208 838 OFFCURVE",
"241 838 CURVE SMOOTH",
"292 838 OFFCURVE",
"341 784 OFFCURVE",
"392 784 CURVE SMOOTH",
"450 784 OFFCURVE",
"480 832 OFFCURVE",
"492 884 CURVE",
"471 895 LINE",
"455 855 OFFCURVE",
"439 833 OFFCURVE",
"405 833 CURVE SMOOTH",
"356 833 OFFCURVE",
"304 886 OFFCURVE",
"253 886 CURVE SMOOTH",
"199 886 OFFCURVE",
"166 842 OFFCURVE",
"154 790 CURVE",
"176 779 LINE"
);
}
);
};
components = (
{
name = E;
},
{
name = tildecomb;
transform = "{1, 0, 0, 1, 139, 191}";
}
);
layerId = "0B1DFD06-3317-40CA-B510-4969A0718C16";
width = 621;
}
);
note = Etilde;
unicode = 1EBC;
},
{
color = 4;
glyphname = Hbar;
lastChange = "2018-02-20 09:01:26 +0000";
layers = (
{
components = (
{
name = H;
}
);
layerId = "0B1DFD06-3317-40CA-B510-4969A0718C16";
paths = (
{
closed = 1;
nodes = (
"634 502 LINE SMOOTH",
"669 502 OFFCURVE",
"684 516 OFFCURVE",
"684 551 CURVE",
"50 551 LINE SMOOTH",
"15 551 OFFCURVE",
"0 538 OFFCURVE",
"0 502 CURVE"
);
}
);
width = 773;
}
);
note = Hbar;
unicode = 0126;
},
{
color = 4;
glyphname = IJ;
lastChange = "2018-02-20 09:01:26 +0000";
layers = (
{
layerId = "0B1DFD06-3317-40CA-B510-4969A0718C16";
paths = (
{
closed = 1;
nodes = (
"119 -9 OFFCURVE",
"139 12 OFFCURVE",
"139 50 CURVE SMOOTH",
"139 709 LINE",
"101 709 OFFCURVE",
"80 688 OFFCURVE",
"80 650 CURVE SMOOTH",
"80 -9 LINE"
);
},
{
closed = 1;
nodes = (
"582 -9 OFFCURVE",
"670 89 OFFCURVE",
"670 221 CURVE SMOOTH",
"670 671 LINE SMOOTH",
"670 688 OFFCURVE",
"658 700 OFFCURVE",
"642 700 CURVE SMOOTH",
"419 700 LINE",
"419 665 OFFCURVE",
"437 647 OFFCURVE",
"472 647 CURVE SMOOTH",
"611 647 LINE",
"611 221 LINE SMOOTH",
"611 115 OFFCURVE",
"557 46 OFFCURVE",
"439 46 CURVE SMOOTH",
"324 46 OFFCURVE",
"269 117 OFFCURVE",
"269 221 CURVE SMOOTH",
"269 230 OFFCURVE",
"270 240 OFFCURVE",
"272 251 CURVE",
"244 251 OFFCURVE",
"212 237 OFFCURVE",
"212 202 CURVE SMOOTH",
"212 86 OFFCURVE",
"300 -9 OFFCURVE",
"439 -9 CURVE SMOOTH"
);
}
);
width = 745;
}
);
note = IJ;
rightKerningGroup = J;
unicode = 0132;
},
{
color = 4;
glyphname = Lslash;
lastChange = "2018-02-20 09:01:26 +0000";
layers = (
{
components = (
{
name = L;
}
);
layerId = "0B1DFD06-3317-40CA-B510-4969A0718C16";
paths = (
{
closed = 1;
nodes = (
"253 403 LINE SMOOTH",
"280 421 OFFCURVE",
"284 443 OFFCURVE",
"267 471 CURVE",
"25 312 LINE SMOOTH",
"-1 295 OFFCURVE",
"-7 273 OFFCURVE",
"10 245 CURVE"
);
}
);
width = 611;
}
);
note = Lslash;
unicode = 0141;
},
{
color = 4;
glyphname = Nacute;
lastChange = "2018-02-20 09:01:26 +0000";
layers = (
{
background = {
paths = (
{
closed = 1;
nodes = (
"247 0 LINE",
"247 26 LINE",
"217 26 LINE SMOOTH",
"179 26 OFFCURVE",
"159 37 OFFCURVE",
"159 62 CURVE SMOOTH",
"159 642 LINE",
"587 0 LINE",
"645 0 LINE",
"645 637 LINE SMOOTH",
"645 662 OFFCURVE",
"665 673 OFFCURVE",
"703 673 CURVE SMOOTH",
"733 673 LINE",
"733 700 LINE",
"508 700 LINE",
"508 673 LINE",
"537 673 LINE SMOOTH",
"576 673 OFFCURVE",
"595 662 OFFCURVE",
"595 637 CURVE SMOOTH",
"595 126 LINE",
"217 700 LINE",
"22 700 LINE",
"22 673 LINE",
"51 673 LINE SMOOTH",
"90 673 OFFCURVE",
"109 662 OFFCURVE",
"109 637 CURVE SMOOTH",
"109 62 LINE SMOOTH",
"109 37 OFFCURVE",
"90 26 OFFCURVE",
"51 26 CURVE SMOOTH",
"22 26 LINE",
"22 0 LINE"
);
},
{
closed = 1;
nodes = (
"458 865 LINE SMOOTH",
"480 877 OFFCURVE",
"492 890 OFFCURVE",
"492 907 CURVE SMOOTH",
"492 922 OFFCURVE",
"480 937 OFFCURVE",
"458 937 CURVE SMOOTH",
"437 937 OFFCURVE",
"422 921 OFFCURVE",
"414 914 CURVE SMOOTH",
"299 807 LINE",
"316 782 LINE"
);
}
);
};
components = (
{
name = N;
},
{
name = acutecomb;
transform = "{1, 0, 0, 1, 270, 230}";
}
);
layerId = "0B1DFD06-3317-40CA-B510-4969A0718C16";
width = 697;
}
);
note = Nacute;
unicode = 0143;
},
{
color = 4;
glyphname = Ncaron;
lastChange = "2018-02-20 09:01:26 +0000";
layers = (
{
background = {
paths = (
{
closed = 1;
nodes = (
"247 0 LINE",
"247 26 LINE",
"217 26 LINE SMOOTH",
"179 26 OFFCURVE",
"159 37 OFFCURVE",
"159 62 CURVE SMOOTH",
"159 642 LINE",
"587 0 LINE",
"645 0 LINE",
"645 637 LINE SMOOTH",
"645 662 OFFCURVE",
"665 673 OFFCURVE",
"703 673 CURVE SMOOTH",
"733 673 LINE",
"733 700 LINE",
"508 700 LINE",
"508 673 LINE",
"537 673 LINE SMOOTH",
"576 673 OFFCURVE",
"595 662 OFFCURVE",
"595 637 CURVE SMOOTH",
"595 126 LINE",
"217 700 LINE",
"22 700 LINE",
"22 673 LINE",
"51 673 LINE SMOOTH",
"90 673 OFFCURVE",
"109 662 OFFCURVE",
"109 637 CURVE SMOOTH",
"109 62 LINE SMOOTH",
"109 37 OFFCURVE",
"90 26 OFFCURVE",
"51 26 CURVE SMOOTH",
"22 26 LINE",
"22 0 LINE"
);
},
{
closed = 1;
nodes = (
"403 782 LINE",
"527 911 LINE",
"508 932 LINE",
"400 847 LINE",
"392 840 OFFCURVE",
"383 836 OFFCURVE",
"377 836 CURVE SMOOTH",
"371 836 OFFCURVE",
"363 840 OFFCURVE",
"353 847 CURVE",
"245 932 LINE",
"226 911 LINE",
"350 782 LINE"
);
}
);
};
components = (
{
name = N;
},
{
name = caron;
transform = "{1, 0, 0, 1, 127, 230}";
}
);
layerId = "0B1DFD06-3317-40CA-B510-4969A0718C16";
width = 697;
}
);
note = Ncaron;
unicode = 0147;
},
{
color = 4;
glyphname = Ncommaaccent;
lastChange = "2018-02-20 09:01:26 +0000";
layers = (
{
background = {
paths = (
{
closed = 1;
nodes = (
"247 0 LINE",
"247 26 LINE",
"217 26 LINE SMOOTH",
"179 26 OFFCURVE",
"159 37 OFFCURVE",
"159 62 CURVE SMOOTH",
"159 642 LINE",
"587 0 LINE",
"645 0 LINE",
"645 637 LINE SMOOTH",
"645 662 OFFCURVE",
"665 673 OFFCURVE",
"703 673 CURVE SMOOTH",
"733 673 LINE",
"733 700 LINE",
"508 700 LINE",
"508 673 LINE",
"537 673 LINE SMOOTH",
"576 673 OFFCURVE",
"595 662 OFFCURVE",
"595 637 CURVE SMOOTH",
"595 126 LINE",
"217 700 LINE",
"22 700 LINE",
"22 673 LINE",
"51 673 LINE SMOOTH",
"90 673 OFFCURVE",
"109 662 OFFCURVE",
"109 637 CURVE SMOOTH",
"109 62 LINE SMOOTH",
"109 37 OFFCURVE",
"90 26 OFFCURVE",
"51 26 CURVE SMOOTH",
"22 26 LINE",
"22 0 LINE"
);
},
{
closed = 1;
nodes = (
"369 -258 OFFCURVE",
"413 -198 OFFCURVE",
"413 -135 CURVE SMOOTH",
"413 -87 OFFCURVE",
"389 -67 OFFCURVE",
"360 -67 CURVE SMOOTH",
"331 -67 OFFCURVE",
"314 -87 OFFCURVE",
"314 -111 CURVE SMOOTH",
"314 -145 OFFCURVE",
"349 -152 OFFCURVE",
"349 -187 CURVE SMOOTH",
"349 -223 OFFCURVE",
"323 -256 OFFCURVE",
"296 -282 CURVE",
"313 -299 LINE"
);
}
);
};
components = (
{
name = commaaccentcomb;
transform = "{1, 0, 0, 1, 82, 0}";
},
{
name = N;
}
);
layerId = "0B1DFD06-3317-40CA-B510-4969A0718C16";
width = 728;
}
);
note = Ncommaaccent;
unicode = 0145;
},
{
color = 4;
glyphname = Ndotaccent;
lastChange = "2018-02-20 09:01:26 +0000";
layers = (
{
background = {
paths = (
{
closed = 1;
nodes = (
"247 0 LINE",
"247 26 LINE",
"217 26 LINE SMOOTH",
"179 26 OFFCURVE",
"159 37 OFFCURVE",
"159 62 CURVE SMOOTH",
"159 642 LINE",
"587 0 LINE",
"645 0 LINE",
"645 637 LINE SMOOTH",
"645 662 OFFCURVE",
"665 673 OFFCURVE",
"703 673 CURVE SMOOTH",
"733 673 LINE",
"733 700 LINE",
"508 700 LINE",
"508 673 LINE",
"537 673 LINE SMOOTH",
"576 673 OFFCURVE",
"595 662 OFFCURVE",
"595 637 CURVE SMOOTH",
"595 126 LINE",
"217 700 LINE",
"22 700 LINE",
"22 673 LINE",
"51 673 LINE SMOOTH",
"90 673 OFFCURVE",
"109 662 OFFCURVE",
"109 637 CURVE SMOOTH",
"109 62 LINE SMOOTH",
"109 37 OFFCURVE",
"90 26 OFFCURVE",
"51 26 CURVE SMOOTH",
"22 26 LINE",
"22 0 LINE"
);
},
{
closed = 1;
nodes = (
"405 765 OFFCURVE",
"423 784 OFFCURVE",
"423 811 CURVE SMOOTH",
"423 839 OFFCURVE",
"405 858 OFFCURVE",
"377 858 CURVE SMOOTH",
"348 858 OFFCURVE",
"330 839 OFFCURVE",
"330 811 CURVE SMOOTH",
"330 784 OFFCURVE",
"348 765 OFFCURVE",
"377 765 CURVE SMOOTH"
);
}
);
};
components = (
{
name = N;
},
{
name = dotaccentcomb;
transform = "{1, 0, 0, 1, 350, 230}";
}
);
layerId = "0B1DFD06-3317-40CA-B510-4969A0718C16";
width = 697;
}
);
note = Ndotaccent;
unicode = 1E44;
},
{
color = 4;
glyphname = Ndotbelow;
lastChange = "2018-02-20 09:01:26 +0000";
layers = (
{
background = {
paths = (
{
closed = 1;
nodes = (
"247 0 LINE",
"247 26 LINE",
"217 26 LINE SMOOTH",
"179 26 OFFCURVE",
"159 37 OFFCURVE",
"159 62 CURVE SMOOTH",
"159 642 LINE",
"587 0 LINE",
"645 0 LINE",
"645 637 LINE SMOOTH",
"645 662 OFFCURVE",
"665 673 OFFCURVE",
"703 673 CURVE SMOOTH",
"733 673 LINE",
"733 700 LINE",
"508 700 LINE",
"508 673 LINE",
"537 673 LINE SMOOTH",
"576 673 OFFCURVE",
"595 662 OFFCURVE",
"595 637 CURVE SMOOTH",
"595 126 LINE",
"217 700 LINE",
"22 700 LINE",
"22 673 LINE",
"51 673 LINE SMOOTH",
"90 673 OFFCURVE",
"109 662 OFFCURVE",
"109 637 CURVE SMOOTH",
"109 62 LINE SMOOTH",
"109 37 OFFCURVE",
"90 26 OFFCURVE",
"51 26 CURVE SMOOTH",
"22 26 LINE",
"22 0 LINE"
);
},
{
closed = 1;
nodes = (
"415 -159 OFFCURVE",
"433 -140 OFFCURVE",
"433 -112 CURVE SMOOTH",
"433 -84 OFFCURVE",
"415 -64 OFFCURVE",
"387 -64 CURVE SMOOTH",
"359 -64 OFFCURVE",
"340 -84 OFFCURVE",
"340 -112 CURVE SMOOTH",
"340 -140 OFFCURVE",
"359 -159 OFFCURVE",
"387 -159 CURVE SMOOTH"
);
}
);
};
components = (
{
name = N;
},
{
name = dotbelowcomb;
transform = "{1, 0, 0, 1, 252, 0}";
}
);
layerId = "0B1DFD06-3317-40CA-B510-4969A0718C16";
width = 697;
}
);
note = uni1E46;
unicode = 1E46;
},
{
color = 4;
glyphname = Eng;
lastChange = "2018-02-20 09:01:26 +0000";
layers = (
{
background = {
paths = (
{
closed = 1;
nodes = (
"592 -259 OFFCURVE",
"645 -182 OFFCURVE",
"645 -36 CURVE SMOOTH",
"645 637 LINE SMOOTH",
"645 662 OFFCURVE",
"665 673 OFFCURVE",
"703 673 CURVE SMOOTH",
"733 673 LINE",
"733 700 LINE",
"508 700 LINE",
"508 673 LINE",
"537 673 LINE SMOOTH",
"576 673 OFFCURVE",
"595 662 OFFCURVE",
"595 637 CURVE SMOOTH",
"595 125 LINE",
"219 700 LINE",
"22 700 LINE",
"22 673 LINE",
"51 673 LINE SMOOTH",
"90 673 OFFCURVE",
"109 662 OFFCURVE",
"109 637 CURVE SMOOTH",
"109 62 LINE SMOOTH",
"109 37 OFFCURVE",
"93 26 OFFCURVE",
"51 26 CURVE SMOOTH",
"22 26 LINE",
"22 0 LINE",
"247 0 LINE",
"247 26 LINE",
"217 26 LINE SMOOTH",
"179 26 OFFCURVE",
"159 37 OFFCURVE",
"159 62 CURVE SMOOTH",
"159 647 LINE",
"586 0 LINE",
"586 -76 LINE SMOOTH",
"586 -173 OFFCURVE",
"510 -238 OFFCURVE",
"423 -243 CURVE",
"427 -268 LINE"
);
}
);
};
layerId = "0B1DFD06-3317-40CA-B510-4969A0718C16";
paths = (
{
closed = 1;
nodes = (
"119 -9 OFFCURVE",
"139 12 OFFCURVE",
"139 50 CURVE SMOOTH",
"139 602 LINE",
"120 632 LINE",
"125 635 LINE",
"125 635 OFFCURVE",
"556 -10 OFFCURVE",
"558 -9 CURVE",
"558 -46 LINE SMOOTH",
"558 -157 OFFCURVE",
"517 -211 OFFCURVE",
"409 -211 CURVE SMOOTH",
"325 -211 OFFCURVE",
"267 -178 OFFCURVE",
"267 -110 CURVE SMOOTH",
"267 -101 OFFCURVE",
"268 -91 OFFCURVE",
"270 -80 CURVE",
"242 -80 OFFCURVE",
"210 -94 OFFCURVE",
"210 -129 CURVE SMOOTH",
"210 -213 OFFCURVE",
"308 -266 OFFCURVE",
"409 -266 CURVE SMOOTH",
"542 -266 OFFCURVE",
"617 -183 OFFCURVE",
"617 -46 CURVE SMOOTH",
"617 650 LINE SMOOTH",
"617 688 OFFCURVE",
"596 709 OFFCURVE",
"558 709 CURVE",
"558 85.791 LINE",
"139 709 LINE",
"101 709 OFFCURVE",
"80 688 OFFCURVE",
"80 650 CURVE SMOOTH",
"80 -9 LINE"
);
}
);
width = 697;
}
);
note = Eng;
unicode = 014A;
},
{
color = 4;
glyphname = Nlinebelow;
lastChange = "2018-02-20 09:01:26 +0000";
layers = (
{
background = {
paths = (
{
closed = 1;
nodes = (
"247 0 LINE",
"247 26 LINE",
"217 26 LINE SMOOTH",
"179 26 OFFCURVE",
"159 37 OFFCURVE",
"159 62 CURVE SMOOTH",
"159 642 LINE",
"587 0 LINE",
"645 0 LINE",
"645 637 LINE SMOOTH",
"645 662 OFFCURVE",
"665 673 OFFCURVE",
"703 673 CURVE SMOOTH",
"733 673 LINE",
"733 700 LINE",
"508 700 LINE",
"508 673 LINE",
"537 673 LINE SMOOTH",
"576 673 OFFCURVE",
"595 662 OFFCURVE",
"595 637 CURVE SMOOTH",
"595 126 LINE",
"217 700 LINE",
"22 700 LINE",
"22 673 LINE",
"51 673 LINE SMOOTH",
"90 673 OFFCURVE",
"109 662 OFFCURVE",
"109 637 CURVE SMOOTH",
"109 62 LINE SMOOTH",
"109 37 OFFCURVE",
"90 26 OFFCURVE",
"51 26 CURVE SMOOTH",
"22 26 LINE",
"22 0 LINE"
);
},
{
closed = 1;
nodes = (
"542 -110 LINE",
"542 -72 LINE",
"210 -72 LINE",
"210 -110 LINE"
);
}
);
};
components = (
{
name = N;
},
{
name = macronbelowcomb;
transform = "{1, 0, 0, 1, 349, 0}";
}
);
layerId = "0B1DFD06-3317-40CA-B510-4969A0718C16";
width = 697;
}
);
note = Nlinebelow;
unicode = 1E48;
},
{
color = 4;
glyphname = Ntilde;
lastChange = "2018-02-20 09:01:26 +0000";
layers = (
{
background = {
paths = (
{
closed = 1;
nodes = (
"247 0 LINE",
"247 26 LINE",
"217 26 LINE SMOOTH",
"179 26 OFFCURVE",
"159 37 OFFCURVE",
"159 62 CURVE SMOOTH",
"159 642 LINE",
"587 0 LINE",
"645 0 LINE",
"645 637 LINE SMOOTH",
"645 662 OFFCURVE",
"665 673 OFFCURVE",
"703 673 CURVE SMOOTH",
"733 673 LINE",
"733 700 LINE",
"508 700 LINE",
"508 673 LINE",
"537 673 LINE SMOOTH",
"576 673 OFFCURVE",
"595 662 OFFCURVE",
"595 637 CURVE SMOOTH",
"595 126 LINE",
"217 700 LINE",
"22 700 LINE",
"22 673 LINE",
"51 673 LINE SMOOTH",
"90 673 OFFCURVE",
"109 662 OFFCURVE",
"109 637 CURVE SMOOTH",
"109 62 LINE SMOOTH",
"109 37 OFFCURVE",
"90 26 OFFCURVE",
"51 26 CURVE SMOOTH",
"22 26 LINE",
"22 0 LINE"
);
},
{
closed = 1;
nodes = (
"254 818 OFFCURVE",
"272 839 OFFCURVE",
"305 839 CURVE SMOOTH",
"356 839 OFFCURVE",
"405 785 OFFCURVE",
"456 785 CURVE SMOOTH",
"514 785 OFFCURVE",
"544 833 OFFCURVE",
"556 885 CURVE",
"535 896 LINE",
"519 856 OFFCURVE",
"503 834 OFFCURVE",
"469 834 CURVE SMOOTH",
"420 834 OFFCURVE",
"368 887 OFFCURVE",
"317 887 CURVE SMOOTH",
"263 887 OFFCURVE",
"230 843 OFFCURVE",
"218 791 CURVE",
"240 780 LINE"
);
}
);
};
components = (
{
name = N;
},
{
name = tilde;
transform = "{1, 0, 0, 1, 177, 191}";
}
);
layerId = "0B1DFD06-3317-40CA-B510-4969A0718C16";
width = 697;
}
);
note = Ntilde;
unicode = 00D1;
},
{
color = 4;
glyphname = Oacute;
lastChange = "2018-02-20 09:01:26 +0000";
layers = (
{
background = {
paths = (
{
closed = 1;
nodes = (
"601 -10 OFFCURVE",
"719 124 OFFCURVE",
"719 350 CURVE SMOOTH",
"719 574 OFFCURVE",
"601 710 OFFCURVE",
"378 710 CURVE SMOOTH",
"154 710 OFFCURVE",
"36 574 OFFCURVE",
"36 350 CURVE SMOOTH",
"36 124 OFFCURVE",
"154 -10 OFFCURVE",
"378 -10 CURVE SMOOTH"
);
},
{
closed = 1;
nodes = (
"215 32 OFFCURVE",
"135 158 OFFCURVE",
"135 350 CURVE SMOOTH",
"135 541 OFFCURVE",
"215 668 OFFCURVE",
"377 668 CURVE SMOOTH",
"541 668 OFFCURVE",
"620 541 OFFCURVE",
"620 350 CURVE SMOOTH",
"620 158 OFFCURVE",
"541 32 OFFCURVE",
"377 32 CURVE SMOOTH"
);
},
{
closed = 1;
nodes = (
"440 865 LINE SMOOTH",
"462 877 OFFCURVE",
"474 890 OFFCURVE",
"474 907 CURVE SMOOTH",
"474 922 OFFCURVE",
"462 937 OFFCURVE",
"440 937 CURVE SMOOTH",
"419 937 OFFCURVE",
"404 921 OFFCURVE",
"396 914 CURVE SMOOTH",
"281 807 LINE",
"298 782 LINE"
);
}
);
};
components = (
{
name = O;
},
{
name = acutecomb;
transform = "{1, 0, 0, 1, 331, 230}";
}
);
layerId = "0B1DFD06-3317-40CA-B510-4969A0718C16";
width = 820;
}
);
leftKerningGroup = O;
note = Oacute;
rightKerningGroup = O;
unicode = 00D3;
},
{
color = 4;
glyphname = Obreve;
lastChange = "2018-02-20 09:01:26 +0000";
layers = (
{
background = {
paths = (
{
closed = 1;
nodes = (
"601 -10 OFFCURVE",
"719 124 OFFCURVE",
"719 350 CURVE SMOOTH",
"719 574 OFFCURVE",
"601 710 OFFCURVE",
"378 710 CURVE SMOOTH",
"154 710 OFFCURVE",
"36 574 OFFCURVE",
"36 350 CURVE SMOOTH",
"36 124 OFFCURVE",
"154 -10 OFFCURVE",
"378 -10 CURVE SMOOTH"
);
},
{
closed = 1;
nodes = (
"215 32 OFFCURVE",
"135 158 OFFCURVE",
"135 350 CURVE SMOOTH",
"135 541 OFFCURVE",
"215 668 OFFCURVE",
"377 668 CURVE SMOOTH",
"541 668 OFFCURVE",
"620 541 OFFCURVE",
"620 350 CURVE SMOOTH",
"620 158 OFFCURVE",
"541 32 OFFCURVE",
"377 32 CURVE SMOOTH"
);
},
{
closed = 1;
nodes = (
"477 774 OFFCURVE",
"519 830 OFFCURVE",
"523 905 CURVE",
"490 905 LINE",
"484 846 OFFCURVE",
"442 820 OFFCURVE",
"378 820 CURVE SMOOTH",
"314 820 OFFCURVE",
"271 846 OFFCURVE",
"264 905 CURVE",
"231 905 LINE",
"235 827 OFFCURVE",
"277 774 OFFCURVE",
"378 774 CURVE SMOOTH"
);
}
);
};
components = (
{
name = O;
},
{
name = brevecomb;
transform = "{1, 0, 0, 1, 410, 230}";
}
);
layerId = "0B1DFD06-3317-40CA-B510-4969A0718C16";
width = 820;
}
);
leftKerningGroup = O;
note = Obreve;
rightKerningGroup = O;
unicode = 014E;
},
{
color = 4;
glyphname = Ocaron;
lastChange = "2018-02-20 09:01:26 +0000";
layers = (
{
background = {
paths = (
{
closed = 1;
nodes = (
"601 -10 OFFCURVE",
"719 124 OFFCURVE",
"719 350 CURVE SMOOTH",
"719 574 OFFCURVE",
"601 710 OFFCURVE",
"378 710 CURVE SMOOTH",
"154 710 OFFCURVE",
"36 574 OFFCURVE",
"36 350 CURVE SMOOTH",
"36 124 OFFCURVE",
"154 -10 OFFCURVE",
"378 -10 CURVE SMOOTH"
);
},
{
closed = 1;
nodes = (
"215 32 OFFCURVE",
"135 158 OFFCURVE",
"135 350 CURVE SMOOTH",
"135 541 OFFCURVE",
"215 668 OFFCURVE",
"377 668 CURVE SMOOTH",
"541 668 OFFCURVE",
"620 541 OFFCURVE",
"620 350 CURVE SMOOTH",
"620 158 OFFCURVE",
"541 32 OFFCURVE",
"377 32 CURVE SMOOTH"
);
},
{
closed = 1;
nodes = (
"404 782 LINE",
"528 911 LINE",
"509 932 LINE",
"401 847 LINE",
"393 840 OFFCURVE",
"384 836 OFFCURVE",
"378 836 CURVE SMOOTH",
"372 836 OFFCURVE",
"364 840 OFFCURVE",
"354 847 CURVE",
"246 932 LINE",
"227 911 LINE",
"351 782 LINE"
);
}
);
};
components = (
{
name = O;
},
{
name = caron;
transform = "{1, 0, 0, 1, 188, 230}";
}
);
layerId = "0B1DFD06-3317-40CA-B510-4969A0718C16";
width = 820;
}
);
leftKerningGroup = O;
note = Ocaron;
rightKerningGroup = O;
unicode = 01D1;
},
{
color = 4;
glyphname = Ocircumflex;
lastChange = "2018-02-20 09:01:26 +0000";
layers = (
{
background = {
paths = (
{
closed = 1;
nodes = (
"601 -10 OFFCURVE",
"719 124 OFFCURVE",
"719 350 CURVE SMOOTH",
"719 574 OFFCURVE",
"601 710 OFFCURVE",
"378 710 CURVE SMOOTH",
"154 710 OFFCURVE",
"36 574 OFFCURVE",
"36 350 CURVE SMOOTH",
"36 124 OFFCURVE",
"154 -10 OFFCURVE",
"378 -10 CURVE SMOOTH"
);
},
{
closed = 1;
nodes = (
"215 32 OFFCURVE",
"135 158 OFFCURVE",
"135 350 CURVE SMOOTH",
"135 541 OFFCURVE",
"215 668 OFFCURVE",
"377 668 CURVE SMOOTH",
"541 668 OFFCURVE",
"620 541 OFFCURVE",
"620 350 CURVE SMOOTH",
"620 158 OFFCURVE",
"541 32 OFFCURVE",
"377 32 CURVE SMOOTH"
);
},
{
closed = 1;
nodes = (
"354 868 LINE SMOOTH",
"362 874 OFFCURVE",
"372 879 OFFCURVE",
"378 879 CURVE SMOOTH",
"384 879 OFFCURVE",
"392 874 OFFCURVE",
"401 868 CURVE",
"509 782 LINE",
"528 803 LINE",
"404 932 LINE",
"351 932 LINE",
"227 803 LINE",
"246 782 LINE"
);
}
);
};
components = (
{
name = O;
},
{
name = circumflex;
transform = "{1, 0, 0, 1, 188, 230}";
}
);
layerId = "0B1DFD06-3317-40CA-B510-4969A0718C16";
width = 820;
}
);
leftKerningGroup = O;
note = Ocircumflex;
rightKerningGroup = O;
unicode = 00D4;
},
{
color = 4;
glyphname = Ocircumflexacute;
lastChange = "2018-02-20 09:01:26 +0000";
layers = (
{
background = {
paths = (
{
closed = 1;
nodes = (
"601 -10 OFFCURVE",
"719 124 OFFCURVE",
"719 350 CURVE SMOOTH",
"719 574 OFFCURVE",
"601 710 OFFCURVE",
"378 710 CURVE SMOOTH",
"154 710 OFFCURVE",
"36 574 OFFCURVE",
"36 350 CURVE SMOOTH",
"36 124 OFFCURVE",
"154 -10 OFFCURVE",
"378 -10 CURVE SMOOTH"
);
},
{
closed = 1;
nodes = (
"215 32 OFFCURVE",
"135 158 OFFCURVE",
"135 350 CURVE SMOOTH",
"135 541 OFFCURVE",
"215 668 OFFCURVE",
"377 668 CURVE SMOOTH",
"541 668 OFFCURVE",
"620 541 OFFCURVE",
"620 350 CURVE SMOOTH",
"620 158 OFFCURVE",
"541 32 OFFCURVE",
"377 32 CURVE SMOOTH"
);
},
{
closed = 1;
nodes = (
"348 861 LINE SMOOTH",
"358 869 OFFCURVE",
"368 877 OFFCURVE",
"376 877 CURVE SMOOTH",
"382 877 OFFCURVE",
"390 872 OFFCURVE",
"399 866 CURVE",
"505 780 LINE",
"524 802 LINE",
"402 931 LINE",
"351 931 LINE",
"229 802 LINE",
"247 780 LINE"
);
},
{
closed = 1;
nodes = (
"613 959 LINE SMOOTH",
"636 971 OFFCURVE",
"649 987 OFFCURVE",
"649 1002 CURVE SMOOTH",
"649 1016 OFFCURVE",
"638 1033 OFFCURVE",
"615 1033 CURVE SMOOTH",
"596 1033 OFFCURVE",
"579 1017 OFFCURVE",
"569 1007 CURVE SMOOTH",
"473 914 LINE",
"491 892 LINE"
);
}
);
};
components = (
{
name = O;
},
{
name = circumflexacute;
transform = "{1, 0, 0, 1, 202, 230}";
}
);
layerId = "0B1DFD06-3317-40CA-B510-4969A0718C16";
width = 820;
}
);
leftKerningGroup = O;
note = Ocircumflexacute;
rightKerningGroup = O;
unicode = 1ED0;
},
{
color = 4;
glyphname = Ocircumflexdotbelow;
lastChange = "2018-02-20 09:01:26 +0000";
layers = (
{
background = {
paths = (
{
closed = 1;
nodes = (
"36 124 OFFCURVE",
"154 -10 OFFCURVE",
"378 -10 CURVE SMOOTH",
"601 -10 OFFCURVE",
"719 124 OFFCURVE",
"719 350 CURVE SMOOTH",
"719 574 OFFCURVE",
"601 710 OFFCURVE",
"378 710 CURVE SMOOTH",
"154 710 OFFCURVE",
"36 574 OFFCURVE",
"36 350 CURVE SMOOTH"
);
},
{
closed = 1;
nodes = (
"135 541 OFFCURVE",
"215 668 OFFCURVE",
"377 668 CURVE SMOOTH",
"541 668 OFFCURVE",
"620 541 OFFCURVE",
"620 350 CURVE SMOOTH",
"620 158 OFFCURVE",
"541 32 OFFCURVE",
"377 32 CURVE SMOOTH",
"215 32 OFFCURVE",
"135 158 OFFCURVE",
"135 350 CURVE SMOOTH"
);
},
{
closed = 1;
nodes = (
"245 782 LINE",
"353 868 LINE SMOOTH",
"361 874 OFFCURVE",
"371 879 OFFCURVE",
"377 879 CURVE SMOOTH",
"383 879 OFFCURVE",
"391 874 OFFCURVE",
"400 868 CURVE",
"508 782 LINE",
"527 803 LINE",
"403 932 LINE",
"350 932 LINE",
"226 803 LINE"
);
},
{
closed = 1;
nodes = (
"330 -140 OFFCURVE",
"349 -159 OFFCURVE",
"377 -159 CURVE SMOOTH",
"405 -159 OFFCURVE",
"423 -140 OFFCURVE",
"423 -112 CURVE SMOOTH",
"423 -84 OFFCURVE",
"405 -64 OFFCURVE",
"377 -64 CURVE SMOOTH",
"349 -64 OFFCURVE",
"330 -84 OFFCURVE",
"330 -112 CURVE SMOOTH"
);
}
);
};
components = (
{
name = O;
},
{
name = dotbelowcomb;
transform = "{1, 0, 0, 1, 313, 0}";
},
{
name = circumflex;
transform = "{1, 0, 0, 1, 188, 230}";
}
);
layerId = "0B1DFD06-3317-40CA-B510-4969A0718C16";
width = 820;
}
);
leftKerningGroup = O;
note = Ocircumflexdotbelow;
rightKerningGroup = O;
unicode = 1ED8;
},
{
color = 4;
glyphname = Ocircumflexgrave;
lastChange = "2018-02-20 09:01:26 +0000";
layers = (
{
background = {
paths = (
{
closed = 1;
nodes = (
"601 -10 OFFCURVE",
"719 124 OFFCURVE",
"719 350 CURVE SMOOTH",
"719 574 OFFCURVE",
"601 710 OFFCURVE",
"378 710 CURVE SMOOTH",
"154 710 OFFCURVE",
"36 574 OFFCURVE",
"36 350 CURVE SMOOTH",
"36 124 OFFCURVE",
"154 -10 OFFCURVE",
"378 -10 CURVE SMOOTH"
);
},
{
closed = 1;
nodes = (
"215 32 OFFCURVE",
"135 158 OFFCURVE",
"135 350 CURVE SMOOTH",
"135 541 OFFCURVE",
"215 668 OFFCURVE",
"377 668 CURVE SMOOTH",
"541 668 OFFCURVE",
"620 541 OFFCURVE",
"620 350 CURVE SMOOTH",
"620 158 OFFCURVE",
"541 32 OFFCURVE",
"377 32 CURVE SMOOTH"
);
},
{
closed = 1;
nodes = (
"285 914 LINE",
"190 1007 LINE SMOOTH",
"180 1017 OFFCURVE",
"163 1033 OFFCURVE",
"143 1033 CURVE SMOOTH",
"121 1033 OFFCURVE",
"110 1016 OFFCURVE",
"110 1002 CURVE SMOOTH",
"110 987 OFFCURVE",
"123 971 OFFCURVE",
"146 959 CURVE SMOOTH",
"268 892 LINE"
);
},
{
closed = 1;
nodes = (
"348 861 LINE SMOOTH",
"358 869 OFFCURVE",
"368 877 OFFCURVE",
"376 877 CURVE SMOOTH",
"382 877 OFFCURVE",
"390 872 OFFCURVE",
"399 866 CURVE",
"505 780 LINE",
"524 802 LINE",
"402 931 LINE",
"351 931 LINE",
"229 802 LINE",
"247 780 LINE"
);
}
);
};
components = (
{
name = O;
},
{
name = circumflexgrave;
transform = "{1, 0, 0, 1, 202, 230}";
}
);
layerId = "0B1DFD06-3317-40CA-B510-4969A0718C16";
width = 820;
}
);
leftKerningGroup = O;
note = Ocircumflexgrave;
rightKerningGroup = O;
unicode = 1ED2;
},
{
color = 4;
glyphname = Ocircumflexhookabove;
lastChange = "2018-02-20 09:01:26 +0000";
layers = (
{
background = {
paths = (
{
closed = 1;
nodes = (
"601 -10 OFFCURVE",
"719 124 OFFCURVE",
"719 350 CURVE SMOOTH",
"719 574 OFFCURVE",
"601 710 OFFCURVE",
"378 710 CURVE SMOOTH",
"154 710 OFFCURVE",
"36 574 OFFCURVE",
"36 350 CURVE SMOOTH",
"36 124 OFFCURVE",
"154 -10 OFFCURVE",
"378 -10 CURVE SMOOTH"
);
},
{
closed = 1;
nodes = (
"215 32 OFFCURVE",
"135 158 OFFCURVE",
"135 350 CURVE SMOOTH",
"135 541 OFFCURVE",
"215 668 OFFCURVE",
"377 668 CURVE SMOOTH",
"541 668 OFFCURVE",
"620 541 OFFCURVE",
"620 350 CURVE SMOOTH",
"620 158 OFFCURVE",
"541 32 OFFCURVE",
"377 32 CURVE SMOOTH"
);
},
{
closed = 1;
nodes = (
"344 858 LINE",
"355 868 OFFCURVE",
"367 878 OFFCURVE",
"376 878 CURVE SMOOTH",
"382 878 OFFCURVE",
"390 873 OFFCURVE",
"399 867 CURVE",
"505 781 LINE",
"524 803 LINE",
"402 932 LINE",
"351 932 LINE",
"229 803 LINE",
"247 781 LINE"
);
},
{
closed = 1;
nodes = (
"551 898 LINE",
"532 905 OFFCURVE",
"522 912 OFFCURVE",
"522 926 CURVE SMOOTH",
"522 954 OFFCURVE",
"602 965 OFFCURVE",
"602 1010 CURVE SMOOTH",
"602 1047 OFFCURVE",
"560 1063 OFFCURVE",
"518 1063 CURVE SMOOTH",
"487 1063 OFFCURVE",
"442 1053 OFFCURVE",
"442 1022 CURVE SMOOTH",
"442 1010 OFFCURVE",
"453 1001 OFFCURVE",
"463 1001 CURVE SMOOTH",
"492 1001 OFFCURVE",
"479 1040 OFFCURVE",
"522 1040 CURVE SMOOTH",
"541 1040 OFFCURVE",
"552 1028 OFFCURVE",
"552 1013 CURVE SMOOTH",
"552 973 OFFCURVE",
"479 965 OFFCURVE",
"479 925 CURVE SMOOTH",
"479 901 OFFCURVE",
"495 880 OFFCURVE",
"542 880 CURVE"
);
}
);
};
components = (
{
name = O;
},
{
name = circumflexhookabove;
transform = "{1, 0, 0, 1, 202, 230}";
}
);
layerId = "0B1DFD06-3317-40CA-B510-4969A0718C16";
width = 820;
}
);
leftKerningGroup = O;
note = Ocircumflexhookabove;
rightKerningGroup = O;
unicode = 1ED4;
},
{
color = 4;
glyphname = Ocircumflextilde;
lastChange = "2018-02-20 09:01:26 +0000";
layers = (
{
background = {
paths = (
{
closed = 1;
nodes = (
"601 -10 OFFCURVE",
"719 124 OFFCURVE",
"719 350 CURVE SMOOTH",
"719 574 OFFCURVE",
"601 710 OFFCURVE",
"378 710 CURVE SMOOTH",
"154 710 OFFCURVE",
"36 574 OFFCURVE",
"36 350 CURVE SMOOTH",
"36 124 OFFCURVE",
"154 -10 OFFCURVE",
"378 -10 CURVE SMOOTH"
);
},
{
closed = 1;
nodes = (
"215 32 OFFCURVE",
"135 158 OFFCURVE",
"135 350 CURVE SMOOTH",
"135 541 OFFCURVE",
"215 668 OFFCURVE",
"377 668 CURVE SMOOTH",
"541 668 OFFCURVE",
"620 541 OFFCURVE",
"620 350 CURVE SMOOTH",
"620 158 OFFCURVE",
"541 32 OFFCURVE",
"377 32 CURVE SMOOTH"
);
},
{
closed = 1;
nodes = (
"348 862 LINE SMOOTH",
"358 870 OFFCURVE",
"368 878 OFFCURVE",
"376 878 CURVE SMOOTH",
"382 878 OFFCURVE",
"390 873 OFFCURVE",
"399 867 CURVE",
"505 781 LINE",
"524 803 LINE",
"402 932 LINE",
"351 932 LINE",
"229 803 LINE",
"247 781 LINE"
);
},
{
closed = 1;
nodes = (
"251 997 OFFCURVE",
"269 1018 OFFCURVE",
"300 1018 CURVE SMOOTH",
"349 1018 OFFCURVE",
"396 964 OFFCURVE",
"445 964 CURVE SMOOTH",
"498 964 OFFCURVE",
"527 1012 OFFCURVE",
"539 1063 CURVE",
"518 1075 LINE",
"505 1035 OFFCURVE",
"489 1012 OFFCURVE",
"456 1012 CURVE SMOOTH",
"409 1012 OFFCURVE",
"360 1065 OFFCURVE",
"311 1065 CURVE SMOOTH",
"260 1065 OFFCURVE",
"228 1021 OFFCURVE",
"218 970 CURVE",
"238 958 LINE"
);
}
);
};
components = (
{
name = O;
},
{
name = circumflextilde;
transform = "{1, 0, 0, 1, 202, 230}";
}
);
layerId = "0B1DFD06-3317-40CA-B510-4969A0718C16";
width = 820;
}
);
leftKerningGroup = O;
note = Ocircumflextilde;
rightKerningGroup = O;
unicode = 1ED6;
},
{
color = 4;
glyphname = Odieresis;
lastChange = "2018-02-20 09:01:26 +0000";
layers = (
{
background = {
paths = (
{
closed = 1;
nodes = (
"601 -10 OFFCURVE",
"719 124 OFFCURVE",
"719 350 CURVE SMOOTH",
"719 574 OFFCURVE",
"601 710 OFFCURVE",
"378 710 CURVE SMOOTH",
"154 710 OFFCURVE",
"36 574 OFFCURVE",
"36 350 CURVE SMOOTH",
"36 124 OFFCURVE",
"154 -10 OFFCURVE",
"378 -10 CURVE SMOOTH"
);
},
{
closed = 1;
nodes = (
"215 32 OFFCURVE",
"135 158 OFFCURVE",
"135 350 CURVE SMOOTH",
"135 541 OFFCURVE",
"215 668 OFFCURVE",
"377 668 CURVE SMOOTH",
"541 668 OFFCURVE",
"620 541 OFFCURVE",
"620 350 CURVE SMOOTH",
"620 158 OFFCURVE",
"541 32 OFFCURVE",
"377 32 CURVE SMOOTH"
);
},
{
closed = 1;
nodes = (
"298 781 OFFCURVE",
"316 800 OFFCURVE",
"316 827 CURVE SMOOTH",
"316 855 OFFCURVE",
"298 875 OFFCURVE",
"269 875 CURVE SMOOTH",
"241 875 OFFCURVE",
"223 855 OFFCURVE",
"223 827 CURVE SMOOTH",
"223 800 OFFCURVE",
"241 781 OFFCURVE",
"269 781 CURVE SMOOTH"
);
},
{
closed = 1;
nodes = (
"514 781 OFFCURVE",
"532 800 OFFCURVE",
"532 827 CURVE SMOOTH",
"532 855 OFFCURVE",
"514 875 OFFCURVE",
"485 875 CURVE SMOOTH",
"456 875 OFFCURVE",
"438 855 OFFCURVE",
"438 827 CURVE SMOOTH",
"438 800 OFFCURVE",
"456 781 OFFCURVE",
"485 781 CURVE SMOOTH"
);
}
);
};
components = (
{
name = O;
},
{
name = dieresiscomb;
transform = "{1, 0, 0, 1, 411, 230}";
}
);
layerId = "0B1DFD06-3317-40CA-B510-4969A0718C16";
width = 820;
}
);
leftKerningGroup = O;
note = Odieresis;
rightKerningGroup = O;
unicode = 00D6;
},
{
color = 4;
glyphname = Odotbelow;
lastChange = "2018-02-20 09:01:26 +0000";
layers = (
{
background = {
paths = (
{
closed = 1;
nodes = (
"36 124 OFFCURVE",
"154 -10 OFFCURVE",
"378 -10 CURVE SMOOTH",
"601 -10 OFFCURVE",
"719 124 OFFCURVE",
"719 350 CURVE SMOOTH",
"719 574 OFFCURVE",
"601 710 OFFCURVE",
"378 710 CURVE SMOOTH",
"154 710 OFFCURVE",
"36 574 OFFCURVE",
"36 350 CURVE SMOOTH"
);
},
{
closed = 1;
nodes = (
"135 541 OFFCURVE",
"215 668 OFFCURVE",
"377 668 CURVE SMOOTH",
"541 668 OFFCURVE",
"620 541 OFFCURVE",
"620 350 CURVE SMOOTH",
"620 158 OFFCURVE",
"541 32 OFFCURVE",
"377 32 CURVE SMOOTH",
"215 32 OFFCURVE",
"135 158 OFFCURVE",
"135 350 CURVE SMOOTH"
);
},
{
closed = 1;
nodes = (
"330 -140 OFFCURVE",
"349 -159 OFFCURVE",
"377 -159 CURVE SMOOTH",
"405 -159 OFFCURVE",
"423 -140 OFFCURVE",
"423 -112 CURVE SMOOTH",
"423 -84 OFFCURVE",
"405 -64 OFFCURVE",
"377 -64 CURVE SMOOTH",
"349 -64 OFFCURVE",
"330 -84 OFFCURVE",
"330 -112 CURVE SMOOTH"
);
}
);
};
components = (
{
name = O;
},
{
name = dotbelowcomb;
transform = "{1, 0, 0, 1, 313, 0}";
}
);
layerId = "0B1DFD06-3317-40CA-B510-4969A0718C16";
width = 820;
}
);
leftKerningGroup = O;
note = Odotbelow;
rightKerningGroup = O;
unicode = 1ECC;
},
{
color = 4;
glyphname = Ograve;
lastChange = "2018-02-20 09:01:26 +0000";
layers = (
{
background = {
paths = (
{
closed = 1;
nodes = (
"601 -10 OFFCURVE",
"719 124 OFFCURVE",
"719 350 CURVE SMOOTH",
"719 574 OFFCURVE",
"601 710 OFFCURVE",
"378 710 CURVE SMOOTH",
"154 710 OFFCURVE",
"36 574 OFFCURVE",
"36 350 CURVE SMOOTH",
"36 124 OFFCURVE",
"154 -10 OFFCURVE",
"378 -10 CURVE SMOOTH"
);
},
{
closed = 1;
nodes = (
"215 32 OFFCURVE",
"135 158 OFFCURVE",
"135 350 CURVE SMOOTH",
"135 541 OFFCURVE",
"215 668 OFFCURVE",
"377 668 CURVE SMOOTH",
"541 668 OFFCURVE",
"620 541 OFFCURVE",
"620 350 CURVE SMOOTH",
"620 158 OFFCURVE",
"541 32 OFFCURVE",
"377 32 CURVE SMOOTH"
);
},
{
closed = 1;
nodes = (
"459 807 LINE",
"344 913 LINE",
"335 922 OFFCURVE",
"319 937 OFFCURVE",
"299 937 CURVE SMOOTH",
"279 937 OFFCURVE",
"267 924 OFFCURVE",
"267 908 CURVE SMOOTH",
"267 890 OFFCURVE",
"279 876 OFFCURVE",
"298 865 CURVE SMOOTH",
"441 782 LINE"
);
}
);
};
components = (
{
name = O;
},
{
name = gravecomb;
transform = "{1, 0, 0, 1, 222, 230}";
}
);
layerId = "0B1DFD06-3317-40CA-B510-4969A0718C16";
width = 820;
}
);
leftKerningGroup = O;
note = Ograve;
rightKerningGroup = O;
unicode = 00D2;
},
{
color = 4;
glyphname = Ohookabove;
lastChange = "2018-02-20 09:01:26 +0000";
layers = (
{
background = {
paths = (
{
closed = 1;
nodes = (
"601 -10 OFFCURVE",
"719 124 OFFCURVE",
"719 350 CURVE SMOOTH",
"719 574 OFFCURVE",
"601 710 OFFCURVE",
"378 710 CURVE SMOOTH",
"154 710 OFFCURVE",
"36 574 OFFCURVE",
"36 350 CURVE SMOOTH",
"36 124 OFFCURVE",
"154 -10 OFFCURVE",
"378 -10 CURVE SMOOTH"
);
},
{
closed = 1;
nodes = (
"215 32 OFFCURVE",
"135 158 OFFCURVE",
"135 350 CURVE SMOOTH",
"135 541 OFFCURVE",
"215 668 OFFCURVE",
"377 668 CURVE SMOOTH",
"541 668 OFFCURVE",
"620 541 OFFCURVE",
"620 350 CURVE SMOOTH",
"620 158 OFFCURVE",
"541 32 OFFCURVE",
"377 32 CURVE SMOOTH"
);
},
{
closed = 1;
nodes = (
"407 798 LINE",
"388 805 OFFCURVE",
"376 811 OFFCURVE",
"376 828 CURVE SMOOTH",
"376 861 OFFCURVE",
"465 876 OFFCURVE",
"465 927 CURVE SMOOTH",
"465 969 OFFCURVE",
"429 991 OFFCURVE",
"376 991 CURVE SMOOTH",
"329 991 OFFCURVE",
"288 974 OFFCURVE",
"288 940 CURVE SMOOTH",
"288 923 OFFCURVE",
"296 915 OFFCURVE",
"311 915 CURVE SMOOTH",
"334 915 OFFCURVE",
"336 934 OFFCURVE",
"339 942 CURVE SMOOTH",
"344 956 OFFCURVE",
"361 962 OFFCURVE",
"377 962 CURVE SMOOTH",
"398 962 OFFCURVE",
"411 947 OFFCURVE",
"411 930 CURVE SMOOTH",
"411 885 OFFCURVE",
"329 874 OFFCURVE",
"329 828 CURVE SMOOTH",
"329 801 OFFCURVE",
"347 778 OFFCURVE",
"398 778 CURVE"
);
}
);
};
components = (
{
name = O;
},
{
name = hookabovecomb;
transform = "{1, 0, 0, 1, 294, 230}";
}
);
layerId = "0B1DFD06-3317-40CA-B510-4969A0718C16";
width = 820;
}
);
leftKerningGroup = O;
note = Ohookabove;
rightKerningGroup = O;
unicode = 1ECE;
},
{
color = 4;
glyphname = Ohornacute;
lastChange = "2018-02-20 09:01:26 +0000";
layers = (
{
background = {
paths = (
{
closed = 1;
nodes = (
"602 -10 OFFCURVE",
"720 124 OFFCURVE",
"720 350 CURVE SMOOTH",
"720 574 OFFCURVE",
"602 710 OFFCURVE",
"379 710 CURVE SMOOTH",
"155 710 OFFCURVE",
"37 574 OFFCURVE",
"37 350 CURVE SMOOTH",
"37 124 OFFCURVE",
"155 -10 OFFCURVE",
"379 -10 CURVE SMOOTH"
);
},
{
closed = 1;
nodes = (
"216 32 OFFCURVE",
"136 158 OFFCURVE",
"136 350 CURVE SMOOTH",
"136 541 OFFCURVE",
"216 668 OFFCURVE",
"378 668 CURVE SMOOTH",
"542 668 OFFCURVE",
"621 541 OFFCURVE",
"621 350 CURVE SMOOTH",
"621 158 OFFCURVE",
"542 32 OFFCURVE",
"378 32 CURVE SMOOTH"
);
},
{
closed = 1;
nodes = (
"424 864 LINE SMOOTH",
"446 876 OFFCURVE",
"458 889 OFFCURVE",
"458 906 CURVE SMOOTH",
"458 921 OFFCURVE",
"446 936 OFFCURVE",
"424 936 CURVE SMOOTH",
"403 936 OFFCURVE",
"388 920 OFFCURVE",
"380 913 CURVE SMOOTH",
"265 806 LINE",
"282 781 LINE"
);
},
{
closed = 1;
nodes = (
"691 567 OFFCURVE",
"756 632 OFFCURVE",
"756 705 CURVE SMOOTH",
"756 752 OFFCURVE",
"729 772 OFFCURVE",
"701 772 CURVE SMOOTH",
"672 772 OFFCURVE",
"656 752 OFFCURVE",
"656 729 CURVE SMOOTH",
"656 695 OFFCURVE",
"689 688 OFFCURVE",
"689 653 CURVE SMOOTH",
"689 617 OFFCURVE",
"658 588 OFFCURVE",
"623 568 CURVE",
"623 543 LINE"
);
}
);
};
components = (
{
name = Ohorn;
},
{
name = acutecomb;
transform = "{1, 0, 0, 1, 339, 230}";
}
);
layerId = "0B1DFD06-3317-40CA-B510-4969A0718C16";
width = 820;
}
);
leftKerningGroup = O;
note = Ohornacute;
rightKerningGroup = O;
unicode = 1EDA;
},
{
color = 4;
glyphname = Ohorndotbelow;
lastChange = "2018-02-20 09:01:26 +0000";
layers = (
{
background = {
paths = (
{
closed = 1;
nodes = (
"602 -10 OFFCURVE",
"720 124 OFFCURVE",
"720 350 CURVE SMOOTH",
"720 574 OFFCURVE",
"602 710 OFFCURVE",
"379 710 CURVE SMOOTH",
"155 710 OFFCURVE",
"37 574 OFFCURVE",
"37 350 CURVE SMOOTH",
"37 124 OFFCURVE",
"155 -10 OFFCURVE",
"379 -10 CURVE SMOOTH"
);
},
{
closed = 1;
nodes = (
"216 32 OFFCURVE",
"136 158 OFFCURVE",
"136 350 CURVE SMOOTH",
"136 541 OFFCURVE",
"216 668 OFFCURVE",
"378 668 CURVE SMOOTH",
"542 668 OFFCURVE",
"621 541 OFFCURVE",
"621 350 CURVE SMOOTH",
"621 158 OFFCURVE",
"542 32 OFFCURVE",
"378 32 CURVE SMOOTH"
);
},
{
closed = 1;
nodes = (
"691 567 OFFCURVE",
"756 632 OFFCURVE",
"756 705 CURVE SMOOTH",
"756 752 OFFCURVE",
"729 772 OFFCURVE",
"701 772 CURVE SMOOTH",
"672 772 OFFCURVE",
"656 752 OFFCURVE",
"656 729 CURVE SMOOTH",
"656 695 OFFCURVE",
"689 688 OFFCURVE",
"689 653 CURVE SMOOTH",
"689 617 OFFCURVE",
"658 588 OFFCURVE",
"623 568 CURVE",
"623 543 LINE"
);
},
{
closed = 1;
nodes = (
"395 -159 OFFCURVE",
"413 -140 OFFCURVE",
"413 -112 CURVE SMOOTH",
"413 -84 OFFCURVE",
"395 -64 OFFCURVE",
"367 -64 CURVE SMOOTH",
"339 -64 OFFCURVE",
"320 -84 OFFCURVE",
"320 -112 CURVE SMOOTH",
"320 -140 OFFCURVE",
"339 -159 OFFCURVE",
"367 -159 CURVE SMOOTH"
);
}
);
};
components = (
{
alignment = -1;
name = dotbelowcomb;
transform = "{1, 0, 0, 1, 300, 0}";
},
{
name = Ohorn;
}
);
layerId = "0B1DFD06-3317-40CA-B510-4969A0718C16";
width = 755;
}
);
leftKerningGroup = O;
note = Ohorndotbelow;
rightKerningGroup = O;
unicode = 1EE2;
},
{
color = 4;
glyphname = Ohorngrave;
lastChange = "2018-02-20 09:01:26 +0000";
layers = (
{
background = {
paths = (
{
closed = 1;
nodes = (
"602 -10 OFFCURVE",
"720 124 OFFCURVE",
"720 350 CURVE SMOOTH",
"720 574 OFFCURVE",
"602 710 OFFCURVE",
"379 710 CURVE SMOOTH",
"155 710 OFFCURVE",
"37 574 OFFCURVE",
"37 350 CURVE SMOOTH",
"37 124 OFFCURVE",
"155 -10 OFFCURVE",
"379 -10 CURVE SMOOTH"
);
},
{
closed = 1;
nodes = (
"216 32 OFFCURVE",
"136 158 OFFCURVE",
"136 350 CURVE SMOOTH",
"136 541 OFFCURVE",
"216 668 OFFCURVE",
"378 668 CURVE SMOOTH",
"542 668 OFFCURVE",
"621 541 OFFCURVE",
"621 350 CURVE SMOOTH",
"621 158 OFFCURVE",
"542 32 OFFCURVE",
"378 32 CURVE SMOOTH"
);
},
{
closed = 1;
nodes = (
"464 816 LINE",
"349 922 LINE",
"340 931 OFFCURVE",
"324 946 OFFCURVE",
"304 946 CURVE SMOOTH",
"284 946 OFFCURVE",
"272 933 OFFCURVE",
"272 917 CURVE SMOOTH",
"272 899 OFFCURVE",
"284 885 OFFCURVE",
"303 874 CURVE SMOOTH",
"446 791 LINE"
);
},
{
closed = 1;
nodes = (
"691 567 OFFCURVE",
"756 632 OFFCURVE",
"756 705 CURVE SMOOTH",
"756 752 OFFCURVE",
"729 772 OFFCURVE",
"701 772 CURVE SMOOTH",
"672 772 OFFCURVE",
"656 752 OFFCURVE",
"656 729 CURVE SMOOTH",
"656 695 OFFCURVE",
"689 688 OFFCURVE",
"689 653 CURVE SMOOTH",
"689 617 OFFCURVE",
"658 588 OFFCURVE",
"623 568 CURVE",
"623 543 LINE"
);
}
);
};
components = (
{
name = Ohorn;
},
{
name = gravecomb;
transform = "{1, 0, 0, 1, 230, 230}";
}
);
layerId = "0B1DFD06-3317-40CA-B510-4969A0718C16";
width = 820;
}
);
leftKerningGroup = O;
note = Ohorngrave;
rightKerningGroup = O;
unicode = 1EDC;
},
{
color = 4;
glyphname = Ohornhookabove;
lastChange = "2018-02-20 09:01:26 +0000";
layers = (
{
background = {
paths = (
{
closed = 1;
nodes = (
"602 -10 OFFCURVE",
"720 124 OFFCURVE",
"720 350 CURVE SMOOTH",
"720 574 OFFCURVE",
"602 710 OFFCURVE",
"379 710 CURVE SMOOTH",
"155 710 OFFCURVE",
"37 574 OFFCURVE",
"37 350 CURVE SMOOTH",
"37 124 OFFCURVE",
"155 -10 OFFCURVE",
"379 -10 CURVE SMOOTH"
);
},
{
closed = 1;
nodes = (
"216 32 OFFCURVE",
"136 158 OFFCURVE",
"136 350 CURVE SMOOTH",
"136 541 OFFCURVE",
"216 668 OFFCURVE",
"378 668 CURVE SMOOTH",
"542 668 OFFCURVE",
"621 541 OFFCURVE",
"621 350 CURVE SMOOTH",
"621 158 OFFCURVE",
"542 32 OFFCURVE",
"378 32 CURVE SMOOTH"
);
},
{
closed = 1;
nodes = (
"412 809 LINE",
"393 816 OFFCURVE",
"381 822 OFFCURVE",
"381 839 CURVE SMOOTH",
"381 872 OFFCURVE",
"470 887 OFFCURVE",
"470 938 CURVE SMOOTH",
"470 980 OFFCURVE",
"434 1002 OFFCURVE",
"381 1002 CURVE SMOOTH",
"334 1002 OFFCURVE",
"293 985 OFFCURVE",
"293 951 CURVE SMOOTH",
"293 934 OFFCURVE",
"301 926 OFFCURVE",
"316 926 CURVE SMOOTH",
"339 926 OFFCURVE",
"341 945 OFFCURVE",
"344 953 CURVE SMOOTH",
"349 967 OFFCURVE",
"366 973 OFFCURVE",
"382 973 CURVE SMOOTH",
"403 973 OFFCURVE",
"416 958 OFFCURVE",
"416 941 CURVE SMOOTH",
"416 896 OFFCURVE",
"334 885 OFFCURVE",
"334 839 CURVE SMOOTH",
"334 812 OFFCURVE",
"352 789 OFFCURVE",
"403 789 CURVE"
);
},
{
closed = 1;
nodes = (
"691 567 OFFCURVE",
"756 632 OFFCURVE",
"756 705 CURVE SMOOTH",
"756 752 OFFCURVE",
"729 772 OFFCURVE",
"701 772 CURVE SMOOTH",
"672 772 OFFCURVE",
"656 752 OFFCURVE",
"656 729 CURVE SMOOTH",
"656 695 OFFCURVE",
"689 688 OFFCURVE",
"689 653 CURVE SMOOTH",
"689 617 OFFCURVE",
"658 588 OFFCURVE",
"623 568 CURVE",
"623 543 LINE"
);
}
);
};
components = (
{
name = hookabovecomb;
transform = "{1, 0, 0, 1, 629, 230}";
},
{
name = Ohorn;
}
);
layerId = "0B1DFD06-3317-40CA-B510-4969A0718C16";
width = 755;
}
);
leftKerningGroup = O;
note = Ohornhookabove;
rightKerningGroup = O;
unicode = 1EDE;
},
{
color = 4;
glyphname = Ohorntilde;
lastChange = "2018-02-20 09:01:26 +0000";
layers = (
{
background = {
paths = (
{
closed = 1;
nodes = (
"602 -10 OFFCURVE",
"720 124 OFFCURVE",
"720 350 CURVE SMOOTH",
"720 574 OFFCURVE",
"602 710 OFFCURVE",
"379 710 CURVE SMOOTH",
"155 710 OFFCURVE",
"37 574 OFFCURVE",
"37 350 CURVE SMOOTH",
"37 124 OFFCURVE",
"155 -10 OFFCURVE",
"379 -10 CURVE SMOOTH"
);
},
{
closed = 1;
nodes = (
"216 32 OFFCURVE",
"136 158 OFFCURVE",
"136 350 CURVE SMOOTH",
"136 541 OFFCURVE",
"216 668 OFFCURVE",
"378 668 CURVE SMOOTH",
"542 668 OFFCURVE",
"621 541 OFFCURVE",
"621 350 CURVE SMOOTH",
"621 158 OFFCURVE",
"542 32 OFFCURVE",
"378 32 CURVE SMOOTH"
);
},
{
closed = 1;
nodes = (
"234 828 OFFCURVE",
"252 849 OFFCURVE",
"285 849 CURVE SMOOTH",
"336 849 OFFCURVE",
"385 795 OFFCURVE",
"436 795 CURVE SMOOTH",
"494 795 OFFCURVE",
"524 843 OFFCURVE",
"536 895 CURVE",
"515 906 LINE",
"499 866 OFFCURVE",
"483 844 OFFCURVE",
"449 844 CURVE SMOOTH",
"400 844 OFFCURVE",
"348 897 OFFCURVE",
"297 897 CURVE SMOOTH",
"243 897 OFFCURVE",
"210 853 OFFCURVE",
"198 801 CURVE",
"220 790 LINE"
);
},
{
closed = 1;
nodes = (
"691 567 OFFCURVE",
"756 632 OFFCURVE",
"756 705 CURVE SMOOTH",
"756 752 OFFCURVE",
"729 772 OFFCURVE",
"701 772 CURVE SMOOTH",
"672 772 OFFCURVE",
"656 752 OFFCURVE",
"656 729 CURVE SMOOTH",
"656 695 OFFCURVE",
"689 688 OFFCURVE",
"689 653 CURVE SMOOTH",
"689 617 OFFCURVE",
"658 588 OFFCURVE",
"623 568 CURVE",
"623 543 LINE"
);
}
);
};
components = (
{
name = Ohorn;
},
{
name = tildecomb;
transform = "{1, 0, 0, 1, 246, 191}";
}
);
layerId = "0B1DFD06-3317-40CA-B510-4969A0718C16";
width = 820;
}
);
leftKerningGroup = O;
note = Ohorntilde;
rightKerningGroup = O;
unicode = 1EE0;
},
{
color = 4;
glyphname = Ohungarumlaut;
lastChange = "2018-02-20 09:01:26 +0000";
layers = (
{
background = {
paths = (
{
closed = 1;
nodes = (
"601 -10 OFFCURVE",
"719 124 OFFCURVE",
"719 350 CURVE SMOOTH",
"719 574 OFFCURVE",
"601 710 OFFCURVE",
"378 710 CURVE SMOOTH",
"154 710 OFFCURVE",
"36 574 OFFCURVE",
"36 350 CURVE SMOOTH",
"36 124 OFFCURVE",
"154 -10 OFFCURVE",
"378 -10 CURVE SMOOTH"
);
},
{
closed = 1;
nodes = (
"215 32 OFFCURVE",
"135 158 OFFCURVE",
"135 350 CURVE SMOOTH",
"135 541 OFFCURVE",
"215 668 OFFCURVE",
"377 668 CURVE SMOOTH",
"541 668 OFFCURVE",
"620 541 OFFCURVE",
"620 350 CURVE SMOOTH",
"620 158 OFFCURVE",
"541 32 OFFCURVE",
"377 32 CURVE SMOOTH"
);
},
{
closed = 1;
nodes = (
"395 864 LINE SMOOTH",
"417 877 OFFCURVE",
"429 891 OFFCURVE",
"429 908 CURVE SMOOTH",
"429 922 OFFCURVE",
"421 937 OFFCURVE",
"399 937 CURVE SMOOTH",
"378 937 OFFCURVE",
"357 919 OFFCURVE",
"350 913 CURVE",
"236 807 LINE",
"253 782 LINE"
);
},
{
closed = 1;
nodes = (
"556 864 LINE SMOOTH",
"577 877 OFFCURVE",
"589 891 OFFCURVE",
"589 908 CURVE SMOOTH",
"589 922 OFFCURVE",
"578 937 OFFCURVE",
"556 937 CURVE SMOOTH",
"534 937 OFFCURVE",
"517 919 OFFCURVE",
"510 913 CURVE",
"396 807 LINE",
"414 782 LINE"
);
}
);
};
components = (
{
name = O;
},
{
name = hungarumlaut;
transform = "{1, 0, 0, 1, 190, 230}";
}
);
layerId = "0B1DFD06-3317-40CA-B510-4969A0718C16";
width = 820;
}
);
leftKerningGroup = O;
note = Ohungarumlaut;
rightKerningGroup = O;
unicode = 0150;
},
{
color = 4;
glyphname = Omacron;
lastChange = "2018-02-20 09:01:26 +0000";
layers = (
{
background = {
paths = (
{
closed = 1;
nodes = (
"601 -10 OFFCURVE",
"719 124 OFFCURVE",
"719 350 CURVE SMOOTH",
"719 574 OFFCURVE",
"601 710 OFFCURVE",
"378 710 CURVE SMOOTH",
"154 710 OFFCURVE",
"36 574 OFFCURVE",
"36 350 CURVE SMOOTH",
"36 124 OFFCURVE",
"154 -10 OFFCURVE",
"378 -10 CURVE SMOOTH"
);
},
{
closed = 1;
nodes = (
"215 32 OFFCURVE",
"135 158 OFFCURVE",
"135 350 CURVE SMOOTH",
"135 541 OFFCURVE",
"215 668 OFFCURVE",
"377 668 CURVE SMOOTH",
"541 668 OFFCURVE",
"620 541 OFFCURVE",
"620 350 CURVE SMOOTH",
"620 158 OFFCURVE",
"541 32 OFFCURVE",
"377 32 CURVE SMOOTH"
);
},
{
closed = 1;
nodes = (
"543 793 LINE",
"543 835 LINE",
"210 835 LINE",
"210 793 LINE"
);
}
);
};
components = (
{
name = O;
},
{
name = macron;
transform = "{1, 0, 0, 1, 249, 230}";
}
);
layerId = "0B1DFD06-3317-40CA-B510-4969A0718C16";
width = 820;
}
);
leftKerningGroup = O;
note = Omacron;
rightKerningGroup = O;
unicode = 014C;
},
{
color = 4;
glyphname = Oslash;
lastChange = "2018-02-20 09:01:26 +0000";
layers = (
{
anchors = (
{
name = bottom;
position = "{418, 0}";
},
{
name = top;
position = "{418, 700}";
}
);
layerId = "0B1DFD06-3317-40CA-B510-4969A0718C16";
paths = (
{
closed = 1;
nodes = (
"216 -69 OFFCURVE",
"240 -61 OFFCURVE",
"256 -29 CURVE SMOOTH",
"654 760 LINE",
"622 776 OFFCURVE",
"598 767 OFFCURVE",
"583 736 CURVE SMOOTH",
"186 -52 LINE"
);
},
{
closed = 1;
nodes = (
"616 -9 OFFCURVE",
"778 150 OFFCURVE",
"778 349 CURVE SMOOTH",
"778 548 OFFCURVE",
"616 709 OFFCURVE",
"417 709 CURVE SMOOTH",
"218 709 OFFCURVE",
"58 548 OFFCURVE",
"58 349 CURVE SMOOTH",
"58 150 OFFCURVE",
"218 -9 OFFCURVE",
"417 -9 CURVE SMOOTH"
);
},
{
closed = 1;
nodes = (
"251 46 OFFCURVE",
"119 170 OFFCURVE",
"119 349 CURVE SMOOTH",
"119 529 OFFCURVE",
"251 654 OFFCURVE",
"417 654 CURVE SMOOTH",
"584 654 OFFCURVE",
"717 529 OFFCURVE",
"717 349 CURVE SMOOTH",
"717 170 OFFCURVE",
"584 46 OFFCURVE",
"417 46 CURVE SMOOTH"
);
}
);
width = 836;
}
);
note = Oslash;
unicode = 00D8;
},
{
color = 4;
glyphname = OE;
lastChange = "2018-02-20 09:01:26 +0000";
layers = (
{
anchors = (
{
name = bottom;
position = "{420, 0}";
},
{
name = center;
position = "{420, 350}";
},
{
name = ogonek;
position = "{748, 10}";
},
{
name = top;
position = "{420, 700}";
},
{
name = topleft;
position = "{30, 700}";
},
{
name = topright;
position = "{692, 567}";
}
);
layerId = "0B1DFD06-3317-40CA-B510-4969A0718C16";
paths = (
{
closed = 1;
nodes = (
"60 150 OFFCURVE",
"205 -9 OFFCURVE",
"404 -9 CURVE SMOOTH",
"468 -9 OFFCURVE",
"524 8 OFFCURVE",
"576 37 CURVE",
"576 29 LINE SMOOTH",
"576 13 OFFCURVE",
"588 0 OFFCURVE",
"606 0 CURVE SMOOTH",
"1046 0 LINE",
"1046 35 OFFCURVE",
"1028 53 OFFCURVE",
"993 53 CURVE SMOOTH",
"634 53 LINE",
"634 326 LINE",
"852 326 LINE SMOOTH",
"888 326 OFFCURVE",
"906 344 OFFCURVE",
"906 379 CURVE",
"634 379 LINE",
"634 647 LINE",
"972 647 LINE SMOOTH",
"1008 647 OFFCURVE",
"1026 665 OFFCURVE",
"1026 700 CURVE",
"606 700 LINE SMOOTH",
"590 700 OFFCURVE",
"576 688 OFFCURVE",
"576 671 CURVE SMOOTH",
"576 663 LINE",
"524 692 OFFCURVE",
"468 709 OFFCURVE",
"404 709 CURVE SMOOTH",
"205 709 OFFCURVE",
"60 548 OFFCURVE",
"60 349 CURVE SMOOTH"
);
},
{
closed = 1;
nodes = (
"121 529 OFFCURVE",
"238 654 OFFCURVE",
"404 654 CURVE SMOOTH",
"470 654 OFFCURVE",
"527 634 OFFCURVE",
"576 599 CURVE",
"576 100 LINE",
"527 65 OFFCURVE",
"470 46 OFFCURVE",
"404 46 CURVE SMOOTH",
"238 46 OFFCURVE",
"121 170 OFFCURVE",
"121 349 CURVE SMOOTH"
);
}
);
width = 1106;
}
);
note = OE;
unicode = 0152;
},
{
color = 4;
glyphname = Thorn;
lastChange = "2018-02-20 09:01:26 +0000";
layers = (
{
layerId = "0B1DFD06-3317-40CA-B510-4969A0718C16";
paths = (
{
closed = 1;
nodes = (
"119 -9 OFFCURVE",
"139 12 OFFCURVE",
"139 50 CURVE SMOOTH",
"139 149 LINE",
"345 149 LINE SMOOTH",
"464 149 OFFCURVE",
"552 221 OFFCURVE",
"552 353 CURVE SMOOTH",
"552 480 OFFCURVE",
"464 555 OFFCURVE",
"345 555 CURVE SMOOTH",
"139 555 LINE",
"139 641 LINE SMOOTH",
"139 679 OFFCURVE",
"119 700 OFFCURVE",
"80 700 CURVE",
"80 -9 LINE"
);
},
{
closed = 1;
nodes = (
"139 502 LINE",
"345 502 LINE SMOOTH",
"431 502 OFFCURVE",
"493 446 OFFCURVE",
"493 353 CURVE SMOOTH",
"493 255 OFFCURVE",
"431 202 OFFCURVE",
"345 202 CURVE SMOOTH",
"139 202 LINE"
);
}
);
width = 612;
}
);
note = Thorn;
unicode = 00DE;
},
{
color = 4;
glyphname = Germandbls;
lastChange = "2018-02-20 09:01:26 +0000";
layers = (
{
layerId = "0B1DFD06-3317-40CA-B510-4969A0718C16";
paths = (
{
closed = 1;
nodes = (
"305 346 LINE",
"426 333 OFFCURVE",
"482 298 OFFCURVE",
"482 190 CURVE SMOOTH",
"482 95 OFFCURVE",
"443 40 OFFCURVE",
"340 40 CURVE SMOOTH",
"292 40 OFFCURVE",
"249 49 OFFCURVE",
"228 64 CURVE",
"224 59 OFFCURVE",
"222 54 OFFCURVE",
"222 45 CURVE SMOOTH",
"222 18 OFFCURVE",
"262 -9 OFFCURVE",
"343 -9 CURVE SMOOTH",
"477 -9 OFFCURVE",
"543 78 OFFCURVE",
"543 190 CURVE SMOOTH",
"543 289 OFFCURVE",
"492 362 OFFCURVE",
"359 389 CURVE",
"496 532 LINE",
"496 626 OFFCURVE",
"414 700 OFFCURVE",
"286 700 CURVE SMOOTH",
"146 700 OFFCURVE",
"80 602 OFFCURVE",
"80 480 CURVE SMOOTH",
"80 -9 LINE",
"116 -9 OFFCURVE",
"134 9 OFFCURVE",
"134 44 CURVE SMOOTH",
"134 480 LINE SMOOTH",
"134 582 OFFCURVE",
"175 652 OFFCURVE",
"284 652 CURVE SMOOTH",
"380 652 OFFCURVE",
"435 613 OFFCURVE",
"435 533 CURVE",
"305 395 LINE"
);
}
);
width = 603;
}
);
note = uni1E9E;
unicode = 1E9E;
},
{
color = 4;
glyphname = Schwa;
lastChange = "2018-02-20 09:01:26 +0000";
layers = (
{
layerId = "0B1DFD06-3317-40CA-B510-4969A0718C16";
paths = (
{
closed = 1;
nodes = (
"561 239 LINE SMOOTH",
"561 122 OFFCURVE",
"469 46 OFFCURVE",
"346 46 CURVE SMOOTH",
"222 46 OFFCURVE",
"130 122 OFFCURVE",
"130 239 CURVE SMOOTH",
"130 311 LINE",
"561 311 LINE"
);
},
{
closed = 1;
nodes = (
"205 709 OFFCURVE",
"84 634 OFFCURVE",
"84 533 CURVE SMOOTH",
"84 500 OFFCURVE",
"106 484 OFFCURVE",
"129 484 CURVE",
"129 590 OFFCURVE",
"216 654 OFFCURVE",
"346 654 CURVE SMOOTH",
"479 654 OFFCURVE",
"561 580 OFFCURVE",
"561 464 CURVE SMOOTH",
"561 366 LINE",
"107 366 LINE SMOOTH",
"89 366 OFFCURVE",
"70 350 OFFCURVE",
"70 330 CURVE SMOOTH",
"70 239 LINE SMOOTH",
"70 96 OFFCURVE",
"193 -9 OFFCURVE",
"346 -9 CURVE SMOOTH",
"500 -9 OFFCURVE",
"622 96 OFFCURVE",
"622 239 CURVE SMOOTH",
"622 464 LINE SMOOTH",
"622 606 OFFCURVE",
"514 709 OFFCURVE",
"346 709 CURVE SMOOTH"
);
}
);
width = 692;
}
);
note = uni018F;
unicode = 018F;
},
{
color = 4;
glyphname = Tbar;
lastChange = "2018-02-20 09:01:26 +0000";
layers = (
{
components = (
{
name = T;
}
);
layerId = "0B1DFD06-3317-40CA-B510-4969A0718C16";
paths = (
{
closed = 1;
nodes = (
"426 350 LINE SMOOTH",
"461 350 OFFCURVE",
"476 368 OFFCURVE",
"476 403 CURVE",
"208 403 LINE SMOOTH",
"173 403 OFFCURVE",
"158 386 OFFCURVE",
"158 350 CURVE"
);
}
);
width = 652;
}
);
leftKerningGroup = T;
note = Tbar;
rightKerningGroup = T;
unicode = 0166;
},
{
color = 4;
glyphname = Uacute;
lastChange = "2018-02-20 09:01:26 +0000";
layers = (
{
background = {
paths = (
{
closed = 1;
nodes = (
"539 -10 OFFCURVE",
"636 51 OFFCURVE",
"636 204 CURVE SMOOTH",
"636 637 LINE SMOOTH",
"636 662 OFFCURVE",
"660 673 OFFCURVE",
"690 673 CURVE SMOOTH",
"713 673 LINE",
"713 700 LINE",
"510 700 LINE",
"510 673 LINE",
"532 673 LINE SMOOTH",
"564 673 OFFCURVE",
"586 662 OFFCURVE",
"586 637 CURVE SMOOTH",
"586 197 LINE SMOOTH",
"586 65 OFFCURVE",
"489 31 OFFCURVE",
"397 31 CURVE SMOOTH",
"290 31 OFFCURVE",
"203 63 OFFCURVE",
"203 197 CURVE SMOOTH",
"203 637 LINE SMOOTH",
"203 662 OFFCURVE",
"226 673 OFFCURVE",
"257 673 CURVE SMOOTH",
"280 673 LINE",
"280 700 LINE",
"28 700 LINE",
"28 673 LINE",
"51 673 LINE SMOOTH",
"82 673 OFFCURVE",
"105 662 OFFCURVE",
"105 637 CURVE SMOOTH",
"105 204 LINE SMOOTH",
"105 46 OFFCURVE",
"208 -10 OFFCURVE",
"375 -10 CURVE SMOOTH"
);
},
{
closed = 1;
nodes = (
"447 865 LINE SMOOTH",
"469 877 OFFCURVE",
"481 890 OFFCURVE",
"481 907 CURVE SMOOTH",
"481 922 OFFCURVE",
"469 937 OFFCURVE",
"447 937 CURVE SMOOTH",
"426 937 OFFCURVE",
"411 921 OFFCURVE",
"403 914 CURVE SMOOTH",
"288 807 LINE",
"305 782 LINE"
);
}
);
};
components = (
{
name = U;
},
{
name = acutecomb;
transform = "{1, 0, 0, 1, 257, 230}";
}
);
layerId = "0B1DFD06-3317-40CA-B510-4969A0718C16";
width = 672;
}
);
leftKerningGroup = U;
note = Uacute;
rightKerningGroup = U;
unicode = 00DA;
},
{
color = 4;
glyphname = Ubreve;
lastChange = "2018-02-20 09:01:26 +0000";
layers = (
{
background = {
paths = (
{
closed = 1;
nodes = (
"539 -10 OFFCURVE",
"636 51 OFFCURVE",
"636 204 CURVE SMOOTH",
"636 637 LINE SMOOTH",
"636 662 OFFCURVE",
"660 673 OFFCURVE",
"690 673 CURVE SMOOTH",
"713 673 LINE",
"713 700 LINE",
"510 700 LINE",
"510 673 LINE",
"532 673 LINE SMOOTH",
"564 673 OFFCURVE",
"586 662 OFFCURVE",
"586 637 CURVE SMOOTH",
"586 197 LINE SMOOTH",
"586 65 OFFCURVE",
"489 31 OFFCURVE",
"397 31 CURVE SMOOTH",
"290 31 OFFCURVE",
"203 63 OFFCURVE",
"203 197 CURVE SMOOTH",
"203 637 LINE SMOOTH",
"203 662 OFFCURVE",
"226 673 OFFCURVE",
"257 673 CURVE SMOOTH",
"280 673 LINE",
"280 700 LINE",
"28 700 LINE",
"28 673 LINE",
"51 673 LINE SMOOTH",
"82 673 OFFCURVE",
"105 662 OFFCURVE",
"105 637 CURVE SMOOTH",
"105 204 LINE SMOOTH",
"105 46 OFFCURVE",
"208 -10 OFFCURVE",
"375 -10 CURVE SMOOTH"
);
},
{
closed = 1;
nodes = (
"483 774 OFFCURVE",
"525 830 OFFCURVE",
"529 905 CURVE",
"496 905 LINE",
"490 846 OFFCURVE",
"448 820 OFFCURVE",
"384 820 CURVE SMOOTH",
"320 820 OFFCURVE",
"277 846 OFFCURVE",
"270 905 CURVE",
"237 905 LINE",
"241 827 OFFCURVE",
"283 774 OFFCURVE",
"384 774 CURVE SMOOTH"
);
}
);
};
components = (
{
name = U;
},
{
name = brevecomb;
transform = "{1, 0, 0, 1, 336, 230}";
}
);
layerId = "0B1DFD06-3317-40CA-B510-4969A0718C16";
width = 672;
}
);
leftKerningGroup = U;
note = Ubreve;
rightKerningGroup = U;
unicode = 016C;
},
{
color = 4;
glyphname = Ucaron;
lastChange = "2018-02-20 09:01:26 +0000";
layers = (
{
background = {
paths = (
{
closed = 1;
nodes = (
"539 -10 OFFCURVE",
"636 51 OFFCURVE",
"636 204 CURVE SMOOTH",
"636 637 LINE SMOOTH",
"636 662 OFFCURVE",
"660 673 OFFCURVE",
"690 673 CURVE SMOOTH",
"713 673 LINE",
"713 700 LINE",
"510 700 LINE",
"510 673 LINE",
"532 673 LINE SMOOTH",
"564 673 OFFCURVE",
"586 662 OFFCURVE",
"586 637 CURVE SMOOTH",
"586 197 LINE SMOOTH",
"586 65 OFFCURVE",
"489 31 OFFCURVE",
"397 31 CURVE SMOOTH",
"290 31 OFFCURVE",
"203 63 OFFCURVE",
"203 197 CURVE SMOOTH",
"203 637 LINE SMOOTH",
"203 662 OFFCURVE",
"226 673 OFFCURVE",
"257 673 CURVE SMOOTH",
"280 673 LINE",
"280 700 LINE",
"28 700 LINE",
"28 673 LINE",
"51 673 LINE SMOOTH",
"82 673 OFFCURVE",
"105 662 OFFCURVE",
"105 637 CURVE SMOOTH",
"105 204 LINE SMOOTH",
"105 46 OFFCURVE",
"208 -10 OFFCURVE",
"375 -10 CURVE SMOOTH"
);
},
{
closed = 1;
nodes = (
"397 782 LINE",
"521 911 LINE",
"502 932 LINE",
"394 847 LINE",
"386 840 OFFCURVE",
"377 836 OFFCURVE",
"371 836 CURVE SMOOTH",
"365 836 OFFCURVE",
"357 840 OFFCURVE",
"347 847 CURVE",
"239 932 LINE",
"220 911 LINE",
"344 782 LINE"
);
}
);
};
components = (
{
name = U;
},
{
name = caron;
transform = "{1, 0, 0, 1, 114, 230}";
}
);
layerId = "0B1DFD06-3317-40CA-B510-4969A0718C16";
width = 672;
}
);
leftKerningGroup = U;
note = Ucaron;
rightKerningGroup = U;
unicode = 01D3;
},
{
color = 4;
glyphname = Ucircumflex;
lastChange = "2018-02-20 09:01:26 +0000";
layers = (
{
background = {
paths = (
{
closed = 1;
nodes = (
"539 -10 OFFCURVE",
"636 51 OFFCURVE",
"636 204 CURVE SMOOTH",
"636 637 LINE SMOOTH",
"636 662 OFFCURVE",
"660 673 OFFCURVE",
"690 673 CURVE SMOOTH",
"713 673 LINE",
"713 700 LINE",
"510 700 LINE",
"510 673 LINE",
"532 673 LINE SMOOTH",
"564 673 OFFCURVE",
"586 662 OFFCURVE",
"586 637 CURVE SMOOTH",
"586 197 LINE SMOOTH",
"586 65 OFFCURVE",
"489 31 OFFCURVE",
"397 31 CURVE SMOOTH",
"290 31 OFFCURVE",
"203 63 OFFCURVE",
"203 197 CURVE SMOOTH",
"203 637 LINE SMOOTH",
"203 662 OFFCURVE",
"226 673 OFFCURVE",
"257 673 CURVE SMOOTH",
"280 673 LINE",
"280 700 LINE",
"28 700 LINE",
"28 673 LINE",
"51 673 LINE SMOOTH",
"82 673 OFFCURVE",
"105 662 OFFCURVE",
"105 637 CURVE SMOOTH",
"105 204 LINE SMOOTH",
"105 46 OFFCURVE",
"208 -10 OFFCURVE",
"375 -10 CURVE SMOOTH"
);
},
{
closed = 1;
nodes = (
"360 868 LINE SMOOTH",
"368 874 OFFCURVE",
"378 879 OFFCURVE",
"384 879 CURVE SMOOTH",
"390 879 OFFCURVE",
"398 874 OFFCURVE",
"407 868 CURVE",
"515 782 LINE",
"534 803 LINE",
"410 932 LINE",
"357 932 LINE",
"233 803 LINE",
"252 782 LINE"
);
}
);
};
components = (
{
name = U;
},
{
name = circumflex;
transform = "{1, 0, 0, 1, 114, 230}";
}
);
layerId = "0B1DFD06-3317-40CA-B510-4969A0718C16";
width = 672;
}
);
leftKerningGroup = U;
note = Ucircumflex;
rightKerningGroup = U;
unicode = 00DB;
},
{
color = 4;
glyphname = Udieresis;
lastChange = "2018-02-20 09:01:26 +0000";
layers = (
{
background = {
paths = (
{
closed = 1;
nodes = (
"539 -10 OFFCURVE",
"636 51 OFFCURVE",
"636 204 CURVE SMOOTH",
"636 637 LINE SMOOTH",
"636 662 OFFCURVE",
"660 673 OFFCURVE",
"690 673 CURVE SMOOTH",
"713 673 LINE",
"713 700 LINE",
"510 700 LINE",
"510 673 LINE",
"532 673 LINE SMOOTH",
"564 673 OFFCURVE",
"586 662 OFFCURVE",
"586 637 CURVE SMOOTH",
"586 197 LINE SMOOTH",
"586 65 OFFCURVE",
"489 31 OFFCURVE",
"397 31 CURVE SMOOTH",
"290 31 OFFCURVE",
"203 63 OFFCURVE",
"203 197 CURVE SMOOTH",
"203 637 LINE SMOOTH",
"203 662 OFFCURVE",
"226 673 OFFCURVE",
"257 673 CURVE SMOOTH",
"280 673 LINE",
"280 700 LINE",
"28 700 LINE",
"28 673 LINE",
"51 673 LINE SMOOTH",
"82 673 OFFCURVE",
"105 662 OFFCURVE",
"105 637 CURVE SMOOTH",
"105 204 LINE SMOOTH",
"105 46 OFFCURVE",
"208 -10 OFFCURVE",
"375 -10 CURVE SMOOTH"
);
},
{
closed = 1;
nodes = (
"304 781 OFFCURVE",
"322 800 OFFCURVE",
"322 827 CURVE SMOOTH",
"322 855 OFFCURVE",
"304 875 OFFCURVE",
"275 875 CURVE SMOOTH",
"247 875 OFFCURVE",
"229 855 OFFCURVE",
"229 827 CURVE SMOOTH",
"229 800 OFFCURVE",
"247 781 OFFCURVE",
"275 781 CURVE SMOOTH"
);
},
{
closed = 1;
nodes = (
"520 781 OFFCURVE",
"538 800 OFFCURVE",
"538 827 CURVE SMOOTH",
"538 855 OFFCURVE",
"520 875 OFFCURVE",
"491 875 CURVE SMOOTH",
"462 875 OFFCURVE",
"444 855 OFFCURVE",
"444 827 CURVE SMOOTH",
"444 800 OFFCURVE",
"462 781 OFFCURVE",
"491 781 CURVE SMOOTH"
);
}
);
};
components = (
{
name = U;
},
{
name = dieresiscomb;
transform = "{1, 0, 0, 1, 337, 230}";
}
);
layerId = "0B1DFD06-3317-40CA-B510-4969A0718C16";
width = 672;
}
);
leftKerningGroup = U;
note = Udieresis;
rightKerningGroup = U;
unicode = 00DC;
},
{
color = 4;
glyphname = Udieresisacute;
lastChange = "2018-02-20 09:01:26 +0000";
layers = (
{
background = {
paths = (
{
closed = 1;
nodes = (
"539 -10 OFFCURVE",
"636 51 OFFCURVE",
"636 204 CURVE SMOOTH",
"636 637 LINE SMOOTH",
"636 662 OFFCURVE",
"660 673 OFFCURVE",
"690 673 CURVE SMOOTH",
"713 673 LINE",
"713 700 LINE",
"510 700 LINE",
"510 673 LINE",
"532 673 LINE SMOOTH",
"564 673 OFFCURVE",
"586 662 OFFCURVE",
"586 637 CURVE SMOOTH",
"586 197 LINE SMOOTH",
"586 65 OFFCURVE",
"489 31 OFFCURVE",
"397 31 CURVE SMOOTH",
"290 31 OFFCURVE",
"203 63 OFFCURVE",
"203 197 CURVE SMOOTH",
"203 637 LINE SMOOTH",
"203 662 OFFCURVE",
"226 673 OFFCURVE",
"257 673 CURVE SMOOTH",
"280 673 LINE",
"280 700 LINE",
"28 700 LINE",
"28 673 LINE",
"51 673 LINE SMOOTH",
"82 673 OFFCURVE",
"105 662 OFFCURVE",
"105 637 CURVE SMOOTH",
"105 204 LINE SMOOTH",
"105 46 OFFCURVE",
"208 -10 OFFCURVE",
"375 -10 CURVE SMOOTH"
);
},
{
closed = 1;
nodes = (
"291 780 OFFCURVE",
"310 799 OFFCURVE",
"310 827 CURVE SMOOTH",
"310 855 OFFCURVE",
"291 875 OFFCURVE",
"262 875 CURVE SMOOTH",
"235 875 OFFCURVE",
"216 855 OFFCURVE",
"216 827 CURVE SMOOTH",
"216 799 OFFCURVE",
"235 780 OFFCURVE",
"262 780 CURVE SMOOTH"
);
},
{
closed = 1;
nodes = (
"507 780 OFFCURVE",
"526 799 OFFCURVE",
"526 827 CURVE SMOOTH",
"526 855 OFFCURVE",
"507 875 OFFCURVE",
"479 875 CURVE SMOOTH",
"451 875 OFFCURVE",
"432 855 OFFCURVE",
"432 827 CURVE SMOOTH",
"432 799 OFFCURVE",
"451 780 OFFCURVE",
"479 780 CURVE SMOOTH"
);
},
{
closed = 1;
nodes = (
"481 969 LINE SMOOTH",
"502 981 OFFCURVE",
"512 993 OFFCURVE",
"512 1009 CURVE SMOOTH",
"512 1024 OFFCURVE",
"503 1037 OFFCURVE",
"481 1037 CURVE SMOOTH",
"460 1037 OFFCURVE",
"442 1020 OFFCURVE",
"435 1013 CURVE SMOOTH",
"344 924 LINE",
"362 899 LINE"
);
}
);
};
components = (
{
name = U;
},
{
name = dieresisacute;
transform = "{1, 0, 0, 1, 143, 230}";
}
);
layerId = "0B1DFD06-3317-40CA-B510-4969A0718C16";
width = 672;
}
);
leftKerningGroup = U;
note = Udieresisacute;
rightKerningGroup = U;
unicode = 01D7;
},
{
color = 4;
glyphname = Udieresiscaron;
lastChange = "2018-02-20 09:01:26 +0000";
layers = (
{
background = {
paths = (
{
closed = 1;
nodes = (
"539 -10 OFFCURVE",
"636 51 OFFCURVE",
"636 204 CURVE SMOOTH",
"636 637 LINE SMOOTH",
"636 662 OFFCURVE",
"660 673 OFFCURVE",
"690 673 CURVE SMOOTH",
"713 673 LINE",
"713 700 LINE",
"510 700 LINE",
"510 673 LINE",
"532 673 LINE SMOOTH",
"564 673 OFFCURVE",
"586 662 OFFCURVE",
"586 637 CURVE SMOOTH",
"586 197 LINE SMOOTH",
"586 65 OFFCURVE",
"489 31 OFFCURVE",
"397 31 CURVE SMOOTH",
"290 31 OFFCURVE",
"203 63 OFFCURVE",
"203 197 CURVE SMOOTH",
"203 637 LINE SMOOTH",
"203 662 OFFCURVE",
"226 673 OFFCURVE",
"257 673 CURVE SMOOTH",
"280 673 LINE",
"280 700 LINE",
"28 700 LINE",
"28 673 LINE",
"51 673 LINE SMOOTH",
"82 673 OFFCURVE",
"105 662 OFFCURVE",
"105 637 CURVE SMOOTH",
"105 204 LINE SMOOTH",
"105 46 OFFCURVE",
"208 -10 OFFCURVE",
"375 -10 CURVE SMOOTH"
);
},
{
closed = 1;
nodes = (
"296 780 OFFCURVE",
"315 799 OFFCURVE",
"315 827 CURVE SMOOTH",
"315 855 OFFCURVE",
"296 875 OFFCURVE",
"267 875 CURVE SMOOTH",
"240 875 OFFCURVE",
"221 855 OFFCURVE",
"221 827 CURVE SMOOTH",
"221 799 OFFCURVE",
"240 780 OFFCURVE",
"267 780 CURVE SMOOTH"
);
},
{
closed = 1;
nodes = (
"512 780 OFFCURVE",
"531 799 OFFCURVE",
"531 827 CURVE SMOOTH",
"531 855 OFFCURVE",
"512 875 OFFCURVE",
"484 875 CURVE SMOOTH",
"456 875 OFFCURVE",
"437 855 OFFCURVE",
"437 827 CURVE SMOOTH",
"437 799 OFFCURVE",
"456 780 OFFCURVE",
"484 780 CURVE SMOOTH"
);
},
{
closed = 1;
nodes = (
"401 911 LINE",
"523 1035 LINE",
"505 1056 LINE",
"404 978 LINE",
"394 971 OFFCURVE",
"385 963 OFFCURVE",
"376 963 CURVE SMOOTH",
"369 963 OFFCURVE",
"357 971 OFFCURVE",
"347 978 CURVE",
"246 1056 LINE",
"228 1035 LINE",
"350 911 LINE"
);
}
);
};
components = (
{
name = U;
},
{
name = dieresiscaron;
transform = "{1, 0, 0, 1, 133, 230}";
}
);
layerId = "0B1DFD06-3317-40CA-B510-4969A0718C16";
width = 672;
}
);
leftKerningGroup = U;
note = Udieresiscaron;
rightKerningGroup = U;
unicode = 01D9;
},
{
color = 4;
glyphname = Udieresisgrave;
lastChange = "2018-02-20 09:01:26 +0000";
layers = (
{
background = {
paths = (
{
closed = 1;
nodes = (
"539 -10 OFFCURVE",
"636 51 OFFCURVE",
"636 204 CURVE SMOOTH",
"636 637 LINE SMOOTH",
"636 662 OFFCURVE",
"660 673 OFFCURVE",
"690 673 CURVE SMOOTH",
"713 673 LINE",
"713 700 LINE",
"510 700 LINE",
"510 673 LINE",
"532 673 LINE SMOOTH",
"564 673 OFFCURVE",
"586 662 OFFCURVE",
"586 637 CURVE SMOOTH",
"586 197 LINE SMOOTH",
"586 65 OFFCURVE",
"489 31 OFFCURVE",
"397 31 CURVE SMOOTH",
"290 31 OFFCURVE",
"203 63 OFFCURVE",
"203 197 CURVE SMOOTH",
"203 637 LINE SMOOTH",
"203 662 OFFCURVE",
"226 673 OFFCURVE",
"257 673 CURVE SMOOTH",
"280 673 LINE",
"280 700 LINE",
"28 700 LINE",
"28 673 LINE",
"51 673 LINE SMOOTH",
"82 673 OFFCURVE",
"105 662 OFFCURVE",
"105 637 CURVE SMOOTH",
"105 204 LINE SMOOTH",
"105 46 OFFCURVE",
"208 -10 OFFCURVE",
"375 -10 CURVE SMOOTH"
);
},
{
closed = 1;
nodes = (
"296 780 OFFCURVE",
"315 799 OFFCURVE",
"315 827 CURVE SMOOTH",
"315 855 OFFCURVE",
"296 875 OFFCURVE",
"267 875 CURVE SMOOTH",
"240 875 OFFCURVE",
"221 855 OFFCURVE",
"221 827 CURVE SMOOTH",
"221 799 OFFCURVE",
"240 780 OFFCURVE",
"267 780 CURVE SMOOTH"
);
},
{
closed = 1;
nodes = (
"403 924 LINE",
"312 1013 LINE SMOOTH",
"305 1020 OFFCURVE",
"288 1036 OFFCURVE",
"267 1036 CURVE SMOOTH",
"245 1036 OFFCURVE",
"235 1024 OFFCURVE",
"235 1009 CURVE SMOOTH",
"235 993 OFFCURVE",
"245 981 OFFCURVE",
"266 969 CURVE SMOOTH",
"385 899 LINE"
);
},
{
closed = 1;
nodes = (
"512 780 OFFCURVE",
"531 799 OFFCURVE",
"531 827 CURVE SMOOTH",
"531 855 OFFCURVE",
"512 875 OFFCURVE",
"484 875 CURVE SMOOTH",
"456 875 OFFCURVE",
"437 855 OFFCURVE",
"437 827 CURVE SMOOTH",
"437 799 OFFCURVE",
"456 780 OFFCURVE",
"484 780 CURVE SMOOTH"
);
}
);
};
components = (
{
name = U;
},
{
name = dieresisgrave;
transform = "{1, 0, 0, 1, 143, 230}";
}
);
layerId = "0B1DFD06-3317-40CA-B510-4969A0718C16";
width = 672;
}
);
leftKerningGroup = U;
note = Udieresisgrave;
rightKerningGroup = U;
unicode = 01DB;
},
{
color = 4;
glyphname = Udieresismacron;
lastChange = "2018-02-20 09:01:26 +0000";
layers = (
{
background = {
paths = (
{
closed = 1;
nodes = (
"539 -10 OFFCURVE",
"636 51 OFFCURVE",
"636 204 CURVE SMOOTH",
"636 637 LINE SMOOTH",
"636 662 OFFCURVE",
"660 673 OFFCURVE",
"690 673 CURVE SMOOTH",
"713 673 LINE",
"713 700 LINE",
"510 700 LINE",
"510 673 LINE",
"532 673 LINE SMOOTH",
"564 673 OFFCURVE",
"586 662 OFFCURVE",
"586 637 CURVE SMOOTH",
"586 197 LINE SMOOTH",
"586 65 OFFCURVE",
"489 31 OFFCURVE",
"397 31 CURVE SMOOTH",
"290 31 OFFCURVE",
"203 63 OFFCURVE",
"203 197 CURVE SMOOTH",
"203 637 LINE SMOOTH",
"203 662 OFFCURVE",
"226 673 OFFCURVE",
"257 673 CURVE SMOOTH",
"280 673 LINE",
"280 700 LINE",
"28 700 LINE",
"28 673 LINE",
"51 673 LINE SMOOTH",
"82 673 OFFCURVE",
"105 662 OFFCURVE",
"105 637 CURVE SMOOTH",
"105 204 LINE SMOOTH",
"105 46 OFFCURVE",
"208 -10 OFFCURVE",
"375 -10 CURVE SMOOTH"
);
},
{
closed = 1;
nodes = (
"291 781 OFFCURVE",
"309 800 OFFCURVE",
"309 827 CURVE SMOOTH",
"309 855 OFFCURVE",
"291 875 OFFCURVE",
"262 875 CURVE SMOOTH",
"234 875 OFFCURVE",
"216 855 OFFCURVE",
"216 827 CURVE SMOOTH",
"216 800 OFFCURVE",
"234 781 OFFCURVE",
"262 781 CURVE SMOOTH"
);
},
{
closed = 1;
nodes = (
"507 781 OFFCURVE",
"525 800 OFFCURVE",
"525 827 CURVE SMOOTH",
"525 855 OFFCURVE",
"507 875 OFFCURVE",
"478 875 CURVE SMOOTH",
"449 875 OFFCURVE",
"431 855 OFFCURVE",
"431 827 CURVE SMOOTH",
"431 800 OFFCURVE",
"449 781 OFFCURVE",
"478 781 CURVE SMOOTH"
);
},
{
closed = 1;
nodes = (
"537 928 LINE",
"537 970 LINE",
"204 970 LINE",
"204 928 LINE"
);
}
);
};
components = (
{
name = U;
},
{
name = dieresis;
transform = "{1, 0, 0, 1, 174, 230}";
},
{
alignment = -1;
name = macron;
transform = "{1, 0, 0, 1, 145, 356}";
}
);
layerId = "0B1DFD06-3317-40CA-B510-4969A0718C16";
width = 742;
}
);
leftKerningGroup = U;
note = Udieresismacron;
rightKerningGroup = U;
unicode = 01D5;
},
{
color = 4;
glyphname = Uhorn;
lastChange = "2018-02-20 09:01:26 +0000";
layers = (
{
anchors = (
{
name = bottom;
position = "{364, 0}";
},
{
name = top;
position = "{364, 700}";
}
);
layerId = "0B1DFD06-3317-40CA-B510-4969A0718C16";
paths = (
{
closed = 1;
nodes = (
"620 500 LINE",
"712 500 OFFCURVE",
"744 594 OFFCURVE",
"744 652 CURVE SMOOTH",
"744 690 OFFCURVE",
"726 709 OFFCURVE",
"688 709 CURVE",
"688 612 OFFCURVE",
"676 549 OFFCURVE",
"620 549 CURVE"
);
},
{
closed = 1;
nodes = (
"492 -9 OFFCURVE",
"620 77 OFFCURVE",
"620 223 CURVE SMOOTH",
"620 709 LINE",
"581 709 OFFCURVE",
"561 688 OFFCURVE",
"561 650 CURVE SMOOTH",
"561 223 LINE SMOOTH",
"561 127 OFFCURVE",
"485 46 OFFCURVE",
"354 46 CURVE SMOOTH",
"223 46 OFFCURVE",
"147 127 OFFCURVE",
"147 223 CURVE SMOOTH",
"147 709 LINE",
"109 709 OFFCURVE",
"88 688 OFFCURVE",
"88 650 CURVE SMOOTH",
"88 223 LINE SMOOTH",
"88 77 OFFCURVE",
"216 -9 OFFCURVE",
"354 -9 CURVE SMOOTH"
);
}
);
width = 728;
}
);
note = Uhorn;
unicode = 01AF;
},
{
color = 4;
glyphname = "alpha-latin";
lastChange = "2018-02-20 09:01:26 +0000";
layers = (
{
layerId = "0B1DFD06-3317-40CA-B510-4969A0718C16";
paths = (
{
closed = 1;
nodes = (
"414 452 LINE",
"420 445 OFFCURVE",
"429 435 OFFCURVE",
"434 428 CURVE",
"432 423 LINE",
"395 466 OFFCURVE",
"349 509 OFFCURVE",
"263 509 CURVE SMOOTH",
"147 509 OFFCURVE",
"70 445 OFFCURVE",
"70 342 CURVE SMOOTH",
"70 159 LINE SMOOTH",
"70 54 OFFCURVE",
"147 -9 OFFCURVE",
"265 -9 CURVE SMOOTH",
"342 -9 OFFCURVE",
"397 34 OFFCURVE",
"432 78 CURVE",
"434 74 LINE",
"428 66 OFFCURVE",
"420 56 OFFCURVE",
"414 49 CURVE",
"414 -9 LINE",
"453 -9 OFFCURVE",
"468 11 OFFCURVE",
"468 49 CURVE SMOOTH",
"468 509 LINE",
"432 509 OFFCURVE",
"414 491 OFFCURVE",
"414 464 CURVE SMOOTH"
);
},
{
closed = 1;
nodes = (
"177 40 OFFCURVE",
"123 84 OFFCURVE",
"123 159 CURVE SMOOTH",
"123 342 LINE SMOOTH",
"123 414 OFFCURVE",
"177 460 OFFCURVE",
"267 460 CURVE SMOOTH",
"361 460 OFFCURVE",
"414 406 OFFCURVE",
"414 344 CURVE SMOOTH",
"414 154 LINE SMOOTH",
"414 91 OFFCURVE",
"349 40 OFFCURVE",
"269 40 CURVE SMOOTH"
);
}
);
width = 558;
}
);
leftKerningGroup = a;
note = ascript;
rightKerningGroup = a;
unicode = 0251;
},
{
color = 4;
glyphname = ae;
lastChange = "2018-02-20 09:01:26 +0000";
layers = (
{
anchors = (
{
name = bottom;
position = "{426, 0}";
},
{
name = ogonek;
position = "{467, 10}";
},
{
name = top;
position = "{426, 509}";
}
);
layerId = "0B1DFD06-3317-40CA-B510-4969A0718C16";
paths = (
{
closed = 1;
nodes = (
"105 231 OFFCURVE",
"159 277 OFFCURVE",
"247 277 CURVE SMOOTH",
"332.381 277 OFFCURVE",
"385.33 239.823 OFFCURVE",
"396 180.946 CURVE",
"396 168 LINE SMOOTH",
"396 160.179 OFFCURVE",
"396.45 152.525 OFFCURVE",
"397.334 145.058 CURVE",
"390.651 81.345 OFFCURVE",
"334.039 40 OFFCURVE",
"244 40 CURVE SMOOTH",
"159 40 OFFCURVE",
"105 84 OFFCURVE",
"105 158 CURVE SMOOTH"
);
},
{
closed = 1;
nodes = (
"449 330 LINE SMOOTH",
"449 404 OFFCURVE",
"506 460 OFFCURVE",
"595 460 CURVE SMOOTH",
"684 460 OFFCURVE",
"741 404 OFFCURVE",
"741 330 CURVE SMOOTH",
"741 283 LINE",
"449 283 LINE"
);
},
{
closed = 1;
nodes = (
"396 276 LINE",
"404 267 OFFCURVE",
"409 261 OFFCURVE",
"415 252 CURVE",
"412 250 LINE",
"376 294 OFFCURVE",
"324 326 OFFCURVE",
"247 326 CURVE SMOOTH",
"133 326 OFFCURVE",
"50 267 OFFCURVE",
"50 158 CURVE SMOOTH",
"50 54 OFFCURVE",
"130 -9 OFFCURVE",
"244 -9 CURVE SMOOTH",
"320 -9 OFFCURVE",
"388 23 OFFCURVE",
"424 73 CURVE",
"454 22 OFFCURVE",
"517 -9 OFFCURVE",
"595 -9 CURVE SMOOTH",
"685 -9 OFFCURVE",
"784 45 OFFCURVE",
"784 118 CURVE SMOOTH",
"784 142 OFFCURVE",
"759 159 OFFCURVE",
"742 159 CURVE",
"742 86 OFFCURVE",
"689 40 OFFCURVE",
"595 40 CURVE SMOOTH",
"499 40 OFFCURVE",
"449 91 OFFCURVE",
"449 168 CURVE SMOOTH",
"449 234 LINE",
"767 234 LINE SMOOTH",
"780 234 OFFCURVE",
"794 246 OFFCURVE",
"794 260 CURVE SMOOTH",
"794 330 LINE SMOOTH",
"794 433 OFFCURVE",
"705 509 OFFCURVE",
"595 509 CURVE SMOOTH",
"524 509 OFFCURVE",
"461 476 OFFCURVE",
"426 423 CURVE",
"396 477 OFFCURVE",
"338 509 OFFCURVE",
"260 509 CURVE SMOOTH",
"179 509 OFFCURVE",
"76 462 OFFCURVE",
"76 407 CURVE SMOOTH",
"76 391 OFFCURVE",
"86 375 OFFCURVE",
"100 364 CURVE",
"127 421 OFFCURVE",
"175 460 OFFCURVE",
"260 460 CURVE SMOOTH",
"358 460 OFFCURVE",
"396 407 OFFCURVE",
"396 338 CURVE SMOOTH"
);
}
);
width = 1037;
}
);
note = ae;
unicode = 00E6;
},
{
color = 4;
glyphname = eth;
lastChange = "2018-02-20 09:01:26 +0000";
layers = (
{
layerId = "0B1DFD06-3317-40CA-B510-4969A0718C16";
paths = (
{
closed = 1;
nodes = (
"425 -9 OFFCURVE",
"557 72 OFFCURVE",
"557 262 CURVE SMOOTH",
"557 414 OFFCURVE",
"489 544 OFFCURVE",
"368 640 CURVE",
"435 671 LINE SMOOTH",
"464 684 OFFCURVE",
"472 708 OFFCURVE",
"458 737 CURVE",
"321 674 LINE",
"276 703 OFFCURVE",
"222 730 OFFCURVE",
"170 750 CURVE",
"155 729 OFFCURVE",
"163 697 OFFCURVE",
"182 689 CURVE SMOOTH",
"212 676 OFFCURVE",
"228 668 OFFCURVE",
"264 647 CURVE",
"178 607 LINE SMOOTH",
"150 594 OFFCURVE",
"142 570 OFFCURVE",
"155 541 CURVE",
"316 615 LINE",
"377 574 OFFCURVE",
"425 526 OFFCURVE",
"463 465 CURVE",
"478 452 OFFCURVE",
"490 433 OFFCURVE",
"499 421 CURVE",
"495 417 LINE",
"447 476 OFFCURVE",
"379 509 OFFCURVE",
"308 509 CURVE SMOOTH",
"174 509 OFFCURVE",
"59 405 OFFCURVE",
"59 242 CURVE SMOOTH",
"59 100 OFFCURVE",
"158 -9 OFFCURVE",
"304 -9 CURVE SMOOTH"
);
},
{
closed = 1;
nodes = (
"209 38 OFFCURVE",
"112 112 OFFCURVE",
"112 243 CURVE SMOOTH",
"112 351 OFFCURVE",
"172 461 OFFCURVE",
"308 461 CURVE SMOOTH",
"427 461 OFFCURVE",
"500 386 OFFCURVE",
"500 255 CURVE SMOOTH",
"500 113 OFFCURVE",
"411 38 OFFCURVE",
"302 38 CURVE SMOOTH"
);
}
);
width = 616;
}
);
note = eth;
unicode = 00F0;
},
{
color = 4;
glyphname = dcaron;
lastChange = "2018-02-20 09:01:26 +0000";
layers = (
{
components = (
{
name = d;
}
);
layerId = "0B1DFD06-3317-40CA-B510-4969A0718C16";
paths = (
{
closed = 1;
nodes = (
"569 529 OFFCURVE",
"588 527 OFFCURVE",
"595 534 CURVE SMOOTH",
"629 568 OFFCURVE",
"662 610 OFFCURVE",
"662 702 CURVE SMOOTH",
"662 736 OFFCURVE",
"638 762 OFFCURVE",
"604 762 CURVE SMOOTH",
"572 762 OFFCURVE",
"548 739 OFFCURVE",
"548 705 CURVE SMOOTH",
"548 674 OFFCURVE",
"566 653 OFFCURVE",
"600 653 CURVE SMOOTH",
"607 653 OFFCURVE",
"619 656 OFFCURVE",
"621 657 CURVE",
"621 617 OFFCURVE",
"600 573 OFFCURVE",
"563 534 CURVE"
);
}
);
width = 712;
}
);
leftKerningGroup = d;
note = dcaron;
unicode = 010F;
},
{
color = 4;
glyphname = dcroat;
lastChange = "2018-02-20 09:01:26 +0000";
layers = (
{
components = (
{
name = d;
}
);
layerId = "0B1DFD06-3317-40CA-B510-4969A0718C16";
paths = (
{
closed = 1;
nodes = (
"493 569 LINE SMOOTH",
"528 569 OFFCURVE",
"543 585 OFFCURVE",
"543 616 CURVE",
"315 616 LINE SMOOTH",
"280 616 OFFCURVE",
"265 601 OFFCURVE",
"265 569 CURVE"
);
}
);
width = 593;
}
);
note = dslash;
unicode = 0111;
},
{
color = 4;
glyphname = schwa;
lastChange = "2018-02-20 09:01:26 +0000";
layers = (
{
layerId = "0B1DFD06-3317-40CA-B510-4969A0718C16";
paths = (
{
closed = 1;
nodes = (
"395 170 LINE SMOOTH",
"395 96 OFFCURVE",
"338 40 OFFCURVE",
"249 40 CURVE SMOOTH",
"160 40 OFFCURVE",
"103 96 OFFCURVE",
"103 170 CURVE SMOOTH",
"103 217 LINE",
"395 217 LINE"
);
},
{
closed = 1;
nodes = (
"159 509 OFFCURVE",
"60 455 OFFCURVE",
"60 382 CURVE SMOOTH",
"60 358 OFFCURVE",
"85 341 OFFCURVE",
"102 341 CURVE",
"102 414 OFFCURVE",
"155 460 OFFCURVE",
"249 460 CURVE SMOOTH",
"345 460 OFFCURVE",
"395 409 OFFCURVE",
"395 332 CURVE SMOOTH",
"395 266 LINE",
"77 266 LINE SMOOTH",
"64 266 OFFCURVE",
"50 254 OFFCURVE",
"50 240 CURVE SMOOTH",
"50 170 LINE SMOOTH",
"50 67 OFFCURVE",
"139 -9 OFFCURVE",
"249 -9 CURVE SMOOTH",
"360 -9 OFFCURVE",
"448 67 OFFCURVE",
"448 170 CURVE SMOOTH",
"448 332 LINE SMOOTH",
"448 435 OFFCURVE",
"370 509 OFFCURVE",
"249 509 CURVE SMOOTH"
);
}
);
width = 518;
}
);
note = schwa;
unicode = 0259;
},
{
color = 4;
glyphname = hbar;
lastChange = "2018-02-20 09:01:26 +0000";
layers = (
{
components = (
{
name = h;
}
);
layerId = "0B1DFD06-3317-40CA-B510-4969A0718C16";
paths = (
{
closed = 1;
nodes = (
"243 569 LINE SMOOTH",
"278 569 OFFCURVE",
"293 585 OFFCURVE",
"293 616 CURVE",
"65 616 LINE SMOOTH",
"30 616 OFFCURVE",
"15 601 OFFCURVE",
"15 569 CURVE"
);
}
);
width = 548;
}
);
note = hbar;
rightKerningGroup = h;
unicode = 0127;
},
{
color = 4;
glyphname = idotless;
lastChange = "2018-02-20 09:01:26 +0000";
layers = (
{
anchors = (
{
name = bottom;
position = "{115, 0}";
},
{
name = ogonek;
position = "{207, 10}";
},
{
name = top;
position = "{115, 509}";
}
);
layerId = "0B1DFD06-3317-40CA-B510-4969A0718C16";
paths = (
{
closed = 1;
nodes = (
"124 -9 OFFCURVE",
"142 9 OFFCURVE",
"142 44 CURVE SMOOTH",
"142 509 LINE",
"106 509 OFFCURVE",
"88 491 OFFCURVE",
"88 455 CURVE SMOOTH",
"88 -9 LINE"
);
}
);
width = 230;
}
);
note = dotlessi;
unicode = 0131;
},
{
color = 4;
glyphname = ij;
lastChange = "2018-02-20 09:01:26 +0000";
layers = (
{
layerId = "0B1DFD06-3317-40CA-B510-4969A0718C16";
paths = (
{
closed = 1;
nodes = (
"139 -9 OFFCURVE",
"157 9 OFFCURVE",
"157 44 CURVE SMOOTH",
"157 509 LINE",
"121 509 OFFCURVE",
"103 491 OFFCURVE",
"103 455 CURVE SMOOTH",
"103 -9 LINE"
);
},
{
closed = 1;
nodes = (
"158 609 OFFCURVE",
"180 631 OFFCURVE",
"180 659 CURVE SMOOTH",
"180 687 OFFCURVE",
"158 709 OFFCURVE",
"130 709 CURVE SMOOTH",
"102 709 OFFCURVE",
"80 687 OFFCURVE",
"80 659 CURVE SMOOTH",
"80 631 OFFCURVE",
"102 609 OFFCURVE",
"130 609 CURVE SMOOTH"
);
},
{
closed = 1;
nodes = (
"367 609 OFFCURVE",
"389 631 OFFCURVE",
"389 659 CURVE SMOOTH",
"389 687 OFFCURVE",
"367 709 OFFCURVE",
"339 709 CURVE SMOOTH",
"311 709 OFFCURVE",
"289 687 OFFCURVE",
"289 659 CURVE SMOOTH",
"289 631 OFFCURVE",
"311 609 OFFCURVE",
"339 609 CURVE SMOOTH"
);
},
{
closed = 1;
nodes = (
"312 -132 OFFCURVE",
"292 -160 OFFCURVE",
"238 -160 CURVE SMOOTH",
"214 -160 OFFCURVE",
"190 -151 OFFCURVE",
"176 -142 CURVE",
"172 -149 OFFCURVE",
"170 -154 OFFCURVE",
"170 -163 CURVE SMOOTH",
"170 -184 OFFCURVE",
"192 -209 OFFCURVE",
"235 -209 CURVE SMOOTH",
"328 -209 OFFCURVE",
"366 -149 OFFCURVE",
"366 -79 CURVE SMOOTH",
"366 509 LINE",
"330 509 OFFCURVE",
"312 491 OFFCURVE",
"312 455 CURVE SMOOTH",
"312 -75 LINE SMOOTH"
);
}
);
width = 469;
}
);
note = ij;
unicode = 0133;
},
{
color = 4;
glyphname = jdotless;
lastChange = "2018-02-20 09:01:26 +0000";
layers = (
{
anchors = (
{
name = bottom;
position = "{151, 0}";
},
{
name = top;
position = "{151, 470}";
}
);
layerId = "0B1DFD06-3317-40CA-B510-4969A0718C16";
paths = (
{
closed = 1;
nodes = (
"182 -132 OFFCURVE",
"162 -160 OFFCURVE",
"108 -160 CURVE SMOOTH",
"84 -160 OFFCURVE",
"60 -151 OFFCURVE",
"46 -142 CURVE",
"42 -149 OFFCURVE",
"40 -154 OFFCURVE",
"40 -163 CURVE SMOOTH",
"40 -184 OFFCURVE",
"62 -209 OFFCURVE",
"105 -209 CURVE SMOOTH",
"198 -209 OFFCURVE",
"236 -149 OFFCURVE",
"236 -79 CURVE SMOOTH",
"236 509 LINE",
"200 509 OFFCURVE",
"182 491 OFFCURVE",
"182 455 CURVE SMOOTH",
"182 -75 LINE SMOOTH"
);
}
);
width = 316;
}
);
leftKerningGroup = j;
note = dotlessj;
unicode = 0237;
},
{
color = 4;
glyphname = kgreenlandic;
lastChange = "2018-02-20 09:01:26 +0000";
layers = (
{
layerId = "0B1DFD06-3317-40CA-B510-4969A0718C16";
paths = (
{
closed = 1;
nodes = (
"116 -9 OFFCURVE",
"134 9 OFFCURVE",
"134 44 CURVE SMOOTH",
"134 150 LINE SMOOTH",
"134 218 OFFCURVE",
"195 271 OFFCURVE",
"287 271 CURVE SMOOTH",
"387 271 OFFCURVE",
"415 220 OFFCURVE",
"415 150 CURVE SMOOTH",
"415 -9 LINE",
"451 -9 OFFCURVE",
"468 9 OFFCURVE",
"468 44 CURVE SMOOTH",
"468 157 LINE SMOOTH",
"468 254 OFFCURVE",
"405 320 OFFCURVE",
"306 320 CURVE SMOOTH",
"291 320 OFFCURVE",
"278 318 OFFCURVE",
"259 313 CURVE",
"258 318 LINE",
"273 322 OFFCURVE",
"286 326 OFFCURVE",
"301 328 CURVE",
"428 435 LINE SMOOTH",
"456 459 OFFCURVE",
"457 478 OFFCURVE",
"439 509 CURVE",
"134 260 LINE",
"134 509 LINE",
"98 509 OFFCURVE",
"80 491 OFFCURVE",
"80 456 CURVE SMOOTH",
"80 -9 LINE"
);
}
);
width = 591;
}
);
note = kgreenlandic;
rightKerningGroup = k;
unicode = 0138;
},
{
color = 4;
glyphname = lslash;
lastChange = "2018-02-20 09:01:26 +0000";
layers = (
{
components = (
{
name = l;
}
);
layerId = "0B1DFD06-3317-40CA-B510-4969A0718C16";
paths = (
{
closed = 1;
nodes = (
"212 376 LINE SMOOTH",
"239 394 OFFCURVE",
"243 416 OFFCURVE",
"226 444 CURVE",
"25 312 LINE SMOOTH",
"-1 295 OFFCURVE",
"-7 273 OFFCURVE",
"10 245 CURVE"
);
}
);
width = 316;
}
);
note = lslash;
unicode = 0142;
},
{
color = 4;
glyphname = eng;
lastChange = "2018-02-20 09:01:26 +0000";
layers = (
{
layerId = "0B1DFD06-3317-40CA-B510-4969A0718C16";
paths = (
{
closed = 1;
nodes = (
"116 -9 OFFCURVE",
"134 9 OFFCURVE",
"134 44 CURVE SMOOTH",
"134 340 LINE SMOOTH",
"134 404 OFFCURVE",
"216 460 OFFCURVE",
"296 460 CURVE SMOOTH",
"387 460 OFFCURVE",
"424 412 OFFCURVE",
"424 340 CURVE SMOOTH",
"424 -75 LINE SMOOTH",
"424 -132 OFFCURVE",
"404 -160 OFFCURVE",
"350 -160 CURVE SMOOTH",
"326 -160 OFFCURVE",
"302 -151 OFFCURVE",
"288 -142 CURVE",
"284 -149 OFFCURVE",
"282 -154 OFFCURVE",
"282 -163 CURVE SMOOTH",
"282 -184 OFFCURVE",
"304 -209 OFFCURVE",
"347 -209 CURVE SMOOTH",
"440 -209 OFFCURVE",
"478 -149 OFFCURVE",
"478 -79 CURVE SMOOTH",
"478 340 LINE SMOOTH",
"478 438 OFFCURVE",
"417 509 OFFCURVE",
"299 509 CURVE SMOOTH",
"224 509 OFFCURVE",
"154 465 OFFCURVE",
"116 415 CURVE",
"114 420 LINE",
"119 426 OFFCURVE",
"126 435 OFFCURVE",
"132 441 CURVE",
"132 509 LINE",
"96 509 OFFCURVE",
"80 491 OFFCURVE",
"80 455 CURVE SMOOTH",
"80 -9 LINE"
);
}
);
width = 609;
}
);
leftKerningGroup = m;
note = eng;
rightKerningGroup = m;
unicode = 014B;
},
{
color = 4;
glyphname = oslash;
lastChange = "2018-02-20 09:01:26 +0000";
layers = (
{
anchors = (
{
name = top;
position = "{318, 509}";
}
);
layerId = "0B1DFD06-3317-40CA-B510-4969A0718C16";
paths = (
{
closed = 1;
nodes = (
"168 -66 OFFCURVE",
"192 -58 OFFCURVE",
"208 -26 CURVE SMOOTH",
"502 557 LINE",
"469 573 OFFCURVE",
"447 565 OFFCURVE",
"431 534 CURVE SMOOTH",
"137 -49 LINE"
);
},
{
closed = 1;
nodes = (
"460 -9 OFFCURVE",
"577 106 OFFCURVE",
"577 249 CURVE SMOOTH",
"577 392 OFFCURVE",
"460 509 OFFCURVE",
"317 509 CURVE SMOOTH",
"174 509 OFFCURVE",
"58 392 OFFCURVE",
"58 249 CURVE SMOOTH",
"58 106 OFFCURVE",
"174 -9 OFFCURVE",
"317 -9 CURVE SMOOTH"
);
},
{
closed = 1;
nodes = (
"203 40 OFFCURVE",
"113 129 OFFCURVE",
"113 249 CURVE SMOOTH",
"113 370 OFFCURVE",
"203 460 OFFCURVE",
"317 460 CURVE SMOOTH",
"430 460 OFFCURVE",
"522 370 OFFCURVE",
"522 249 CURVE SMOOTH",
"522 129 OFFCURVE",
"430 40 OFFCURVE",
"317 40 CURVE SMOOTH"
);
}
);
width = 635;
}
);
note = oslash;
unicode = 00F8;
},
{
color = 4;
glyphname = oe;
lastChange = "2018-02-20 09:01:26 +0000";
layers = (
{
anchors = (
{
name = bottom;
position = "{320, 0}";
},
{
name = center;
position = "{320, 235}";
},
{
name = ogonek;
position = "{567, 10}";
},
{
name = top;
position = "{320, 509}";
},
{
name = topright;
position = "{557, 333}";
}
);
layerId = "0B1DFD06-3317-40CA-B510-4969A0718C16";
paths = (
{
closed = 1;
nodes = (
"60 106 OFFCURVE",
"156 -9 OFFCURVE",
"299 -9 CURVE SMOOTH",
"360 -9 OFFCURVE",
"408 12 OFFCURVE",
"452 47 CURVE",
"486 12 OFFCURVE",
"539 -9 OFFCURVE",
"603 -9 CURVE SMOOTH",
"693 -9 OFFCURVE",
"792 45 OFFCURVE",
"792 118 CURVE SMOOTH",
"792 142 OFFCURVE",
"767 159 OFFCURVE",
"750 159 CURVE",
"750 86 OFFCURVE",
"697 40 OFFCURVE",
"603 40 CURVE SMOOTH",
"507 40 OFFCURVE",
"457 91 OFFCURVE",
"457 168 CURVE SMOOTH",
"457 234 LINE",
"775 234 LINE SMOOTH",
"788 234 OFFCURVE",
"802 246 OFFCURVE",
"802 260 CURVE SMOOTH",
"802 330 LINE SMOOTH",
"802 433 OFFCURVE",
"713 509 OFFCURVE",
"603 509 CURVE SMOOTH",
"543 509 OFFCURVE",
"490 487 OFFCURVE",
"453 450 CURVE",
"410 487 OFFCURVE",
"361 509 OFFCURVE",
"299 509 CURVE SMOOTH",
"156 509 OFFCURVE",
"60 392 OFFCURVE",
"60 249 CURVE SMOOTH"
);
},
{
closed = 1;
nodes = (
"115 370 OFFCURVE",
"185 460 OFFCURVE",
"299 460 CURVE SMOOTH",
"351 460 OFFCURVE",
"389 441 OFFCURVE",
"423 409 CURVE",
"411 386 OFFCURVE",
"404 359 OFFCURVE",
"404 330 CURVE SMOOTH",
"404 168 LINE SMOOTH",
"404 139 OFFCURVE",
"410 112 OFFCURVE",
"422 88 CURVE",
"388 57 OFFCURVE",
"349 40 OFFCURVE",
"299 40 CURVE SMOOTH",
"185 40 OFFCURVE",
"115 129 OFFCURVE",
"115 249 CURVE SMOOTH"
);
},
{
closed = 1;
nodes = (
"457 330 LINE SMOOTH",
"457 404 OFFCURVE",
"514 460 OFFCURVE",
"603 460 CURVE SMOOTH",
"692 460 OFFCURVE",
"749 404 OFFCURVE",
"749 330 CURVE SMOOTH",
"749 283 LINE",
"457 283 LINE"
);
}
);
width = 862;
}
);
note = oe;
unicode = 0153;
},
{
color = 4;
glyphname = thorn;
lastChange = "2018-02-20 09:01:26 +0000";
layers = (
{
layerId = "0B1DFD06-3317-40CA-B510-4969A0718C16";
paths = (
{
closed = 1;
nodes = (
"134 45 LINE",
"128 52 OFFCURVE",
"119 62 OFFCURVE",
"114 69 CURVE",
"116 74 LINE",
"153 31 OFFCURVE",
"201 -9 OFFCURVE",
"283 -9 CURVE SMOOTH",
"399 -9 OFFCURVE",
"478 55 OFFCURVE",
"478 158 CURVE SMOOTH",
"478 341 LINE SMOOTH",
"478 446 OFFCURVE",
"399 509 OFFCURVE",
"281 509 CURVE SMOOTH",
"204 509 OFFCURVE",
"151 466 OFFCURVE",
"116 422 CURVE",
"114 426 LINE",
"120 434 OFFCURVE",
"128 444 OFFCURVE",
"134 451 CURVE",
"134 709 LINE",
"95 709 OFFCURVE",
"80 689 OFFCURVE",
"80 651 CURVE SMOOTH",
"80 -209 LINE",
"116 -209 OFFCURVE",
"134 -191 OFFCURVE",
"134 -156 CURVE SMOOTH"
);
},
{
closed = 1;
nodes = (
"371 460 OFFCURVE",
"425 416 OFFCURVE",
"425 341 CURVE SMOOTH",
"425 158 LINE SMOOTH",
"425 86 OFFCURVE",
"371 40 OFFCURVE",
"281 40 CURVE SMOOTH",
"187 40 OFFCURVE",
"134 91 OFFCURVE",
"134 153 CURVE SMOOTH",
"134 346 LINE SMOOTH",
"134 409 OFFCURVE",
"199 460 OFFCURVE",
"279 460 CURVE SMOOTH"
);
}
);
width = 538;
}
);
note = thorn;
unicode = 00FE;
},
{
color = 4;
glyphname = germandbls;
lastChange = "2018-02-20 09:01:26 +0000";
layers = (
{
layerId = "0B1DFD06-3317-40CA-B510-4969A0718C16";
paths = (
{
closed = 1;
nodes = (
"127 -136 OFFCURVE",
"146 -115 OFFCURVE",
"146 -77 CURVE SMOOTH",
"146 526 LINE SMOOTH",
"146 606 OFFCURVE",
"182 662 OFFCURVE",
"266 662 CURVE SMOOTH",
"357 662 OFFCURVE",
"390 613 OFFCURVE",
"390 535 CURVE SMOOTH",
"390 436 OFFCURVE",
"341 404 OFFCURVE",
"257 399 CURVE",
"257 352 LINE",
"375 352 OFFCURVE",
"436 304 OFFCURVE",
"436 193 CURVE SMOOTH",
"436 94 OFFCURVE",
"400 38 OFFCURVE",
"327 38 CURVE SMOOTH",
"291 38 OFFCURVE",
"262 44 OFFCURVE",
"240 58 CURVE",
"234 49 OFFCURVE",
"232 38 OFFCURVE",
"232 30 CURVE SMOOTH",
"232 4 OFFCURVE",
"282 -9 OFFCURVE",
"322 -9 CURVE SMOOTH",
"433 -9 OFFCURVE",
"493 64 OFFCURVE",
"493 193 CURVE SMOOTH",
"493 289 OFFCURVE",
"447 356 OFFCURVE",
"358 381 CURVE",
"417 409 OFFCURVE",
"450 467 OFFCURVE",
"450 532 CURVE SMOOTH",
"450 634 OFFCURVE",
"393 709 OFFCURVE",
"268 709 CURVE SMOOTH",
"150 709 OFFCURVE",
"88 634 OFFCURVE",
"88 522 CURVE SMOOTH",
"88 -136 LINE"
);
}
);
width = 547;
}
);
note = uni00DF;
unicode = 00DF;
},
{
color = 4;
glyphname = tbar;
lastChange = "2018-02-20 09:01:26 +0000";
layers = (
{
components = (
{
name = t;
}
);
layerId = "0B1DFD06-3317-40CA-B510-4969A0718C16";
paths = (
{
closed = 1;
nodes = (
"256 242 LINE SMOOTH",
"291 242 OFFCURVE",
"306 258 OFFCURVE",
"306 289 CURVE",
"95 289 LINE SMOOTH",
"60 289 OFFCURVE",
"45 274 OFFCURVE",
"45 242 CURVE"
);
}
);
width = 397;
}
);
leftKerningGroup = t;
note = tbar;
rightKerningGroup = t;
unicode = 0167;
},
{
color = 4;
glyphname = uhorn;
lastChange = "2018-02-20 09:01:26 +0000";
layers = (
{
anchors = (
{
name = bottom;
position = "{288, 0}";
},
{
name = top;
position = "{288, 509}";
}
);
layerId = "0B1DFD06-3317-40CA-B510-4969A0718C16";
paths = (
{
closed = 1;
nodes = (
"446 509 OFFCURVE",
"428 491 OFFCURVE",
"428 456 CURVE SMOOTH",
"428 160 LINE SMOOTH",
"428 96 OFFCURVE",
"350 40 OFFCURVE",
"270 40 CURVE SMOOTH",
"179 40 OFFCURVE",
"137 93 OFFCURVE",
"137 165 CURVE SMOOTH",
"137 509 LINE",
"101 509 OFFCURVE",
"84 491 OFFCURVE",
"84 456 CURVE SMOOTH",
"84 165 LINE SMOOTH",
"84 67 OFFCURVE",
"149 -9 OFFCURVE",
"267 -9 CURVE SMOOTH",
"342 -9 OFFCURVE",
"408 35 OFFCURVE",
"446 85 CURVE",
"448 80 LINE",
"443 74 OFFCURVE",
"436 65 OFFCURVE",
"430 59 CURVE",
"430 -9 LINE",
"466 -9 OFFCURVE",
"482 9 OFFCURVE",
"482 45 CURVE SMOOTH",
"482 509 LINE"
);
},
{
closed = 1;
nodes = (
"481 321 LINE",
"574 340 OFFCURVE",
"595 395 OFFCURVE",
"595 457 CURVE SMOOTH",
"595 491 OFFCURVE",
"579 509 OFFCURVE",
"545 509 CURVE",
"545 415 OFFCURVE",
"535 370 OFFCURVE",
"481 357 CURVE"
);
}
);
width = 575;
}
);
note = uhorn;
unicode = 01B0;
},
{
color = 4;
glyphname = fi;
lastChange = "2018-02-20 09:01:26 +0000";
layers = (
{
layerId = "0B1DFD06-3317-40CA-B510-4969A0718C16";
paths = (
{
closed = 1;
nodes = (
"135 509 LINE",
"98 509 LINE SMOOTH",
"67 509 OFFCURVE",
"50 491 OFFCURVE",
"50 460 CURVE",
"135 460 LINE",
"135 -9 LINE",
"172 -9 OFFCURVE",
"189 9 OFFCURVE",
"189 44 CURVE SMOOTH",
"189 460 LINE",
"428 460 LINE",
"428 -9 LINE",
"464 -9 OFFCURVE",
"482 9 OFFCURVE",
"482 44 CURVE SMOOTH",
"482 509 LINE",
"189 509 LINE",
"189 565 LINE SMOOTH",
"189 622 OFFCURVE",
"223 660 OFFCURVE",
"282 660 CURVE SMOOTH",
"318 660 OFFCURVE",
"346 648 OFFCURVE",
"360 639 CURVE",
"364 646 OFFCURVE",
"366 651 OFFCURVE",
"366 660 CURVE SMOOTH",
"366 681 OFFCURVE",
"337 709 OFFCURVE",
"285 709 CURVE SMOOTH",
"192 709 OFFCURVE",
"135 650 OFFCURVE",
"135 569 CURVE SMOOTH"
);
},
{
closed = 1;
nodes = (
"483 609 OFFCURVE",
"505 631 OFFCURVE",
"505 659 CURVE SMOOTH",
"505 687 OFFCURVE",
"483 709 OFFCURVE",
"455 709 CURVE SMOOTH",
"427 709 OFFCURVE",
"405 687 OFFCURVE",
"405 659 CURVE SMOOTH",
"405 631 OFFCURVE",
"427 609 OFFCURVE",
"455 609 CURVE SMOOTH"
);
}
);
width = 585;
}
);
note = fi;
unicode = FB01;
},
{
color = 4;
glyphname = fl;
lastChange = "2018-02-20 09:01:26 +0000";
layers = (
{
layerId = "0B1DFD06-3317-40CA-B510-4969A0718C16";
paths = (
{
closed = 1;
nodes = (
"135 460 LINE",
"135 -9 LINE",
"172 -9 OFFCURVE",
"189 9 OFFCURVE",
"189 44 CURVE SMOOTH",
"189 460 LINE",
"427 460 LINE",
"427 119 LINE SMOOTH",
"427 44 OFFCURVE",
"464 -9 OFFCURVE",
"552 -9 CURVE SMOOTH",
"595 -9 OFFCURVE",
"623 13 OFFCURVE",
"623 35 CURVE SMOOTH",
"623 44 OFFCURVE",
"621 51 OFFCURVE",
"617 58 CURVE",
"603 49 OFFCURVE",
"579 40 OFFCURVE",
"555 40 CURVE SMOOTH",
"499 40 OFFCURVE",
"481 64 OFFCURVE",
"481 121 CURVE SMOOTH",
"481 508.093 LINE",
"482 509 LINE",
"481 509 LINE",
"481 647 LINE",
"453 676 OFFCURVE",
"395 709 OFFCURVE",
"305 709 CURVE SMOOTH",
"202 709 OFFCURVE",
"135 640 OFFCURVE",
"135 559 CURVE SMOOTH",
"135 509 LINE",
"98 509 LINE SMOOTH",
"67 509 OFFCURVE",
"50 491 OFFCURVE",
"50 460 CURVE"
);
},
{
closed = 1;
nodes = (
"189 555 LINE SMOOTH",
"189 612 OFFCURVE",
"222 660 OFFCURVE",
"302 660 CURVE SMOOTH",
"371 660 OFFCURVE",
"397 648 OFFCURVE",
"427 628 CURVE",
"427 509 LINE",
"189 509 LINE"
);
}
);
width = 673;
}
);
note = fl;
unicode = FB02;
},
{
color = 4;
glyphname = ordfeminine;
lastChange = "2018-02-20 09:01:26 +0000";
layers = (
{
layerId = "0B1DFD06-3317-40CA-B510-4969A0718C16";
paths = (
{
closed = 1;
nodes = (
"272 299 OFFCURVE",
"309 331 OFFCURVE",
"341 371 CURVE",
"344 368 LINE",
"338 361 OFFCURVE",
"334 356 OFFCURVE",
"325 346 CURVE",
"325 299 LINE",
"356 299 OFFCURVE",
"372 315 OFFCURVE",
"372 346 CURVE SMOOTH",
"372 568 LINE SMOOTH",
"372 652 OFFCURVE",
"312 709 OFFCURVE",
"214 709 CURVE SMOOTH",
"141 709 OFFCURVE",
"62 667 OFFCURVE",
"62 619 CURVE SMOOTH",
"62 604 OFFCURVE",
"70 590 OFFCURVE",
"83 580 CURVE",
"106 632 OFFCURVE",
"147 665 OFFCURVE",
"214 665 CURVE SMOOTH",
"297 665 OFFCURVE",
"325 619 OFFCURVE",
"325 568 CURVE SMOOTH",
"325 528 LINE",
"333 520 OFFCURVE",
"336 515 OFFCURVE",
"342 507 CURVE",
"339 505 LINE",
"307 543 OFFCURVE",
"269 567 OFFCURVE",
"208 567 CURVE SMOOTH",
"126 567 OFFCURVE",
"48 528 OFFCURVE",
"48 431 CURVE SMOOTH",
"48 348 OFFCURVE",
"111 299 OFFCURVE",
"203 299 CURVE SMOOTH"
);
},
{
closed = 1;
nodes = (
"143 342 OFFCURVE",
"96 374 OFFCURVE",
"96 431 CURVE SMOOTH",
"96 496 OFFCURVE",
"138 523 OFFCURVE",
"208 523 CURVE SMOOTH",
"282 523 OFFCURVE",
"327 496 OFFCURVE",
"327 432 CURVE SMOOTH",
"327 384 OFFCURVE",
"286 342 OFFCURVE",
"203 342 CURVE SMOOTH"
);
}
);
width = 401;
}
);
note = ordfeminine;
unicode = 00AA;
},
{
color = 4;
glyphname = ordmasculine;
lastChange = "2018-02-20 09:01:26 +0000";
layers = (
{
guideLines = (
{
position = "{22, 299}";
}
);
layerId = "0B1DFD06-3317-40CA-B510-4969A0718C16";
paths = (
{
closed = 1;
nodes = (
"381 299 OFFCURVE",
"473 392 OFFCURVE",
"473 503 CURVE SMOOTH",
"473 615 OFFCURVE",
"381 709 OFFCURVE",
"264 709 CURVE SMOOTH",
"153 709 OFFCURVE",
"60 615 OFFCURVE",
"60 503 CURVE SMOOTH",
"60 392 OFFCURVE",
"153 299 OFFCURVE",
"264 299 CURVE SMOOTH"
);
},
{
closed = 1;
nodes = (
"180 341 OFFCURVE",
"108 412 OFFCURVE",
"108 503 CURVE SMOOTH",
"108 594 OFFCURVE",
"180 666 OFFCURVE",
"264 666 CURVE SMOOTH",
"354 666 OFFCURVE",
"425 594 OFFCURVE",
"425 503 CURVE SMOOTH",
"425 412 OFFCURVE",
"354 341 OFFCURVE",
"264 341 CURVE SMOOTH"
);
}
);
width = 524;
}
);
note = ordmasculine;
unicode = 00BA;
},
{
color = 4;
glyphname = nmod;
lastChange = "2018-02-20 09:01:26 +0000";
layers = (
{
layerId = "0B1DFD06-3317-40CA-B510-4969A0718C16";
paths = (
{
closed = 1;
nodes = (
"64 294 OFFCURVE",
"83 308 OFFCURVE",
"83 336 CURVE SMOOTH",
"83 565 LINE SMOOTH",
"83 616 OFFCURVE",
"148 660 OFFCURVE",
"211 660 CURVE SMOOTH",
"283 660 OFFCURVE",
"312 622 OFFCURVE",
"312 565 CURVE SMOOTH",
"312 294 LINE",
"341 294 OFFCURVE",
"359 308 OFFCURVE",
"359 336 CURVE SMOOTH",
"359 570 LINE SMOOTH",
"359 648 OFFCURVE",
"307 704 OFFCURVE",
"213 704 CURVE SMOOTH",
"154 704 OFFCURVE",
"99 669 OFFCURVE",
"68 630 CURVE",
"67 634 LINE",
"71 638 OFFCURVE",
"76 645 OFFCURVE",
"81 650 CURVE",
"81 704 LINE",
"53 704 OFFCURVE",
"36 690 OFFCURVE",
"36 661 CURVE SMOOTH",
"36 294 LINE"
);
}
);
width = 416;
}
);
note = uni207F;
unicode = 207F;
},
{
color = 4;
glyphname = Delta;
lastChange = "2018-02-20 09:01:36 +0000";
layers = (
{
layerId = "0B1DFD06-3317-40CA-B510-4969A0718C16";
paths = (
{
closed = 1;
nodes = (
"55 53 LINE",
"295 624 LINE",
"535 53 LINE"
);
},
{
closed = 1;
nodes = (
"275 700 LINE",
"0 53 LINE",
"0 0 LINE",
"590 0 LINE",
"590 53 LINE",
"315 700 LINE"
);
}
);
width = 590;
}
);
note = Delta;
unicode = 0394;
},
{
color = 4;
glyphname = Omega;
lastChange = "2018-02-20 09:01:36 +0000";
layers = (
{
layerId = "0B1DFD06-3317-40CA-B510-4969A0718C16";
paths = (
{
closed = 1;
nodes = (
"499 654 OFFCURVE",
"592 551 OFFCURVE",
"592 410 CURVE SMOOTH",
"592 274 OFFCURVE",
"536 179 OFFCURVE",
"395 149 CURVE",
"395 0 LINE",
"667 0 LINE",
"667 32 OFFCURVE",
"649 53 OFFCURVE",
"617 53 CURVE SMOOTH",
"454 53 LINE",
"454 111 LINE",
"590 153 OFFCURVE",
"653 265 OFFCURVE",
"653 410 CURVE SMOOTH",
"653 569 OFFCURVE",
"539 709 OFFCURVE",
"340 709 CURVE SMOOTH",
"141 709 OFFCURVE",
"27 569 OFFCURVE",
"27 410 CURVE SMOOTH",
"27 265 OFFCURVE",
"90 153 OFFCURVE",
"226 111 CURVE",
"226 53 LINE",
"63 53 LINE SMOOTH",
"31 53 OFFCURVE",
"13 32 OFFCURVE",
"13 0 CURVE",
"285 0 LINE",
"285 149 LINE",
"144 179 OFFCURVE",
"88 274 OFFCURVE",
"88 410 CURVE SMOOTH",
"88 551 OFFCURVE",
"181 654 OFFCURVE",
"340 654 CURVE SMOOTH"
);
}
);
width = 681;
}
);
note = Omega;
unicode = 03A9;
},
{
color = 4;
glyphname = mu;
lastChange = "2018-02-20 09:01:36 +0000";
layers = (
{
layerId = "0B1DFD06-3317-40CA-B510-4969A0718C16";
paths = (
{
closed = 1;
nodes = (
"126 36 OFFCURVE",
"118 46 OFFCURVE",
"112 54 CURVE",
"116 57 LINE",
"153 12 OFFCURVE",
"196 -9 OFFCURVE",
"263 -9 CURVE SMOOTH",
"338 -9 OFFCURVE",
"404 35 OFFCURVE",
"442 85 CURVE",
"444 80 LINE",
"439 74 OFFCURVE",
"432 65 OFFCURVE",
"426 59 CURVE",
"426 -9 LINE",
"462 -9 OFFCURVE",
"478 9 OFFCURVE",
"478 45 CURVE SMOOTH",
"478 509 LINE",
"442 509 OFFCURVE",
"424 491 OFFCURVE",
"424 456 CURVE SMOOTH",
"424 160 LINE SMOOTH",
"424 96 OFFCURVE",
"346 40 OFFCURVE",
"266 40 CURVE SMOOTH",
"175 40 OFFCURVE",
"134 93 OFFCURVE",
"134 165 CURVE SMOOTH",
"134 509 LINE",
"98 509 OFFCURVE",
"80 491 OFFCURVE",
"80 456 CURVE SMOOTH",
"80 -209 LINE",
"116 -209 OFFCURVE",
"134 -191 OFFCURVE",
"134 -156 CURVE SMOOTH",
"134 28 LINE"
);
}
);
width = 558;
}
);
note = mu;
unicode = 03BC;
},
{
glyphname = pi;
lastChange = "2018-01-16 07:49:44 +0000";
layers = (
{
layerId = "0B1DFD06-3317-40CA-B510-4969A0718C16";
paths = (
{
closed = 1;
nodes = (
"88 451 LINE SMOOTH",
"88 488 OFFCURVE",
"109 511 OFFCURVE",
"146 511 CURVE",
"146 50 LINE SMOOTH",
"146 13 OFFCURVE",
"125 -9 OFFCURVE",
"88 -9 CURVE"
);
},
{
closed = 1;
nodes = (
"125 -9 OFFCURVE",
"146 13 OFFCURVE",
"146 50 CURVE SMOOTH",
"146 511 LINE",
"109 511 OFFCURVE",
"88 488 OFFCURVE",
"88 451 CURVE SMOOTH",
"88 -9 LINE"
);
}
);
width = 234;
}
);
note = pi;
unicode = 03C0;
},
{
color = 4;
glyphname = "koKai-thai";
lastChange = "2018-02-20 09:01:36 +0000";
layers = (
{
guideLines = (
{
position = "{-109, 403}";
}
);
layerId = "0B1DFD06-3317-40CA-B510-4969A0718C16";
paths = (
{
closed = 1;
nodes = (
"162 275 LINE SMOOTH",
"162 285 OFFCURVE",
"161 291 OFFCURVE",
"156 301 CURVE SMOOTH",
"105 403 LINE",
"120 470 OFFCURVE",
"192 542 OFFCURVE",
"293 542 CURVE SMOOTH",
"415 542 OFFCURVE",
"463 474 OFFCURVE",
"463 393 CURVE SMOOTH",
"463 -9 LINE",
"494 -9 OFFCURVE",
"519 18 OFFCURVE",
"519 53 CURVE SMOOTH",
"519 393 LINE SMOOTH",
"519 515 OFFCURVE",
"417 593 OFFCURVE",
"293 593 CURVE SMOOTH",
"171 593 OFFCURVE",
"81 511 OFFCURVE",
"51 414 CURVE SMOOTH",
"49 407 OFFCURVE",
"50 397 OFFCURVE",
"53 392 CURVE SMOOTH",
"106 286 LINE",
"106 53 LINE SMOOTH",
"106 18 OFFCURVE",
"131 -9 OFFCURVE",
"162 -9 CURVE"
);
}
);
width = 589;
}
);
note = uni0E01;
unicode = 0E01;
},
{
color = 4;
glyphname = "thoThung-thai";
lastChange = "2018-02-20 09:01:36 +0000";
layers = (
{
layerId = "0B1DFD06-3317-40CA-B510-4969A0718C16";
paths = (
{
closed = 1;
nodes = (
"247 -9 OFFCURVE",
"289 31 OFFCURVE",
"289 82 CURVE SMOOTH",
"289 132 OFFCURVE",
"252 171 OFFCURVE",
"202 171 CURVE SMOOTH",
"177 171 OFFCURVE",
"155 160 OFFCURVE",
"140 143 CURVE",
"138 145 LINE",
"145 155 OFFCURVE",
"153 162 OFFCURVE",
"162 167 CURVE",
"162 275 LINE SMOOTH",
"162 285 OFFCURVE",
"161 291 OFFCURVE",
"156 301 CURVE SMOOTH",
"105 403 LINE",
"120 470 OFFCURVE",
"192 542 OFFCURVE",
"293 542 CURVE SMOOTH",
"415 542 OFFCURVE",
"463 474 OFFCURVE",
"463 393 CURVE SMOOTH",
"463 -9 LINE",
"494 -9 OFFCURVE",
"519 18 OFFCURVE",
"519 53 CURVE SMOOTH",
"519 393 LINE SMOOTH",
"519 515 OFFCURVE",
"424 593 OFFCURVE",
"293 593 CURVE SMOOTH",
"171 593 OFFCURVE",
"79 512 OFFCURVE",
"51 414 CURVE SMOOTH",
"49 407 OFFCURVE",
"50 397 OFFCURVE",
"53 392 CURVE SMOOTH",
"106 286 LINE",
"106 86 LINE SMOOTH",
"106 30 OFFCURVE",
"144 -9 OFFCURVE",
"197 -9 CURVE SMOOTH"
);
},
{
closed = 1;
nodes = (
"170 34 OFFCURVE",
"150 54 OFFCURVE",
"150 82 CURVE SMOOTH",
"150 109 OFFCURVE",
"170 129 OFFCURVE",
"197 129 CURVE SMOOTH",
"225 129 OFFCURVE",
"245 109 OFFCURVE",
"245 82 CURVE SMOOTH",
"245 54 OFFCURVE",
"225 34 OFFCURVE",
"197 34 CURVE SMOOTH"
);
}
);
width = 589;
}
);
note = uni0E16;
unicode = 0E16;
},
{
color = 4;
glyphname = "phoSamphao-thai";
lastChange = "2018-02-20 09:01:36 +0000";
layers = (
{
layerId = "0B1DFD06-3317-40CA-B510-4969A0718C16";
paths = (
{
closed = 1;
nodes = (
"176 162 OFFCURVE",
"184 155 OFFCURVE",
"191 145 CURVE",
"189 143 LINE",
"174 160 OFFCURVE",
"152 171 OFFCURVE",
"127 171 CURVE SMOOTH",
"79 171 OFFCURVE",
"40 132 OFFCURVE",
"40 82 CURVE SMOOTH",
"40 25 OFFCURVE",
"81 -9 OFFCURVE",
"132 -9 CURVE SMOOTH",
"182 -9 OFFCURVE",
"223 30 OFFCURVE",
"223 86 CURVE SMOOTH",
"223 285 LINE SMOOTH",
"223 295 OFFCURVE",
"222 300 OFFCURVE",
"216 308 CURVE SMOOTH",
"139 405 LINE",
"156 474 OFFCURVE",
"234 542 OFFCURVE",
"335 542 CURVE SMOOTH",
"447 542 OFFCURVE",
"494 478 OFFCURVE",
"494 397 CURVE SMOOTH",
"494 -9 LINE",
"525 -9 OFFCURVE",
"550 18 OFFCURVE",
"550 53 CURVE SMOOTH",
"550 397 LINE SMOOTH",
"550 520 OFFCURVE",
"462 593 OFFCURVE",
"335 593 CURVE SMOOTH",
"212 593 OFFCURVE",
"111 509 OFFCURVE",
"82 409 CURVE",
"80 402 OFFCURVE",
"81 392 OFFCURVE",
"84 387 CURVE SMOOTH",
"167 282 LINE",
"167 167 LINE"
);
},
{
closed = 1;
nodes = (
"103 34 OFFCURVE",
"84 54 OFFCURVE",
"84 82 CURVE SMOOTH",
"84 109 OFFCURVE",
"100 129 OFFCURVE",
"132 129 CURVE SMOOTH",
"159 129 OFFCURVE",
"179 109 OFFCURVE",
"179 82 CURVE SMOOTH",
"179 54 OFFCURVE",
"159 34 OFFCURVE",
"132 34 CURVE SMOOTH"
);
}
);
width = 620;
}
);
note = uni0E20;
unicode = 0E20;
},
